STARTFONT 2.1
FONT -baekmuk-batang-bold-r-normal--24-240-75-75-m-240-ksx1001.1997-0
SIZE 24 75 75
FONTBOUNDINGBOX 24 24 0 -5
STARTPROPERTIES 18
FOUNDRY "baekmuk"
FAMILY_NAME "batang"
WEIGHT_NAME "bold"
SLANT "r"
SETWIDTH_NAME "normal"
ADD_STYLE_NAME ""
PIXEL_SIZE 24
POINT_SIZE 240
RESOLUTION_X 75
RESOLUTION_Y 75
SPACING "m"
AVERAGE_WIDTH 240
CHARSET_REGISTRY "ksx1001.1997"
CHARSET_ENCODING "0"
DEFAULT_CHAR 8481
FONT_ASCENT 19
FONT_DESCENT 5
COPYRIGHT "(c)Hwan Design Inc. and Mizi Research Inc."
ENDPROPERTIES
CHARS 8928
STARTCHAR C020440
ENCODING 8480
SWIDTH 2400 0
DWIDTH 24 0
BBX 0 0 0 0
BITMAP
ENDCHAR
STARTCHAR C020441
ENCODING 8481
SWIDTH 2400 0
DWIDTH 24 0
BBX 0 0 0 0
BITMAP
ENDCHAR
STARTCHAR C020442
ENCODING 8482
SWIDTH 2400 0
DWIDTH 24 0
BBX 5 4 17 15
BITMAP
E0
78
38
18
ENDCHAR
STARTCHAR C020443
ENCODING 8483
SWIDTH 2400 0
DWIDTH 24 0
BBX 6 6 16 13
BITMAP
78
EC
CC
CC
CC
78
ENDCHAR
STARTCHAR C020444
ENCODING 8484
SWIDTH 2400 0
DWIDTH 24 0
BBX 5 3 10 6
BITMAP
70
F8
F8
ENDCHAR
STARTCHAR C020445
ENCODING 8485
SWIDTH 2400 0
DWIDTH 24 0
BBX 15 3 5 6
BITMAP
6006
F006
F006
ENDCHAR
STARTCHAR C020446
ENCODING 8486
SWIDTH 2400 0
DWIDTH 24 0
BBX 19 3 3 6
BITMAP
C06060
C06060
C06060
ENDCHAR
STARTCHAR C020447
ENCODING 8487
SWIDTH 2400 0
DWIDTH 24 0
BBX 11 3 7 6
BITMAP
C060
C060
C060
ENDCHAR
STARTCHAR C020450
ENCODING 8488
SWIDTH 2400 0
DWIDTH 24 0
BBX 8 8 8 3
BITMAP
3B
37
37
76
66
6C
CC
C0
ENDCHAR
STARTCHAR C020451
ENCODING 8489
SWIDTH 2400 0
DWIDTH 24 0
BBX 11 1 7 7
BITMAP
FFE0
ENDCHAR
STARTCHAR C020452
ENCODING 8490
SWIDTH 2400 0
DWIDTH 24 0
BBX 23 1 1 7
BITMAP
FFFFFE
ENDCHAR
STARTCHAR C020453
ENCODING 8491
SWIDTH 2400 0
DWIDTH 24 0
BBX 7 20 9 -3
BITMAP
C6
C6
C6
C6
C6
C6
C6
C6
C6
C6
C6
C6
C6
C6
C6
C6
C6
C6
C6
C6
ENDCHAR
STARTCHAR C020454
ENCODING 8492
SWIDTH 2400 0
DWIDTH 24 0
BBX 21 20 2 -3
BITMAP
C00000
600000
300000
180000
0C0000
060000
030000
018000
00C000
007000
003800
001C00
000E00
000700
000380
0001C0
0000E0
000070
000038
000018
ENDCHAR
STARTCHAR C020455
ENCODING 8493
SWIDTH 2400 0
DWIDTH 24 0
BBX 17 4 4 5
BITMAP
1F0000
7F8380
C1E700
007E00
ENDCHAR
STARTCHAR C020456
ENCODING 8494
SWIDTH 2400 0
DWIDTH 24 0
BBX 4 5 16 13
BITMAP
60
60
E0
F0
70
ENDCHAR
STARTCHAR C020457
ENCODING 8495
SWIDTH 2400 0
DWIDTH 24 0
BBX 4 6 5 13
BITMAP
E0
F0
70
60
60
C0
ENDCHAR
STARTCHAR C020460
ENCODING 8496
SWIDTH 2400 0
DWIDTH 24 0
BBX 9 6 14 13
BITMAP
3180
6300
C600
E700
F780
E780
ENDCHAR
STARTCHAR C020461
ENCODING 8497
SWIDTH 2400 0
DWIDTH 24 0
BBX 9 6 2 13
BITMAP
0380
F780
F180
3180
6300
6600
ENDCHAR
STARTCHAR C020462
ENCODING 8498
SWIDTH 2400 0
DWIDTH 24 0
BBX 6 22 17 -4
BITMAP
1C
70
C0
C0
C0
C0
C0
C0
C0
C0
C0
C0
C0
C0
C0
C0
C0
C0
C0
E0
78
0C
ENDCHAR
STARTCHAR C020463
ENCODING 8499
SWIDTH 2400 0
DWIDTH 24 0
BBX 6 22 2 -4
BITMAP
E0
3C
0C
0C
0C
0C
0C
0C
0C
0C
0C
0C
0C
0C
0C
0C
0C
0C
0C
1C
70
C0
ENDCHAR
STARTCHAR C020464
ENCODING 8500
SWIDTH 2400 0
DWIDTH 24 0
BBX 10 20 14 -3
BITMAP
00C0
0180
0300
0700
0E00
0C00
1800
3000
6000
E000
E000
7000
3000
1800
0C00
0E00
0700
0300
0180
00C0
ENDCHAR
STARTCHAR C020465
ENCODING 8501
SWIDTH 2400 0
DWIDTH 24 0
BBX 10 20 1 -3
BITMAP
E000
6000
3000
1800
1C00
0C00
0600
0300
0380
01C0
01C0
0180
0300
0600
0E00
1C00
1800
3000
6000
C000
ENDCHAR
STARTCHAR C020466
ENCODING 8502
SWIDTH 2400 0
DWIDTH 24 0
BBX 10 20 14 -3
BITMAP
06C0
0780
0F00
1B00
1E00
3600
3C00
7800
D800
F000
F000
D800
7800
3C00
3C00
1E00
1B00
0F00
0780
06C0
ENDCHAR
STARTCHAR C020467
ENCODING 8503
SWIDTH 2400 0
DWIDTH 24 0
BBX 10 20 1 -3
BITMAP
D800
7800
6C00
3C00
1E00
1B00
0F00
0D80
0780
03C0
03C0
0780
0D80
0F00
1B00
1E00
3C00
6C00
7800
D800
ENDCHAR
STARTCHAR C020470
ENCODING 8504
SWIDTH 2400 0
DWIDTH 24 0
BBX 9 11 15 8
BITMAP
FF80
C000
C000
C000
C000
C000
C000
C000
C000
C000
C000
ENDCHAR
STARTCHAR C020471
ENCODING 8505
SWIDTH 2400 0
DWIDTH 24 0
BBX 9 11 2 -4
BITMAP
0180
0180
0180
0180
0180
0180
0180
0180
0180
0180
FF80
ENDCHAR
STARTCHAR C020472
ENCODING 8506
SWIDTH 2400 0
DWIDTH 24 0
BBX 9 11 15 8
BITMAP
FF80
C180
FF80
E000
E000
E000
E000
E000
E000
E000
E000
ENDCHAR
STARTCHAR C020473
ENCODING 8507
SWIDTH 2400 0
DWIDTH 24 0
BBX 10 11 1 -5
BITMAP
03C0
03C0
03C0
03C0
03C0
03C0
03C0
03C0
FFC0
C0C0
FFC0
ENDCHAR
STARTCHAR C020474
ENCODING 8508
SWIDTH 2400 0
DWIDTH 24 0
BBX 8 22 16 -4
BITMAP
FE
FC
FC
F8
F8
F8
F8
F0
F0
F0
F0
F0
F0
F0
F0
F8
F8
F8
FC
FC
FE
FF
ENDCHAR
STARTCHAR C020475
ENCODING 8509
SWIDTH 2400 0
DWIDTH 24 0
BBX 7 22 2 -4
BITMAP
FE
7E
7E
3E
3E
3E
1E
1E
1E
1E
1E
1E
1E
1E
1E
3E
3E
3E
3E
7E
7E
FE
ENDCHAR
STARTCHAR C020476
ENCODING 8510
SWIDTH 2400 0
DWIDTH 24 0
BBX 16 16 5 0
BITMAP
0180
0180
0180
0180
0180
0180
0180
FFFF
0180
0180
0180
0180
0180
0180
0000
FFFF
ENDCHAR
STARTCHAR C020477
ENCODING 8511
SWIDTH 2400 0
DWIDTH 24 0
BBX 15 14 5 0
BITMAP
C006
600E
3018
1830
0C60
06C0
0380
0380
06C0
0C60
1830
7018
E00C
C006
ENDCHAR
STARTCHAR C020500
ENCODING 8512
SWIDTH 2400 0
DWIDTH 24 0
BBX 17 14 4 0
BITMAP
018000
018000
018000
000000
000000
000000
000000
FFFF80
000000
000000
000000
018000
018000
018000
ENDCHAR
STARTCHAR C020501
ENCODING 8513
SWIDTH 2400 0
DWIDTH 24 0
BBX 18 14 4 0
BITMAP
030000
030000
030000
018000
FFFFC0
018000
00C000
00C000
00C000
FFFFC0
006000
006000
006000
007000
ENDCHAR
STARTCHAR C020502
ENCODING 8514
SWIDTH 2400 0
DWIDTH 24 0
BBX 18 14 3 0
BITMAP
0000C0
000780
001C00
00F000
038000
1E0000
F00000
1E0000
03C000
007000
001E00
0003C0
000000
7FFFC0
ENDCHAR
STARTCHAR C020503
ENCODING 8515
SWIDTH 2400 0
DWIDTH 24 0
BBX 17 14 4 0
BITMAP
600000
380000
0F0000
03C000
007000
001E00
000380
001E00
00F000
03C000
1E0000
F00000
000000
FFFF80
ENDCHAR
STARTCHAR C020504
ENCODING 8516
SWIDTH 2400 0
DWIDTH 24 0
BBX 21 9 2 3
BITMAP
1E03C0
338E70
60D830
C0F818
C07018
C07018
C0F818
61DC30
3F8FE0
ENDCHAR
STARTCHAR C020505
ENCODING 8517
SWIDTH 2400 0
DWIDTH 24 0
BBX 15 13 5 1
BITMAP
0780
0780
0780
0000
0000
0000
0000
0000
0000
0000
F01E
F01E
F01E
ENDCHAR
STARTCHAR C020506
ENCODING 8518
SWIDTH 2400 0
DWIDTH 24 0
BBX 7 6 2 13
BITMAP
38
EC
C6
C6
6C
38
ENDCHAR
STARTCHAR C020507
ENCODING 8519
SWIDTH 2400 0
DWIDTH 24 0
BBX 6 6 2 13
BITMAP
3C
38
30
60
60
C0
ENDCHAR
STARTCHAR C020510
ENCODING 8520
SWIDTH 2400 0
DWIDTH 24 0
BBX 10 6 2 13
BITMAP
39C0
3B80
7300
6700
6600
C000
ENDCHAR
STARTCHAR C020511
ENCODING 8521
SWIDTH 2400 0
DWIDTH 24 0
BBX 16 18 4 0
BITMAP
7800
CDF0
CF1F
7E07
0C07
1C03
1800
1800
1800
1800
1800
1800
1800
1C00
1C06
0E06
071C
03F0
ENDCHAR
STARTCHAR C020512
ENCODING 8522
SWIDTH 2400 0
DWIDTH 24 0
BBX 19 19 3 0
BITMAP
00E000
01B000
01B000
01B000
00E000
00E000
01F000
01F000
037800
033800
063C00
061C00
0FFE00
0C0E00
1C0F00
180700
380780
7807C0
FE1FE0
ENDCHAR
STARTCHAR C020513
ENCODING 8523
SWIDTH 2400 0
DWIDTH 24 0
BBX 23 21 1 -3
BITMAP
000006
00FFCC
018FF8
0703F0
0C01E0
0C03E0
180700
180E00
181C00
183800
187000
18E000
19C000
1F8060
0F0060
0F00C0
0FC380
18FE00
300000
600000
C00000
ENDCHAR
STARTCHAR C020514
ENCODING 8524
SWIDTH 2400 0
DWIDTH 24 0
BBX 16 18 5 -1
BITMAP
00F8
019E
030E
070E
070E
0700
0700
0700
0700
FFF8
0700
0700
0700
7F03
CF86
CDFE
F878
7000
ENDCHAR
STARTCHAR C020515
ENCODING 8525
SWIDTH 2400 0
DWIDTH 24 0
BBX 15 16 4 0
BITMAP
FF3E
3C18
1C18
1E30
0F60
7FFE
07E0
03C0
0180
7FFE
0180
0180
0180
0180
0180
0FF0
ENDCHAR
STARTCHAR C020516
ENCODING 8526
SWIDTH 2400 0
DWIDTH 24 0
BBX 12 20 7 -3
BITMAP
0600
0F00
1F80
1F80
36C0
6660
C630
0630
0600
0600
0600
0600
1F80
31C0
60C0
60C0
60C0
60C0
3180
1F00
ENDCHAR
STARTCHAR C020517
ENCODING 8527
SWIDTH 2400 0
DWIDTH 24 0
BBX 16 20 5 -3
BITMAP
07E0
0C70
1838
1838
1838
1838
1830
0FE0
0180
0180
0180
FFFF
0180
0180
0180
0180
0180
0180
0180
0180
ENDCHAR
STARTCHAR C020520
ENCODING 8528
SWIDTH 2400 0
DWIDTH 24 0
BBX 16 13 4 0
BITMAP
000E
0018
0030
0060
00C0
0180
0300
0600
0C00
1800
3000
6000
FFFF
ENDCHAR
STARTCHAR C020521
ENCODING 8529
SWIDTH 2400 0
DWIDTH 24 0
BBX 16 14 5 0
BITMAP
0180
0180
0180
0180
0180
0180
0180
0180
0180
0180
0180
0180
0180
FFFF
ENDCHAR
STARTCHAR C020522
ENCODING 8530
SWIDTH 2400 0
DWIDTH 24 0
BBX 15 3 5 15
BITMAP
1FF0
701C
C006
ENDCHAR
STARTCHAR C020523
ENCODING 8531
SWIDTH 2400 0
DWIDTH 24 0
BBX 11 17 7 0
BITMAP
0300
1FC0
39C0
00E0
0060
0060
0060
0E60
3BE0
71E0
61C0
E1C0
C3C0
C380
C700
C700
7E00
ENDCHAR
STARTCHAR C020524
ENCODING 8532
SWIDTH 2400 0
DWIDTH 24 0
BBX 19 14 3 0
BITMAP
FFFFE0
C00060
6000C0
300180
300180
180300
0C0600
0C0600
060C00
031800
031800
01B000
00E000
00E000
ENDCHAR
STARTCHAR C020525
ENCODING 8533
SWIDTH 2400 0
DWIDTH 24 0
BBX 17 8 4 3
BITMAP
FFFF80
000000
000000
FFFF80
000000
000000
000000
FFFF80
ENDCHAR
STARTCHAR C020526
ENCODING 8534
SWIDTH 2400 0
DWIDTH 24 0
BBX 17 14 4 0
BITMAP
300000
300000
300000
000000
FFFF80
000000
000000
000000
000000
FFFF80
000000
000600
000600
000600
ENDCHAR
STARTCHAR C020527
ENCODING 8535
SWIDTH 2400 0
DWIDTH 24 0
BBX 9 20 7 -3
BITMAP
7E00
E700
C780
C780
E000
F000
7C00
7E00
F700
E380
E180
F180
7F00
3E00
1F00
0F80
E780
E380
E700
7E00
ENDCHAR
STARTCHAR C020530
ENCODING 8536
SWIDTH 2400 0
DWIDTH 24 0
BBX 16 16 5 -1
BITMAP
0006
C786
67CC
37D8
1FB0
0C60
F6FE
FBBE
FBBE
F6FE
0C60
1FB0
37D8
77CC
E786
C003
ENDCHAR
STARTCHAR C020531
ENCODING 8537
SWIDTH 2400 0
DWIDTH 24 0
BBX 20 18 3 -2
BITMAP
00E000
00E000
00E000
01B000
01B000
01B000
FF1FF0
6000C0
300180
180300
0C0E00
060C00
0C0E00
0CE600
0DB600
1F1B00
1C0F00
300000
ENDCHAR
STARTCHAR C020532
ENCODING 8538
SWIDTH 2400 0
DWIDTH 24 0
BBX 20 18 3 -2
BITMAP
006000
00E000
00E000
01F000
01F000
01F000
FFFFF0
7FFFC0
3FFF80
0FFF00
07FC00
07FE00
0FFE00
0FFE00
0FBE00
1E0F00
180700
300000
ENDCHAR
STARTCHAR C020533
ENCODING 8539
SWIDTH 2400 0
DWIDTH 24 0
BBX 21 20 2 -3
BITMAP
01FC00
070700
1C01C0
3800E0
300060
600030
600030
C00018
C00018
C00018
C00018
C00018
C00018
600030
600030
300070
3800E0
1C01C0
070780
01FC00
ENDCHAR
STARTCHAR C020534
ENCODING 8540
SWIDTH 2400 0
DWIDTH 24 0
BBX 21 19 2 -2
BITMAP
01FC00
07FF80
0FFFC0
1FFFE0
3FFFF0
7FFFF0
7FFFF8
7FFFF8
FFFFF8
FFFFF8
FFFFF8
FFFFF8
7FFFF8
7FFFF0
3FFFF0
3FFFE0
1FFFC0
07FF80
01FE00
ENDCHAR
STARTCHAR C020535
ENCODING 8541
SWIDTH 2400 0
DWIDTH 24 0
BBX 21 20 2 -3
BITMAP
01FC00
070700
1C01C0
3800E0
31F860
670E30
6E0730
CC0318
D80198
D80198
D80198
D80198
D80198
6C0330
6E0730
370E70
39F8E0
1C01C0
070780
01FC00
ENDCHAR
STARTCHAR C020536
ENCODING 8542
SWIDTH 2400 0
DWIDTH 24 0
BBX 23 22 1 -4
BITMAP
001800
003C00
006E00
00C700
018380
0701C0
0E00E0
1C0070
380038
70001C
E0000E
E0000C
700018
380030
1C0060
0E00C0
070180
038300
01C600
00EC00
007800
003000
ENDCHAR
STARTCHAR C020537
ENCODING 8543
SWIDTH 2400 0
DWIDTH 24 0
BBX 22 22 1 -4
BITMAP
003000
007800
00FC00
01FE00
03FF00
07FF80
0FFFC0
1FFFE0
3FFFF0
7FFFF8
FFFFFC
FFFFFC
7FFFF8
3FFFF0
1FFFE0
0FFFC0
07FF80
03FF00
01FE00
00FC00
007800
003000
ENDCHAR
STARTCHAR C020540
ENCODING 8544
SWIDTH 2400 0
DWIDTH 24 0
BBX 20 18 3 -2
BITMAP
FFFFF0
C00030
C00030
C00030
C00030
C00030
C00030
C00030
C00030
C00030
C00030
C00030
C00030
C00030
C00030
C00030
C00030
FFFFF0
ENDCHAR
STARTCHAR C020541
ENCODING 8545
SWIDTH 2400 0
DWIDTH 24 0
BBX 20 18 3 -2
BITMAP
FFFFF0
FFFFF0
FFFFF0
FFFFF0
FFFFF0
FFFFF0
FFFFF0
FFFFF0
FFFFF0
FFFFF0
FFFFF0
FFFFF0
FFFFF0
FFFFF0
FFFFF0
FFFFF0
FFFFF0
FFFFF0
ENDCHAR
STARTCHAR C020542
ENCODING 8546
SWIDTH 2400 0
DWIDTH 24 0
BBX 21 14 2 0
BITMAP
007000
00D800
019800
018C00
030600
030600
060300
0C0180
0C0180
1800C0
300060
300060
600030
FFFFF8
ENDCHAR
STARTCHAR C020543
ENCODING 8547
SWIDTH 2400 0
DWIDTH 24 0
BBX 21 14 2 0
BITMAP
007000
00F800
00F800
01FC00
03FE00
03FE00
07FF00
0FFF80
0FFF80
1FFFC0
3FFFE0
3FFFE0
7FFFF0
FFFFF8
ENDCHAR
STARTCHAR C020544
ENCODING 8548
SWIDTH 2400 0
DWIDTH 24 0
BBX 21 15 2 -1
BITMAP
FFFFF8
600030
300060
300060
1800C0
1C0180
0C0180
060300
070300
030600
018C00
018C00
00D800
00F800
007000
ENDCHAR
STARTCHAR C020545
ENCODING 8549
SWIDTH 2400 0
DWIDTH 24 0
BBX 21 15 2 -1
BITMAP
FFFFF8
7FFFF0
3FFFE0
3FFFE0
1FFFC0
1FFF80
0FFF80
07FF00
07FF00
03FE00
01FC00
01FC00
00F800
00F800
007000
ENDCHAR
STARTCHAR C020546
ENCODING 8550
SWIDTH 2400 0
DWIDTH 24 0
BBX 22 8 1 3
BITMAP
0000C0
0000E0
000078
FFFFFC
00003C
000070
0000E0
000180
ENDCHAR
STARTCHAR C020547
ENCODING 8551
SWIDTH 2400 0
DWIDTH 24 0
BBX 23 7 1 4
BITMAP
060000
1C0000
380000
FFFFFE
780000
1C0000
0E0000
ENDCHAR
STARTCHAR C020550
ENCODING 8552
SWIDTH 2400 0
DWIDTH 24 0
BBX 9 22 9 -4
BITMAP
1800
1C00
3C00
7E00
7E00
DB00
1980
1800
1800
1800
1800
1800
1800
1800
1800
1800
1800
1800
1800
1800
1800
1800
ENDCHAR
STARTCHAR C020551
ENCODING 8553
SWIDTH 2400 0
DWIDTH 24 0
BBX 10 22 7 -4
BITMAP
0C00
0C00
0C00
0C00
0C00
0C00
0C00
0C00
0C00
0C00
0C00
0C00
0C00
0C00
0C00
CCC0
6D80
3F00
3F00
1E00
1C00
0C00
ENDCHAR
STARTCHAR C020552
ENCODING 8554
SWIDTH 2400 0
DWIDTH 24 0
BBX 20 8 3 3
BITMAP
180300
300180
7000E0
FFFFF0
E000E0
7001C0
300180
000300
ENDCHAR
STARTCHAR C020553
ENCODING 8555
SWIDTH 2400 0
DWIDTH 24 0
BBX 17 6 4 4
BITMAP
FFFF80
000000
000000
000000
000000
FFFF80
ENDCHAR
STARTCHAR C020554
ENCODING 8556
SWIDTH 2400 0
DWIDTH 24 0
BBX 19 17 3 -1
BITMAP
000C00
001860
0071C0
00C700
038E00
063800
1C7000
31C000
E38000
E38000
38C000
0C7000
071C00
018E00
00E380
0030C0
001C60
ENDCHAR
STARTCHAR C020555
ENCODING 8557
SWIDTH 2400 0
DWIDTH 24 0
BBX 19 17 3 -1
BITMAP
060000
C30000
71C000
1C6000
0E3800
038C00
01C700
0071C0
0038E0
0038E0
00E380
01C600
071C00
0E3000
38E000
638000
C70000
ENDCHAR
STARTCHAR C020556
ENCODING 8558
SWIDTH 2400 0
DWIDTH 24 0
BBX 22 20 2 -2
BITMAP
000FFC
001800
001800
001800
003000
003000
006000
006000
006000
00C000
00C000
018000
318000
718000
FB0000
3B0000
1F0000
1E0000
0E0000
0C0000
ENDCHAR
STARTCHAR C020557
ENCODING 8559
SWIDTH 2400 0
DWIDTH 24 0
BBX 20 10 2 2
BITMAP
1F0780
701CE0
603860
C03030
C06030
C06030
C0C030
61C060
738CE0
1E0F80
ENDCHAR
STARTCHAR C020560
ENCODING 8560
SWIDTH 2400 0
DWIDTH 24 0
BBX 18 9 4 3
BITMAP
1E0780
739CC0
60F800
C0F000
C06000
C07000
C0F000
619800
3F0FC0
ENDCHAR
STARTCHAR C020561
ENCODING 8561
SWIDTH 2400 0
DWIDTH 24 0
BBX 13 12 7 1
BITMAP
C018
C018
C018
0000
0000
0000
0000
0000
0000
0F00
0F00
0F00
ENDCHAR
STARTCHAR C020562
ENCODING 8562
SWIDTH 2400 0
DWIDTH 24 0
BBX 5 20 10 -3
BITMAP
78
F8
C0
C0
C0
E0
E0
E0
70
70
70
30
38
38
18
18
18
18
F0
F0
ENDCHAR
STARTCHAR C020563
ENCODING 8563
SWIDTH 2400 0
DWIDTH 24 0
BBX 11 20 7 -3
BITMAP
79E0
FBE0
C300
C300
C300
E380
E380
E380
71C0
71C0
71C0
30C0
38E0
38E0
18E0
1860
1860
1860
F3E0
F3C0
ENDCHAR
STARTCHAR C020564
ENCODING 8564
SWIDTH 2400 0
DWIDTH 24 0
BBX 18 13 3 0
BITMAP
07FFC0
1C0000
700000
600000
C00000
C00000
FFFFC0
C00000
C00000
600000
700000
380000
0FFFC0
ENDCHAR
STARTCHAR C020565
ENCODING 8565
SWIDTH 2400 0
DWIDTH 24 0
BBX 19 13 3 0
BITMAP
FFFC00
000700
000180
0000C0
0000E0
000060
FFFFE0
000060
0000E0
0000C0
0001C0
000380
FFFE00
ENDCHAR
STARTCHAR C020566
ENCODING 8566
SWIDTH 2400 0
DWIDTH 24 0
BBX 16 14 4 0
BITMAP
0FFF
3800
6000
C000
C000
C000
C000
6000
7000
1FFF
0000
0000
0000
FFFF
ENDCHAR
STARTCHAR C020567
ENCODING 8567
SWIDTH 2400 0
DWIDTH 24 0
BBX 16 14 5 0
BITMAP
FFF8
000C
0006
0003
0003
0003
0003
0006
000E
FFF8
0000
0000
0000
FFFE
ENDCHAR
STARTCHAR C020570
ENCODING 8568
SWIDTH 2400 0
DWIDTH 24 0
BBX 18 13 3 0
BITMAP
07FFC0
1C0000
300000
600000
C00000
C00000
C00000
C00000
C00000
600000
700000
380000
0FFFC0
ENDCHAR
STARTCHAR C020571
ENCODING 8569
SWIDTH 2400 0
DWIDTH 24 0
BBX 18 13 4 0
BITMAP
FFFC00
000700
000380
000180
0000C0
0000C0
0000C0
0000C0
0000C0
0001C0
000180
000700
FFFE00
ENDCHAR
STARTCHAR C020572
ENCODING 8570
SWIDTH 2400 0
DWIDTH 24 0
BBX 15 17 5 -2
BITMAP
C006
C006
C006
C006
C006
C006
C006
C006
C006
C006
C006
C006
C00E
600C
7018
3870
0FE0
ENDCHAR
STARTCHAR C020573
ENCODING 8571
SWIDTH 2400 0
DWIDTH 24 0
BBX 15 17 5 -2
BITMAP
0FE0
1C38
301C
600C
C006
C006
C006
C006
C006
C006
C006
C006
C006
C006
C006
C006
C000
ENDCHAR
STARTCHAR C020574
ENCODING 8572
SWIDTH 2400 0
DWIDTH 24 0
BBX 17 14 4 0
BITMAP
01C000
01C000
036000
036000
063000
063800
0C1800
180C00
180C00
300600
300600
600300
600300
C00180
ENDCHAR
STARTCHAR C020575
ENCODING 8573
SWIDTH 2400 0
DWIDTH 24 0
BBX 17 14 4 0
BITMAP
C00180
600380
600300
300600
300600
180C00
1C0C00
0C1800
0E3800
063000
037000
036000
01C000
01C000
ENDCHAR
STARTCHAR C020576
ENCODING 8574
SWIDTH 2400 0
DWIDTH 24 0
BBX 16 11 5 0
BITMAP
FFFF
0003
0003
0003
0003
0003
0003
0003
0003
0003
0003
ENDCHAR
STARTCHAR C020577
ENCODING 8575
SWIDTH 2400 0
DWIDTH 24 0
BBX 0 0 0 0
BITMAP
ENDCHAR
STARTCHAR C021040
ENCODING 8736
SWIDTH 2400 0
DWIDTH 24 0
BBX 1 6 24 4
BITMAP
80
00
00
00
00
80
ENDCHAR
STARTCHAR C021041
ENCODING 8737
SWIDTH 2400 0
DWIDTH 24 0
BBX 23 12 1 1
BITMAP
0001C0
0000E0
000070
FFFFF8
00001C
00000E
00000C
000018
FFFFF0
000060
0000C0
000180
ENDCHAR
STARTCHAR C021042
ENCODING 8738
SWIDTH 2400 0
DWIDTH 24 0
BBX 21 12 2 1
BITMAP
070700
0E0380
1C01C0
3FFFE0
700030
E00018
600038
300070
1FFFC0
0C0180
060300
030600
ENDCHAR
STARTCHAR C021043
ENCODING 8739
SWIDTH 2400 0
DWIDTH 24 0
BBX 17 17 4 0
BITMAP
C00180
E00180
600300
700300
300600
3FFE00
180C00
180C00
0C1C00
0C1800
0E1800
063000
073000
036000
036000
01C000
01C000
ENDCHAR
STARTCHAR C021044
ENCODING 8740
SWIDTH 2400 0
DWIDTH 24 0
BBX 13 16 6 0
BITMAP
FFF8
0018
0018
0018
0018
0018
0018
7FF8
0018
0018
0018
0018
0018
0018
0018
FFF8
ENDCHAR
STARTCHAR C021045
ENCODING 8741
SWIDTH 2400 0
DWIDTH 24 0
BBX 6 3 9 16
BITMAP
3C
70
E0
ENDCHAR
STARTCHAR C021046
ENCODING 8742
SWIDTH 2400 0
DWIDTH 24 0
BBX 11 4 7 15
BITMAP
7800
FF00
1FE0
03C0
ENDCHAR
STARTCHAR C021047
ENCODING 8743
SWIDTH 2400 0
DWIDTH 24 0
BBX 9 4 8 15
BITMAP
C180
7700
3E00
1C00
ENDCHAR
STARTCHAR C021050
ENCODING 8744
SWIDTH 2400 0
DWIDTH 24 0
BBX 9 4 8 15
BITMAP
0180
C180
FF80
7E00
ENDCHAR
STARTCHAR C021051
ENCODING 8745
SWIDTH 2400 0
DWIDTH 24 0
BBX 8 3 8 16
BITMAP
7F
6E
C0
ENDCHAR
STARTCHAR C021052
ENCODING 8746
SWIDTH 2400 0
DWIDTH 24 0
BBX 5 4 10 15
BITMAP
70
D8
D8
F8
ENDCHAR
STARTCHAR C021053
ENCODING 8747
SWIDTH 2400 0
DWIDTH 24 0
BBX 4 3 11 6
BITMAP
60
F0
F0
ENDCHAR
STARTCHAR C021054
ENCODING 8748
SWIDTH 2400 0
DWIDTH 24 0
BBX 6 4 9 -3
BITMAP
38
3C
1C
F8
ENDCHAR
STARTCHAR C021055
ENCODING 8749
SWIDTH 2400 0
DWIDTH 24 0
BBX 5 4 10 -3
BITMAP
60
C0
D8
70
ENDCHAR
STARTCHAR C021056
ENCODING 8750
SWIDTH 2400 0
DWIDTH 24 0
BBX 4 17 10 0
BITMAP
30
30
30
00
00
60
60
60
60
60
60
60
60
F0
F0
F0
F0
ENDCHAR
STARTCHAR C021057
ENCODING 8751
SWIDTH 2400 0
DWIDTH 24 0
BBX 8 17 9 0
BITMAP
18
18
18
00
00
0C
0C
0C
1C
7C
E0
C0
C0
C0
C0
6F
3E
ENDCHAR
STARTCHAR C021060
ENCODING 8752
SWIDTH 2400 0
DWIDTH 24 0
BBX 5 11 10 2
BITMAP
F8
F8
70
00
00
00
00
00
70
70
F8
ENDCHAR
STARTCHAR C021061
ENCODING 8753
SWIDTH 2400 0
DWIDTH 24 0
BBX 9 19 8 -2
BITMAP
0380
0780
0C00
0C00
0C00
0C00
0C00
3E00
7F00
7F00
7F00
3E00
1C00
1800
1800
1800
1800
F000
E000
ENDCHAR
STARTCHAR C021062
ENCODING 8754
SWIDTH 2400 0
DWIDTH 24 0
BBX 20 19 2 -2
BITMAP
FFFFF0
F80030
7C0030
3E0030
0F8030
07C030
03E030
01F030
00F800
003800
007000
01E000
03C000
070030
0E0030
1C0030
380030
7FFFF0
FFFFF0
ENDCHAR
STARTCHAR C021063
ENCODING 8755
SWIDTH 2400 0
DWIDTH 24 0
BBX 17 19 4 -2
BITMAP
FFFF80
180C00
180C00
180C00
180C00
180C00
180C00
180C00
180C00
180C00
180C00
180C00
180C00
180C00
180C00
180C00
180C00
180C00
7E3F00
ENDCHAR
STARTCHAR C021064
ENCODING 8756
SWIDTH 2400 0
DWIDTH 24 0
BBX 18 17 4 -1
BITMAP
C00000
6000C0
67F380
3E3F00
380E00
300600
700700
600300
600300
600300
600300
700600
300600
180E00
3E3F00
77F380
E001C0
ENDCHAR
STARTCHAR C021065
ENCODING 8757
SWIDTH 2400 0
DWIDTH 24 0
BBX 21 17 2 -1
BITMAP
01FFE0
7870F0
D86070
D86038
D86000
786180
006180
006380
007F80
006380
006180
006180
006000
006000
006000
007000
01FC00
ENDCHAR
STARTCHAR C021066
ENCODING 8758
SWIDTH 2400 0
DWIDTH 24 0
BBX 22 21 1 -3
BITMAP
1E0000
330180
718300
618700
618600
618C00
619800
61B000
61B000
336000
1EF878
01EC78
03C6CC
03C6CC
06C6CC
0CC6CC
18C6CC
18C6CC
30C6CC
606C78
C03878
ENDCHAR
STARTCHAR C021067
ENCODING 8759
SWIDTH 2400 0
DWIDTH 24 0
BBX 16 19 4 -2
BITMAP
0003
0007
001F
0073
00E3
0383
0603
1C03
3003
E003
3003
1803
0E03
0383
00C3
0073
001F
0007
0003
ENDCHAR
STARTCHAR C021070
ENCODING 8760
SWIDTH 2400 0
DWIDTH 24 0
BBX 16 19 4 -2
BITMAP
0003
000F
001F
007F
01FF
03FF
0FFF
1FFF
7FFF
FFFF
7FFF
1FFF
0FFF
03FF
01FF
007F
001F
000F
0003
ENDCHAR
STARTCHAR C021071
ENCODING 8761
SWIDTH 2400 0
DWIDTH 24 0
BBX 16 19 5 -2
BITMAP
C000
E000
F800
CE00
C700
C1C0
C0E0
C038
C00C
C007
C00E
C018
C070
C1C0
C300
CE00
D800
F000
C000
ENDCHAR
STARTCHAR C021072
ENCODING 8762
SWIDTH 2400 0
DWIDTH 24 0
BBX 16 19 5 -2
BITMAP
C000
F000
F800
FE00
FF80
FFC0
FFF0
FFF8
FFFE
FFFF
FFFE
FFF8
FFF0
FFC0
FF80
FE00
F800
F000
C000
ENDCHAR
STARTCHAR C021073
ENCODING 8763
SWIDTH 2400 0
DWIDTH 24 0
BBX 18 21 4 -3
BITMAP
00C000
01E000
036000
063000
061800
0C0C00
180600
300300
300300
600180
C00180
C000C0
C000C0
C000C0
C000C0
673180
3F3F00
033000
063000
061800
07F800
ENDCHAR
STARTCHAR C021074
ENCODING 8764
SWIDTH 2400 0
DWIDTH 24 0
BBX 19 20 3 -3
BITMAP
00E000
01F000
03F800
07FC00
07FC00
0FFE00
1FFF00
3FFF80
3FFF80
7FFFC0
7FFFC0
7FFFC0
FFFFE0
FFFFE0
7FFFC0
3FFF80
0DE000
01F000
03F000
03F800
ENDCHAR
STARTCHAR C021075
ENCODING 8765
SWIDTH 2400 0
DWIDTH 24 0
BBX 19 19 3 -2
BITMAP
1F1F00
31B180
60E0C0
60E0C0
C00060
C00060
C00060
C000C0
6000C0
6000C0
300180
300180
180300
180600
0C0C00
060C00
031800
01B000
00E000
ENDCHAR
STARTCHAR C021076
ENCODING 8766
SWIDTH 2400 0
DWIDTH 24 0
BBX 21 20 2 -3
BITMAP
1F8FC0
3FDFE0
7FFFF0
7FFFF0
FFFFF8
FFFFF8
7FFFF0
7FFFF0
7FFFF0
3FFFE0
3FFFE0
1FFFC0
0FFF80
0FFF80
07FF00
03FE00
01FC00
00FC00
00F800
007000
ENDCHAR
STARTCHAR C021077
ENCODING 8767
SWIDTH 2400 0
DWIDTH 24 0
BBX 21 21 2 -3
BITMAP
00F800
038C00
030600
060600
060300
060300
060600
030600
1F8FC0
738E70
600030
C00018
C00018
C00018
C00018
61DC30
73DE70
1EDBC0
019800
018C00
01FC00
ENDCHAR
STARTCHAR C021100
ENCODING 8768
SWIDTH 2400 0
DWIDTH 24 0
BBX 21 21 2 -3
BITMAP
00F800
03FC00
03FE00
07FF00
07FF00
07FF00
03FE00
03FE00
3EFBC0
7FFFF0
FFFFF8
FFFFF8
FFFFF8
FFFFF8
FFFFF8
7FFFF0
3F77E0
00F800
00F800
00F800
01FC00
ENDCHAR
STARTCHAR C021101
ENCODING 8769
SWIDTH 2400 0
DWIDTH 24 0
BBX 21 19 2 -2
BITMAP
03FE00
0F0780
1C01C0
30F860
73FE70
67FF30
CFFFB8
CFFF98
CFFF98
CFFF98
CFFF98
CFFF98
CFFF98
67FF30
73FE70
30F860
1C01C0
0F0780
03FE00
ENDCHAR
STARTCHAR C021102
ENCODING 8770
SWIDTH 2400 0
DWIDTH 24 0
BBX 23 21 1 -3
BITMAP
003800
007C00
00CE00
018300
033980
067CC0
0CFE60
1BFF30
37FFD8
6FFFEC
DFFFE6
67FFCC
33FF98
19FF30
0CFEE0
077DC0
03BB80
01C700
00EE00
007C00
003000
ENDCHAR
STARTCHAR C021103
ENCODING 8771
SWIDTH 2400 0
DWIDTH 24 0
BBX 19 19 3 -2
BITMAP
FFFFE0
000060
000060
000060
000060
0FFE60
0FFE60
0FFE60
0FFE60
0FFE60
0FFE60
0FFE60
0FFE60
0FFE60
0FFE60
000060
000060
000060
FFFFE0
ENDCHAR
STARTCHAR C021104
ENCODING 8772
SWIDTH 2400 0
DWIDTH 24 0
BBX 21 19 2 -2
BITMAP
01FE00
07E780
1FE1C0
3FE0E0
3FE070
7FE030
7FE038
FFE018
FFE018
FFE018
FFE018
FFE018
7FE038
7FE030
3FE070
3FE0E0
1FE1C0
0FE780
01FE00
ENDCHAR
STARTCHAR C021105
ENCODING 8773
SWIDTH 2400 0
DWIDTH 24 0
BBX 21 19 2 -2
BITMAP
01FC00
0F3F00
1C3FC0
383FE0
303FE0
603FF0
603FF0
C03FF8
C03FF8
C03FF8
C03FF8
C03FF8
E03FF0
603FF0
703FE0
383FE0
1C3FC0
0F3F00
03FC00
ENDCHAR
STARTCHAR C021106
ENCODING 8774
SWIDTH 2400 0
DWIDTH 24 0
BBX 19 19 3 -2
BITMAP
FFFFE0
000060
3366E0
6CDB60
000060
3366E0
000060
6CDB60
3366E0
000060
6CDB60
000060
3366E0
6CDB60
000060
3366E0
000060
6CDB60
FFFFE0
ENDCHAR
STARTCHAR C021107
ENCODING 8775
SWIDTH 2400 0
DWIDTH 24 0
BBX 19 19 3 -2
BITMAP
FFFFE0
000060
000060
000060
000060
FFFFE0
000060
000060
000060
FFFFE0
000060
000060
000060
FFFFE0
000060
000060
000060
000060
FFFFE0
ENDCHAR
STARTCHAR C021110
ENCODING 8776
SWIDTH 2400 0
DWIDTH 24 0
BBX 20 19 3 -2
BITMAP
FFFFF0
0C6630
0C6630
0C6630
0C6630
0C6630
0C6630
0C6630
0C6630
0C6630
0C6630
0C6630
0C6630
0C6630
0C6630
0C6630
0C6630
0C6630
FFFFF0
ENDCHAR
STARTCHAR C021111
ENCODING 8777
SWIDTH 2400 0
DWIDTH 24 0
BBX 20 19 3 -2
BITMAP
FFFFF0
C0C070
C180F0
C301B0
C60330
CC0630
D80C30
F01830
E03030
C06030
C0C070
C180F0
C301B0
CE0730
DC0C30
F81830
F03030
E06030
FFFFF0
ENDCHAR
STARTCHAR C021112
ENCODING 8778
SWIDTH 2400 0
DWIDTH 24 0
BBX 20 19 2 -2
BITMAP
FFFFF0
E07030
F03830
D81C30
CC0E30
C60730
C301B0
C1C0F0
C0E070
E07030
F03830
D81C30
CC0E30
C60730
C303B0
C181F0
C0C0F0
C06070
FFFFF0
ENDCHAR
STARTCHAR C021113
ENCODING 8779
SWIDTH 2400 0
DWIDTH 24 0
BBX 19 19 3 -2
BITMAP
FFFFE0
CC6660
CC6660
CC6660
CC6660
FFFFE0
CC6660
CC6660
CC6660
FFFFE0
CC6660
CC6660
CC6660
FFFFE0
CC6660
CC6660
CC6660
CC6660
FFFFE0
ENDCHAR
STARTCHAR C021114
ENCODING 8780
SWIDTH 2400 0
DWIDTH 24 0
BBX 20 19 3 -2
BITMAP
FFFFF0
E0F070
F1B8F0
DB1DB0
CE0F30
CE0F30
DB19B0
F1B0F0
E0E070
C0E070
E1B0F0
F319F0
DE0F30
CC0630
DE0F30
FB19B0
F1B0F0
E0E070
FFFFF0
ENDCHAR
STARTCHAR C021115
ENCODING 8781
SWIDTH 2400 0
DWIDTH 24 0
BBX 20 20 2 -3
BITMAP
003000
003600
037600
037E00
07EE00
07EE00
07FE00
077E00
03F700
03FF00
03BF00
1BBF80
73F6E0
C37E70
C36C70
C06CF0
F007E0
7FFFC0
3FFF00
07FC00
ENDCHAR
STARTCHAR C021116
ENCODING 8782
SWIDTH 2400 0
DWIDTH 24 0
BBX 21 15 1 0
BITMAP
01FF00
0F01E0
3BFF70
67C798
67FF98
E7FF98
7FC7F8
038380
0F0180
1B01C0
1B01E0
3383E0
31C760
607C30
3FFFE0
ENDCHAR
STARTCHAR C021117
ENCODING 8783
SWIDTH 2400 0
DWIDTH 24 0
BBX 22 15 1 0
BITMAP
07FF80
3FFFF0
7FFFF8
FFC7FC
FFFFFC
FFFFFC
F3C79C
078380
0F01C0
1F01E0
1F01F0
3F83F0
3FC7F0
7FFFF8
3FFFF0
ENDCHAR
STARTCHAR C021120
ENCODING 8784
SWIDTH 2400 0
DWIDTH 24 0
BBX 23 10 1 2
BITMAP
07FF80
FC38EE
FFE03E
07FE0E
07FF0E
03FD8E
01BE0E
00EC3E
007FE0
000600
ENDCHAR
STARTCHAR C021121
ENCODING 8785
SWIDTH 2400 0
DWIDTH 24 0
BBX 23 9 1 3
BITMAP
03FFE0
FE183E
F80FFE
F0FFC0
F1F7C0
F37FC0
F0F980
FE6F00
03FE00
ENDCHAR
STARTCHAR C021122
ENCODING 8786
SWIDTH 2400 0
DWIDTH 24 0
BBX 14 20 4 -3
BITMAP
1FCC
70CC
60CC
C0CC
C0CC
C0CC
60CC
70CC
1FCC
00CC
00CC
00CC
00CC
00CC
00CC
00CC
00CC
00CC
00CC
00CC
ENDCHAR
STARTCHAR C021123
ENCODING 8787
SWIDTH 2400 0
DWIDTH 24 0
BBX 14 21 6 -3
BITMAP
0300
0300
0300
0300
0300
0300
FFFC
0300
0300
0300
0300
0300
0300
0300
0300
0300
0300
0300
0300
0300
0300
ENDCHAR
STARTCHAR C021124
ENCODING 8788
SWIDTH 2400 0
DWIDTH 24 0
BBX 12 21 6 -3
BITMAP
0600
0600
0600
0600
FFF0
0600
0600
FFF0
0600
0600
0600
0600
0600
0600
0600
0600
0600
0600
0600
0600
0600
ENDCHAR
STARTCHAR C021125
ENCODING 8789
SWIDTH 2400 0
DWIDTH 24 0
BBX 7 17 9 -1
BITMAP
38
7C
F6
30
30
30
30
30
30
30
30
30
30
30
F6
7C
38
ENDCHAR
STARTCHAR C021126
ENCODING 8790
SWIDTH 2400 0
DWIDTH 24 0
BBX 16 14 4 0
BITMAP
00FF
001F
001F
003E
0076
00E0
01C0
0300
0600
0C00
1800
3000
6000
C000
ENDCHAR
STARTCHAR C021127
ENCODING 8791
SWIDTH 2400 0
DWIDTH 24 0
BBX 15 14 5 1
BITMAP
0006
000E
0018
0030
0060
00C0
0180
0300
C600
CC00
D800
F000
F000
FE00
ENDCHAR
STARTCHAR C021130
ENCODING 8792
SWIDTH 2400 0
DWIDTH 24 0
BBX 15 14 6 0
BITMAP
FE00
E000
F000
D800
CC00
0600
0300
0180
00C0
0060
0030
0018
000C
0006
ENDCHAR
STARTCHAR C021131
ENCODING 8793
SWIDTH 2400 0
DWIDTH 24 0
BBX 15 14 5 1
BITMAP
C000
E000
7000
3800
1C00
0E00
0300
0180
00C6
0066
0036
001E
001E
00FE
ENDCHAR
STARTCHAR C021132
ENCODING 8794
SWIDTH 2400 0
DWIDTH 24 0
BBX 8 16 8 -1
BITMAP
C0
C0
C0
C0
C0
FE
E7
C3
C3
C3
C7
C6
CE
DC
F8
E0
ENDCHAR
STARTCHAR C021133
ENCODING 8795
SWIDTH 2400 0
DWIDTH 24 0
BBX 6 19 9 -2
BITMAP
0C
0C
0C
0C
0C
0C
0C
0C
0C
0C
0C
0C
0C
0C
0C
0C
7C
F8
F8
ENDCHAR
STARTCHAR C021134
ENCODING 8796
SWIDTH 2400 0
DWIDTH 24 0
BBX 13 19 5 -2
BITMAP
0C00
0E00
0F00
0F80
0FC0
0DE0
0CF0
0C70
0C38
0C30
0C30
0C70
0C60
0CC0
0C00
3C00
FC00
F800
F000
ENDCHAR
STARTCHAR C021135
ENCODING 8797
SWIDTH 2400 0
DWIDTH 24 0
BBX 18 17 3 -1
BITMAP
07FFC0
07FFC0
0600C0
0600C0
07FFC0
07FFC0
0600C0
0600C0
0600C0
0600C0
0600C0
0600C0
0600C0
1E07C0
7E0FC0
7C0F80
F80F00
ENDCHAR
STARTCHAR C021136
ENCODING 8798
SWIDTH 2400 0
DWIDTH 24 0
BBX 21 19 2 -2
BITMAP
01FC00
07FF00
1F0780
3C01E0
3B1EE0
733C70
737838
E3F000
E3E000
FFF3F8
FFF3F8
033838
731C38
731C70
3B0E70
1C01E0
0F07C0
07FF80
01FC00
ENDCHAR
STARTCHAR C021137
ENCODING 8799
SWIDTH 2400 0
DWIDTH 24 0
BBX 23 19 1 -2
BITMAP
180000
3FFF98
330718
600C0C
60380C
607C06
61C7E6
C70006
CC0006
C007F6
DFFC06
C03006
603006
603006
60300C
60300C
30300C
303018
180000
ENDCHAR
STARTCHAR C021140
ENCODING 8800
SWIDTH 2400 0
DWIDTH 24 0
BBX 21 17 2 -1
BITMAP
F1C000
70C000
70C000
78C000
78C000
6CC7C0
6CCC60
6ECC60
66D830
66D830
63D830
63D830
61D830
61D830
60CC78
F0C6D8
000380
ENDCHAR
STARTCHAR C021141
ENCODING 8801
SWIDTH 2400 0
DWIDTH 24 0
BBX 22 18 2 -1
BITMAP
0EC000
1BC000
30C000
606000
606000
600000
E00780
E00CC0
E01C60
E01860
E01860
E01860
E01860
607860
70D860
38CCCC
1F8FCC
000300
ENDCHAR
STARTCHAR C021142
ENCODING 8802
SWIDTH 2400 0
DWIDTH 24 0
BBX 21 16 2 0
BITMAP
7FFC78
EDDC70
CCDC70
CCDC70
0C1CF0
0C1EF0
0C1EF0
0C1EF0
0C1EF0
0C1FB0
0C1BB0
0C1BB0
0C1BB0
0C1BB0
0C1B30
1E7E78
ENDCHAR
STARTCHAR C021143
ENCODING 8803
SWIDTH 2400 0
DWIDTH 24 0
BBX 23 11 1 0
BITMAP
3C07E0
663DF0
E60DB0
660DB0
060DB0
1E0DB0
760DB0
E60DB0
C60DB0
C78DB0
FFFFFE
ENDCHAR
STARTCHAR C021144
ENCODING 8804
SWIDTH 2400 0
DWIDTH 24 0
BBX 23 15 1 -4
BITMAP
7E0760
733DF0
630DB0
618DB0
618DB0
618DB0
618DB0
618DB0
618DB0
630DB0
77DFFE
7C0000
600000
600000
F00000
ENDCHAR
STARTCHAR C021145
ENCODING 8805
SWIDTH 2400 0
DWIDTH 24 0
BBX 23 16 1 0
BITMAP
7FF01C
E6381C
C6180C
06000C
06030C
060F8C
0618CC
0618CC
0618CC
061FEC
06180C
06180C
06180C
06180C
060C0C
1F8FDE
ENDCHAR
STARTCHAR C021146
ENCODING 8806
SWIDTH 2400 0
DWIDTH 24 0
BBX 0 0 0 0
BITMAP
ENDCHAR
STARTCHAR C021147
ENCODING 8807
SWIDTH 2400 0
DWIDTH 24 0
BBX 0 0 0 0
BITMAP
ENDCHAR
STARTCHAR C021150
ENCODING 8808
SWIDTH 2400 0
DWIDTH 24 0
BBX 0 0 0 0
BITMAP
ENDCHAR
STARTCHAR C021151
ENCODING 8809
SWIDTH 2400 0
DWIDTH 24 0
BBX 1 2 24 16
BITMAP
80
80
ENDCHAR
STARTCHAR C021152
ENCODING 8810
SWIDTH 2400 0
DWIDTH 24 0
BBX 0 0 0 0
BITMAP
ENDCHAR
STARTCHAR C021153
ENCODING 8811
SWIDTH 2400 0
DWIDTH 24 0
BBX 0 0 0 0
BITMAP
ENDCHAR
STARTCHAR C021154
ENCODING 8812
SWIDTH 2400 0
DWIDTH 24 0
BBX 0 0 0 0
BITMAP
ENDCHAR
STARTCHAR C021155
ENCODING 8813
SWIDTH 2400 0
DWIDTH 24 0
BBX 0 0 0 0
BITMAP
ENDCHAR
STARTCHAR C021156
ENCODING 8814
SWIDTH 2400 0
DWIDTH 24 0
BBX 1 4 24 -2
BITMAP
80
00
00
80
ENDCHAR
STARTCHAR C021157
ENCODING 8815
SWIDTH 2400 0
DWIDTH 24 0
BBX 0 0 0 0
BITMAP
ENDCHAR
STARTCHAR C021160
ENCODING 8816
SWIDTH 2400 0
DWIDTH 24 0
BBX 0 0 0 0
BITMAP
ENDCHAR
STARTCHAR C021161
ENCODING 8817
SWIDTH 2400 0
DWIDTH 24 0
BBX 0 0 0 0
BITMAP
ENDCHAR
STARTCHAR C021162
ENCODING 8818
SWIDTH 2400 0
DWIDTH 24 0
BBX 0 0 0 0
BITMAP
ENDCHAR
STARTCHAR C021163
ENCODING 8819
SWIDTH 2400 0
DWIDTH 24 0
BBX 1 21 24 -4
BITMAP
80
00
00
80
00
00
00
00
00
00
00
00
80
00
00
00
00
00
00
00
80
ENDCHAR
STARTCHAR C021164
ENCODING 8820
SWIDTH 2400 0
DWIDTH 24 0
BBX 0 0 0 0
BITMAP
ENDCHAR
STARTCHAR C021165
ENCODING 8821
SWIDTH 2400 0
DWIDTH 24 0
BBX 0 0 0 0
BITMAP
ENDCHAR
STARTCHAR C021166
ENCODING 8822
SWIDTH 2400 0
DWIDTH 24 0
BBX 0 0 0 0
BITMAP
ENDCHAR
STARTCHAR C021167
ENCODING 8823
SWIDTH 2400 0
DWIDTH 24 0
BBX 0 0 0 0
BITMAP
ENDCHAR
STARTCHAR C021170
ENCODING 8824
SWIDTH 2400 0
DWIDTH 24 0
BBX 1 2 24 16
BITMAP
80
80
ENDCHAR
STARTCHAR C021171
ENCODING 8825
SWIDTH 2400 0
DWIDTH 24 0
BBX 0 0 0 0
BITMAP
ENDCHAR
STARTCHAR C021172
ENCODING 8826
SWIDTH 2400 0
DWIDTH 24 0
BBX 0 0 0 0
BITMAP
ENDCHAR
STARTCHAR C021173
ENCODING 8827
SWIDTH 2400 0
DWIDTH 24 0
BBX 0 0 0 0
BITMAP
ENDCHAR
STARTCHAR C021174
ENCODING 8828
SWIDTH 2400 0
DWIDTH 24 0
BBX 0 0 0 0
BITMAP
ENDCHAR
STARTCHAR C021175
ENCODING 8829
SWIDTH 2400 0
DWIDTH 24 0
BBX 1 4 24 -2
BITMAP
80
00
00
80
ENDCHAR
STARTCHAR C021176
ENCODING 8830
SWIDTH 2400 0
DWIDTH 24 0
BBX 0 0 0 0
BITMAP
ENDCHAR
STARTCHAR C021177
ENCODING 8831
SWIDTH 2400 0
DWIDTH 24 0
BBX 0 0 0 0
BITMAP
ENDCHAR
STARTCHAR C021440
ENCODING 8992
SWIDTH 2400 0
DWIDTH 24 0
BBX 1 3 24 13
BITMAP
80
80
80
ENDCHAR
STARTCHAR C021441
ENCODING 8993
SWIDTH 2400 0
DWIDTH 24 0
BBX 3 17 11 0
BITMAP
60
E0
E0
E0
60
60
60
60
60
60
60
60
00
00
00
60
60
ENDCHAR
STARTCHAR C021442
ENCODING 8994
SWIDTH 2400 0
DWIDTH 24 0
BBX 9 6 8 13
BITMAP
3B80
3700
7600
6C00
CC00
1800
ENDCHAR
STARTCHAR C021443
ENCODING 8995
SWIDTH 2400 0
DWIDTH 24 0
BBX 11 20 7 -3
BITMAP
0CC0
0CC0
0CC0
18C0
18C0
1980
FFE0
1980
1980
3180
3180
3300
3300
FFE0
3300
3300
6300
6600
6600
6600
ENDCHAR
STARTCHAR C021444
ENCODING 8996
SWIDTH 2400 0
DWIDTH 24 0
BBX 13 22 6 -4
BITMAP
0D80
0D80
3FE0
7DF0
EDB0
CDB0
CD80
ED80
FD80
7F80
1FE0
0DF0
0DF8
0DB8
0D98
CD98
EDB8
FDB0
7FE0
0F80
0D80
0D80
ENDCHAR
STARTCHAR C021445
ENCODING 8997
SWIDTH 2400 0
DWIDTH 24 0
BBX 19 21 3 -4
BITMAP
1E0000
730060
7180C0
618180
618300
618600
618C00
719800
733000
3E6000
00C000
019F00
03B980
0730C0
0E30C0
1C30C0
3870C0
7030C0
E038C0
C03980
001F00
ENDCHAR
STARTCHAR C021446
ENCODING 8998
SWIDTH 2400 0
DWIDTH 24 0
BBX 19 17 3 -1
BITMAP
07E000
0C7000
0C3800
0C7800
0C7000
0FE000
07C000
0F1FE0
1B8700
338300
71C300
E0E600
F0E600
F07C00
783800
3C7CC0
1FCF80
ENDCHAR
STARTCHAR C021447
ENCODING 8999
SWIDTH 2400 0
DWIDTH 24 0
BBX 3 6 11 13
BITMAP
E0
E0
E0
E0
C0
C0
ENDCHAR
STARTCHAR C021450
ENCODING 9000
SWIDTH 2400 0
DWIDTH 24 0
BBX 5 21 18 -3
BITMAP
18
30
30
60
60
C0
C0
C0
C0
C0
C0
C0
C0
C0
C0
C0
60
60
60
30
18
ENDCHAR
STARTCHAR C021451
ENCODING 9001
SWIDTH 2400 0
DWIDTH 24 0
BBX 5 21 2 -3
BITMAP
C0
60
60
30
30
18
18
18
18
18
18
18
18
18
18
18
30
30
30
60
C0
ENDCHAR
STARTCHAR C021452
ENCODING 9002
SWIDTH 2400 0
DWIDTH 24 0
BBX 9 8 8 3
BITMAP
1C00
CD80
FF80
1E00
3E00
EF80
0C00
1C00
ENDCHAR
STARTCHAR C021453
ENCODING 9003
SWIDTH 2400 0
DWIDTH 24 0
BBX 16 15 4 0
BITMAP
0180
0180
0180
0180
0180
0180
0180
FFFF
0180
0180
0180
0180
0180
0180
0180
ENDCHAR
STARTCHAR C021454
ENCODING 9004
SWIDTH 2400 0
DWIDTH 24 0
BBX 3 5 2 -3
BITMAP
E0
E0
60
60
C0
ENDCHAR
STARTCHAR C021455
ENCODING 9005
SWIDTH 2400 0
DWIDTH 24 0
BBX 17 1 4 7
BITMAP
FFFF80
ENDCHAR
STARTCHAR C021456
ENCODING 9006
SWIDTH 2400 0
DWIDTH 24 0
BBX 2 2 3 0
BITMAP
C0
C0
ENDCHAR
STARTCHAR C021457
ENCODING 9007
SWIDTH 2400 0
DWIDTH 24 0
BBX 23 22 1 -4
BITMAP
000006
00000C
000018
000030
000060
0000C0
000180
000300
000600
000C00
001800
003000
006000
00C000
018000
030000
060000
0C0000
180000
300000
600000
C00000
ENDCHAR
STARTCHAR C021460
ENCODING 9008
SWIDTH 2400 0
DWIDTH 24 0
BBX 9 18 8 -1
BITMAP
3E00
7700
6300
6300
C180
C180
C180
C180
C180
C180
C180
C180
C180
C300
6300
6300
3600
1C00
ENDCHAR
STARTCHAR C021461
ENCODING 9009
SWIDTH 2400 0
DWIDTH 24 0
BBX 8 17 9 0
BITMAP
18
F8
18
18
18
18
18
18
18
18
18
18
18
18
18
3C
FF
ENDCHAR
STARTCHAR C021462
ENCODING 9010
SWIDTH 2400 0
DWIDTH 24 0
BBX 9 17 8 0
BITMAP
1C00
7700
C180
E180
E180
E180
0180
0380
0700
0600
0C00
1800
3000
6000
6180
C380
FF80
ENDCHAR
STARTCHAR C021463
ENCODING 9011
SWIDTH 2400 0
DWIDTH 24 0
BBX 10 17 7 -1
BITMAP
1F80
31C0
70C0
30C0
00C0
00C0
0180
0F00
0300
0180
00C0
00C0
60C0
E0C0
E1C0
7380
1F00
ENDCHAR
STARTCHAR C021464
ENCODING 9012
SWIDTH 2400 0
DWIDTH 24 0
BBX 9 17 8 0
BITMAP
0600
0600
0E00
0E00
1E00
1E00
3600
3600
6600
6600
C600
0600
FF80
0600
0600
0600
1F80
ENDCHAR
STARTCHAR C021465
ENCODING 9013
SWIDTH 2400 0
DWIDTH 24 0
BBX 10 16 7 0
BITMAP
7F80
6000
6000
6000
6000
6C00
7F00
6180
00C0
00C0
00C0
00C0
F0C0
F1C0
7180
3F00
ENDCHAR
STARTCHAR C021466
ENCODING 9014
SWIDTH 2400 0
DWIDTH 24 0
BBX 10 17 8 0
BITMAP
0F00
3B80
3380
6000
6000
C000
C000
FF80
E180
C0C0
C0C0
C0C0
C0C0
C0C0
6180
3380
1E00
ENDCHAR
STARTCHAR C021467
ENCODING 9015
SWIDTH 2400 0
DWIDTH 24 0
BBX 10 16 7 0
BITMAP
7FC0
60C0
6180
C180
0300
0300
0600
0600
0600
0C00
0C00
1C00
1C00
1C00
1C00
1C00
ENDCHAR
STARTCHAR C021470
ENCODING 9016
SWIDTH 2400 0
DWIDTH 24 0
BBX 11 17 7 0
BITMAP
1F00
3180
71C0
60C0
60C0
71C0
7980
3F00
1F80
33C0
61E0
60E0
E060
E060
60E0
71C0
1F00
ENDCHAR
STARTCHAR C021471
ENCODING 9017
SWIDTH 2400 0
DWIDTH 24 0
BBX 9 17 8 0
BITMAP
3E00
7700
6300
C300
C180
C180
C180
C180
C380
7780
1D80
0180
0300
0300
E300
E600
7C00
ENDCHAR
STARTCHAR C021472
ENCODING 9018
SWIDTH 2400 0
DWIDTH 24 0
BBX 2 11 11 0
BITMAP
C0
C0
00
00
00
00
00
00
00
C0
C0
ENDCHAR
STARTCHAR C021473
ENCODING 9019
SWIDTH 2400 0
DWIDTH 24 0
BBX 3 14 11 -3
BITMAP
60
60
00
00
00
00
00
00
00
E0
E0
60
60
C0
ENDCHAR
STARTCHAR C021474
ENCODING 9020
SWIDTH 2400 0
DWIDTH 24 0
BBX 16 15 4 -1
BITMAP
0003
000E
0038
00E0
0380
0E00
3800
E000
3800
0E00
0380
00E0
0038
000E
0003
ENDCHAR
STARTCHAR C021475
ENCODING 9021
SWIDTH 2400 0
DWIDTH 24 0
BBX 17 6 4 4
BITMAP
FFFF80
000000
000000
000000
000000
FFFF80
ENDCHAR
STARTCHAR C021476
ENCODING 9022
SWIDTH 2400 0
DWIDTH 24 0
BBX 15 14 5 0
BITMAP
C000
7000
1C00
0780
01E0
0078
000E
000E
0038
01E0
0780
1C00
7000
C000
ENDCHAR
STARTCHAR C021477
ENCODING 9023
SWIDTH 2400 0
DWIDTH 24 0
BBX 10 17 7 -2
BITMAP
3F80
71C0
F1C0
F1C0
61C0
01C0
0380
0700
0600
0C00
0C00
0C00
0000
0000
0600
0600
0600
ENDCHAR
STARTCHAR C021500
ENCODING 9024
SWIDTH 2400 0
DWIDTH 24 0
BBX 16 16 5 -1
BITMAP
07F0
0C18
380C
6006
63FE
C77B
CE33
CC33
CC36
CC66
CDEC
6738
3006
180C
0F38
01E0
ENDCHAR
STARTCHAR C021501
ENCODING 9025
SWIDTH 2400 0
DWIDTH 24 0
BBX 18 16 3 0
BITMAP
00E000
01E000
01F000
01F000
033000
033800
031800
061C00
061C00
07FC00
0C0E00
0C0E00
180600
180700
380700
FE1FC0
ENDCHAR
STARTCHAR C021502
ENCODING 9026
SWIDTH 2400 0
DWIDTH 24 0
BBX 15 16 5 0
BITMAP
FFF0
3018
300C
300C
300C
3018
3030
3FE0
3078
300C
300E
300E
300E
300C
301C
FFF0
ENDCHAR
STARTCHAR C021503
ENCODING 9027
SWIDTH 2400 0
DWIDTH 24 0
BBX 15 17 5 0
BITMAP
03D8
1E78
301C
600C
6000
C000
C000
C000
C000
C000
C000
C000
E006
600C
700C
3C38
1FF0
ENDCHAR
STARTCHAR C021504
ENCODING 9028
SWIDTH 2400 0
DWIDTH 24 0
BBX 16 16 5 0
BITMAP
FFE0
3838
300C
3006
3006
3003
3003
3003
3003
3003
3003
3006
3006
300C
3038
FFE0
ENDCHAR
STARTCHAR C021505
ENCODING 9029
SWIDTH 2400 0
DWIDTH 24 0
BBX 15 16 5 0
BITMAP
FFFC
183C
180C
1806
1800
1860
18E0
1FE0
18E0
1860
1860
1800
1806
180E
183C
FFFC
ENDCHAR
STARTCHAR C021506
ENCODING 9030
SWIDTH 2400 0
DWIDTH 24 0
BBX 15 16 5 0
BITMAP
7FFC
181C
180E
1806
1800
1860
1860
1FE0
18E0
1860
1860
1800
1800
1800
1800
FF00
ENDCHAR
STARTCHAR C021507
ENCODING 9031
SWIDTH 2400 0
DWIDTH 24 0
BBX 16 17 5 -1
BITMAP
0FF8
181C
300C
6000
6000
C000
C000
C000
C000
C07F
C00C
C00C
600C
600C
300C
1C3C
07E0
ENDCHAR
STARTCHAR C021510
ENCODING 9032
SWIDTH 2400 0
DWIDTH 24 0
BBX 18 16 4 0
BITMAP
FF3FC0
180600
180600
180600
180600
180600
180600
1FFE00
180600
180600
180600
180600
180600
180600
180600
FF3FC0
ENDCHAR
STARTCHAR C021511
ENCODING 9033
SWIDTH 2400 0
DWIDTH 24 0
BBX 7 16 10 0
BITMAP
FC
30
30
30
30
30
30
30
30
30
30
30
30
30
30
FE
ENDCHAR
STARTCHAR C021512
ENCODING 9034
SWIDTH 2400 0
DWIDTH 24 0
BBX 10 19 8 -3
BITMAP
3FC0
0700
0600
0600
0600
0600
0600
0600
0600
0600
0600
0600
0600
0600
0600
0600
0600
EC00
F800
ENDCHAR
STARTCHAR C021513
ENCODING 9035
SWIDTH 2400 0
DWIDTH 24 0
BBX 18 16 3 0
BITMAP
7E3F80
180C00
181800
183000
186000
18C000
1B8000
1FC000
1CE000
186000
183000
183800
181800
180C00
180E00
FF3FC0
ENDCHAR
STARTCHAR C021514
ENCODING 9036
SWIDTH 2400 0
DWIDTH 24 0
BBX 15 16 5 0
BITMAP
FF00
1800
1800
1800
1800
1800
1800
1800
1800
1800
1800
1800
1806
181C
183C
FFF8
ENDCHAR
STARTCHAR C021515
ENCODING 9037
SWIDTH 2400 0
DWIDTH 24 0
BBX 21 16 2 0
BITMAP
F801F8
3803C0
3C03C0
3C03C0
3606C0
3606C0
360CC0
330CC0
330CC0
3198C0
3198C0
31B0C0
30F0C0
30F0C0
38E0C0
FC67F0
ENDCHAR
STARTCHAR C021516
ENCODING 9038
SWIDTH 2400 0
DWIDTH 24 0
BBX 17 16 4 0
BITMAP
F01F80
380E00
380600
3C0600
360600
330600
330600
318600
30C600
306600
306600
303600
301E00
300E00
780E00
FE0600
ENDCHAR
STARTCHAR C021517
ENCODING 9039
SWIDTH 2400 0
DWIDTH 24 0
BBX 16 17 4 0
BITMAP
0FF0
1C38
300C
6006
6006
C003
C003
C003
C003
C003
C003
C003
6006
6006
300C
3C38
0FF0
ENDCHAR
STARTCHAR C021520
ENCODING 9040
SWIDTH 2400 0
DWIDTH 24 0
BBX 15 16 5 0
BITMAP
FFF0
181C
180E
1806
1806
1806
180E
181C
1FF0
1800
1800
1800
1800
1800
1800
FF00
ENDCHAR
STARTCHAR C021521
ENCODING 9041
SWIDTH 2400 0
DWIDTH 24 0
BBX 16 20 5 -3
BITMAP
0FE0
3C78
701C
600C
E00E
E006
C007
C007
C007
C007
C007
C006
C006
FF8C
70CC
3078
1C70
07F8
003F
001C
ENDCHAR
STARTCHAR C021522
ENCODING 9042
SWIDTH 2400 0
DWIDTH 24 0
BBX 16 16 5 0
BITMAP
FFF0
1838
180C
180C
180C
181C
1838
1FF0
19C0
18C0
1860
1860
1830
1838
1818
FF1F
ENDCHAR
STARTCHAR C021523
ENCODING 9043
SWIDTH 2400 0
DWIDTH 24 0
BBX 13 18 6 -1
BITMAP
0E60
3BE0
6060
E030
E000
E000
6000
7C00
0F80
01E0
0070
0038
0038
C038
E030
7030
7FE0
0300
ENDCHAR
STARTCHAR C021524
ENCODING 9044
SWIDTH 2400 0
DWIDTH 24 0
BBX 18 16 4 0
BITMAP
3FFF00
70C380
60C180
C0C0C0
00C000
00C000
00C000
00C000
00C000
00C000
00C000
00C000
00C000
00C000
00C000
07F800
ENDCHAR
STARTCHAR C021525
ENCODING 9045
SWIDTH 2400 0
DWIDTH 24 0
BBX 17 17 4 0
BITMAP
003F80
FC0600
300600
300600
300600
300600
300600
300600
300600
300600
300600
300600
300600
300600
380C00
1C1C00
07F000
ENDCHAR
STARTCHAR C021526
ENCODING 9046
SWIDTH 2400 0
DWIDTH 24 0
BBX 17 16 4 0
BITMAP
FE1F80
380600
380600
180C00
1C0C00
0C1800
0E1800
0E1800
063000
073000
036000
036000
03E000
01C000
01C000
00C000
ENDCHAR
STARTCHAR C021527
ENCODING 9047
SWIDTH 2400 0
DWIDTH 24 0
BBX 25 16 0 0
BITMAP
FE7F3F00
381C0E00
181C0C00
1C0C0C00
1C1C1800
0C1E1800
0E361800
0E363000
06373000
07673000
07636000
0363E000
03C3E000
03C1C000
01C1C000
0181C080
ENDCHAR
STARTCHAR C021530
ENCODING 9048
SWIDTH 2400 0
DWIDTH 24 0
BBX 17 16 4 0
BITMAP
7E3F00
1C1C00
0C1800
0E3000
063000
036000
03C000
01C000
03C000
036000
066000
0C3000
0C1800
181800
381C00
FE3F80
ENDCHAR
STARTCHAR C021531
ENCODING 9049
SWIDTH 2400 0
DWIDTH 24 0
BBX 17 16 4 0
BITMAP
FE1F80
380600
1C0C00
0C0C00
061800
063000
033000
01E000
01C000
00C000
00C000
00C000
00C000
00C000
00C000
07F800
ENDCHAR
STARTCHAR C021532
ENCODING 9050
SWIDTH 2400 0
DWIDTH 24 0
BBX 13 16 6 0
BITMAP
7FF8
7030
6070
C0E0
00C0
0180
0380
0300
0600
0E00
0C00
1800
3800
7018
6078
FFF0
ENDCHAR
STARTCHAR C021533
ENCODING 9051
SWIDTH 2400 0
DWIDTH 24 0
BBX 5 22 18 -4
BITMAP
F8
C0
C0
C0
C0
C0
C0
C0
C0
C0
C0
C0
C0
C0
C0
C0
C0
C0
C0
C0
C0
F8
ENDCHAR
STARTCHAR C021534
ENCODING 9052
SWIDTH 2400 0
DWIDTH 24 0
BBX 23 16 1 -1
BITMAP
FDFE7E
70301C
303818
303818
383830
FFFFFE
187C30
1C6C60
FFFFFE
0CCEC0
0EC6C0
0786C0
078780
078780
070300
030300
ENDCHAR
STARTCHAR C021535
ENCODING 9053
SWIDTH 2400 0
DWIDTH 24 0
BBX 5 22 2 -4
BITMAP
F8
18
18
18
18
18
18
18
18
18
18
18
18
18
18
18
18
18
18
18
18
F8
ENDCHAR
STARTCHAR C021536
ENCODING 9054
SWIDTH 2400 0
DWIDTH 24 0
BBX 9 3 8 15
BITMAP
1E00
3F00
E380
ENDCHAR
STARTCHAR C021537
ENCODING 9055
SWIDTH 2400 0
DWIDTH 24 0
BBX 23 1 1 -3
BITMAP
FFFFFE
ENDCHAR
STARTCHAR C021540
ENCODING 9056
SWIDTH 2400 0
DWIDTH 24 0
BBX 7 9 9 10
BITMAP
F0
70
70
38
18
1C
0C
0C
06
ENDCHAR
STARTCHAR C021541
ENCODING 9057
SWIDTH 2400 0
DWIDTH 24 0
BBX 12 11 6 0
BITMAP
1F00
7180
71C0
00C0
01C0
0FC0
38C0
70C0
E0C0
E1E0
7FF0
ENDCHAR
STARTCHAR C021542
ENCODING 9058
SWIDTH 2400 0
DWIDTH 24 0
BBX 12 17 6 -1
BITMAP
F000
3000
3000
3000
3000
3780
3CE0
3060
3030
3030
3030
3030
3030
3070
3060
3DC0
0700
ENDCHAR
STARTCHAR C021543
ENCODING 9059
SWIDTH 2400 0
DWIDTH 24 0
BBX 11 11 7 0
BITMAP
0F80
39C0
71C0
6000
E000
C000
C000
E000
E000
70E0
3F80
ENDCHAR
STARTCHAR C021544
ENCODING 9060
SWIDTH 2400 0
DWIDTH 24 0
BBX 12 17 7 0
BITMAP
00C0
03C0
00C0
00C0
00C0
00C0
1FC0
31C0
60C0
C0C0
C0C0
C0C0
C0C0
C0C0
C0C0
61C0
3FF0
ENDCHAR
STARTCHAR C021545
ENCODING 9061
SWIDTH 2400 0
DWIDTH 24 0
BBX 11 12 7 0
BITMAP
1F80
38C0
70C0
6060
E060
FFE0
C000
C000
C000
E000
70C0
3F80
ENDCHAR
STARTCHAR C021546
ENCODING 9062
SWIDTH 2400 0
DWIDTH 24 0
BBX 9 16 8 0
BITMAP
0780
0F80
1800
1800
1800
1800
FF00
1800
1800
1800
1800
1800
1800
1800
1800
7E00
ENDCHAR
STARTCHAR C021547
ENCODING 9063
SWIDTH 2400 0
DWIDTH 24 0
BBX 13 15 6 -4
BITMAP
1FF8
31F8
70C0
60E0
60E0
60C0
31C0
1F00
7000
7E00
33C0
6070
C070
E0E0
7FC0
ENDCHAR
STARTCHAR C021550
ENCODING 9064
SWIDTH 2400 0
DWIDTH 24 0
BBX 12 17 6 0
BITMAP
3000
F000
3000
3000
3000
3000
37C0
3CE0
3060
3060
3060
3060
3060
3060
3060
3060
FDF0
ENDCHAR
STARTCHAR C021551
ENCODING 9065
SWIDTH 2400 0
DWIDTH 24 0
BBX 6 17 9 0
BITMAP
18
18
00
00
00
00
F0
70
30
30
30
30
30
30
30
30
FC
ENDCHAR
STARTCHAR C021552
ENCODING 9066
SWIDTH 2400 0
DWIDTH 24 0
BBX 6 21 9 -4
BITMAP
0C
0C
00
00
00
00
0C
3C
0C
0C
0C
0C
0C
0C
0C
0C
0C
0C
6C
F8
60
ENDCHAR
STARTCHAR C021553
ENCODING 9067
SWIDTH 2400 0
DWIDTH 24 0
BBX 13 17 6 0
BITMAP
3000
F000
3000
3000
3000
3000
33F0
30C0
3180
3300
3600
3F00
3B00
3180
31C0
30E0
FDF8
ENDCHAR
STARTCHAR C021554
ENCODING 9068
SWIDTH 2400 0
DWIDTH 24 0
BBX 5 16 10 0
BITMAP
F0
30
30
30
30
30
30
30
30
30
30
30
30
30
30
F8
ENDCHAR
STARTCHAR C021555
ENCODING 9069
SWIDTH 2400 0
DWIDTH 24 0
BBX 20 11 3 0
BITMAP
F7DF80
7C71C0
3060C0
3060C0
3060C0
3060C0
3060C0
3060C0
3060C0
3060C0
FDFBF0
ENDCHAR
STARTCHAR C021556
ENCODING 9070
SWIDTH 2400 0
DWIDTH 24 0
BBX 13 11 6 0
BITMAP
F7C0
3C60
3060
3060
3060
3060
3060
3060
3060
3060
FDF8
ENDCHAR
STARTCHAR C021557
ENCODING 9071
SWIDTH 2400 0
DWIDTH 24 0
BBX 11 12 7 -1
BITMAP
1F00
3180
60C0
C0E0
C060
C060
C060
C060
C060
60C0
3180
1F00
ENDCHAR
STARTCHAR C021560
ENCODING 9072
SWIDTH 2400 0
DWIDTH 24 0
BBX 12 15 6 -4
BITMAP
3780
FCC0
3060
3030
3030
3030
3030
3030
3060
3060
3DC0
3700
3000
3000
FC00
ENDCHAR
STARTCHAR C021561
ENCODING 9073
SWIDTH 2400 0
DWIDTH 24 0
BBX 12 15 7 -4
BITMAP
3FC0
71C0
60C0
C0C0
C0C0
C0C0
C0C0
C0C0
C0C0
60C0
3BC0
0EC0
00C0
00C0
03F0
ENDCHAR
STARTCHAR C021562
ENCODING 9074
SWIDTH 2400 0
DWIDTH 24 0
BBX 9 11 8 0
BITMAP
3380
FF80
3800
3000
3000
3000
3000
3000
3000
3000
FC00
ENDCHAR
STARTCHAR C021563
ENCODING 9075
SWIDTH 2400 0
DWIDTH 24 0
BBX 10 11 8 0
BITMAP
7F00
E380
C180
E000
7C00
3F80
0380
01C0
C180
F180
7F00
ENDCHAR
STARTCHAR C021564
ENCODING 9076
SWIDTH 2400 0
DWIDTH 24 0
BBX 8 14 9 0
BITMAP
30
30
70
FF
30
30
30
30
30
30
30
30
33
1E
ENDCHAR
STARTCHAR C021565
ENCODING 9077
SWIDTH 2400 0
DWIDTH 24 0
BBX 11 11 7 0
BITMAP
60C0
E3C0
60C0
60C0
60C0
60C0
60C0
60C0
60C0
61C0
3FE0
ENDCHAR
STARTCHAR C021566
ENCODING 9078
SWIDTH 2400 0
DWIDTH 24 0
BBX 13 10 6 0
BITMAP
FCF8
3860
1860
1CC0
1CC0
0D80
0F80
0780
0700
0300
ENDCHAR
STARTCHAR C021567
ENCODING 9079
SWIDTH 2400 0
DWIDTH 24 0
BBX 19 11 3 0
BITMAP
FDFBE0
38E180
186180
187300
1CF300
0DB300
0FBE00
071E00
071C00
070C00
000C00
ENDCHAR
STARTCHAR C021570
ENCODING 9080
SWIDTH 2400 0
DWIDTH 24 0
BBX 13 11 6 0
BITMAP
FDF8
3860
18C0
0D80
0700
0700
0F80
1980
30C0
70F0
F9F8
ENDCHAR
STARTCHAR C021571
ENCODING 9081
SWIDTH 2400 0
DWIDTH 24 0
BBX 13 15 6 -4
BITMAP
FDF8
7060
3860
38C0
1CC0
1D80
0D80
0F80
0700
0700
0600
0600
0C00
7C00
7000
ENDCHAR
STARTCHAR C021572
ENCODING 9082
SWIDTH 2400 0
DWIDTH 24 0
BBX 10 10 8 0
BITMAP
7F80
C300
C600
0E00
0C00
1800
3000
70C0
E180
FF80
ENDCHAR
STARTCHAR C021573
ENCODING 9083
SWIDTH 2400 0
DWIDTH 24 0
BBX 6 22 17 -4
BITMAP
1C
18
30
30
30
30
30
30
30
60
C0
60
30
30
30
30
30
30
30
30
18
0C
ENDCHAR
STARTCHAR C021574
ENCODING 9084
SWIDTH 2400 0
DWIDTH 24 0
BBX 2 22 11 -4
BITMAP
C0
C0
C0
C0
C0
C0
C0
C0
C0
C0
C0
C0
C0
C0
C0
C0
C0
C0
C0
C0
C0
C0
ENDCHAR
STARTCHAR C021575
ENCODING 9085
SWIDTH 2400 0
DWIDTH 24 0
BBX 6 22 2 -4
BITMAP
E0
60
30
30
30
30
30
30
30
18
0C
18
30
30
30
30
30
30
30
30
60
C0
ENDCHAR
STARTCHAR C021576
ENCODING 9086
SWIDTH 2400 0
DWIDTH 24 0
BBX 9 1 8 16
BITMAP
FF80
ENDCHAR
STARTCHAR C021577
ENCODING 9087
SWIDTH 2400 0
DWIDTH 24 0
BBX 0 0 0 0
BITMAP
ENDCHAR
STARTCHAR C022040
ENCODING 9248
SWIDTH 2400 0
DWIDTH 24 0
BBX 1 1 24 12
BITMAP
80
ENDCHAR
STARTCHAR C022041
ENCODING 9249
SWIDTH 2400 0
DWIDTH 24 0
BBX 16 12 4 1
BITMAP
FFFF
7F03
0003
0003
0003
0003
0003
0003
0003
0003
0003
0003
ENDCHAR
STARTCHAR C022042
ENCODING 9250
SWIDTH 2400 0
DWIDTH 24 0
BBX 18 13 4 1
BITMAP
030180
FF7FC0
630180
030180
030180
030180
030180
030180
030180
030180
030180
030180
000180
ENDCHAR
STARTCHAR C022043
ENCODING 9251
SWIDTH 2400 0
DWIDTH 24 0
BBX 20 13 3 1
BITMAP
030000
FF0F00
330700
030600
030E00
030E00
030F00
031F00
0319C0
0330E0
0360E0
036070
00C000
ENDCHAR
STARTCHAR C022044
ENCODING 9252
SWIDTH 2400 0
DWIDTH 24 0
BBX 18 10 4 3
BITMAP
F00000
700000
300000
300000
300000
300000
300000
300000
300780
1FFFC0
ENDCHAR
STARTCHAR C022045
ENCODING 9253
SWIDTH 2400 0
DWIDTH 24 0
BBX 21 13 2 1
BITMAP
000060
F07FF0
303F00
300380
300380
300300
300780
3006C0
30CEE0
339C70
3F1830
3C3038
006000
ENDCHAR
STARTCHAR C022046
ENCODING 9254
SWIDTH 2400 0
DWIDTH 24 0
BBX 22 13 2 0
BITMAP
E00FC0
300000
30007C
307FFC
303000
300300
300FC0
307CE0
31D860
3F1860
3C1860
001CE0
000FC0
ENDCHAR
STARTCHAR C022047
ENCODING 9255
SWIDTH 2400 0
DWIDTH 24 0
BBX 17 10 4 3
BITMAP
001E00
FFFE00
600000
600000
600000
600000
600000
600000
600F80
7FFF80
ENDCHAR
STARTCHAR C022050
ENCODING 9256
SWIDTH 2400 0
DWIDTH 24 0
BBX 19 13 3 1
BITMAP
0061C0
E63FC0
7F3000
603000
603000
603000
603000
603000
603000
61B000
6731E0
7C3FE0
700000
ENDCHAR
STARTCHAR C022051
ENCODING 9257
SWIDTH 2400 0
DWIDTH 24 0
BBX 17 13 4 1
BITMAP
000E00
FFFE00
700E00
000C00
000C00
001C00
FFFC00
600000
600000
600000
600000
600F00
7FFF80
ENDCHAR
STARTCHAR C022052
ENCODING 9258
SWIDTH 2400 0
DWIDTH 24 0
BBX 19 12 2 1
BITMAP
038060
7FCFE0
018060
018060
030060
FF8060
300060
300060
300060
30E060
3F8060
3C0000
ENDCHAR
STARTCHAR C022053
ENCODING 9259
SWIDTH 2400 0
DWIDTH 24 0
BBX 20 13 2 1
BITMAP
01B800
7FDFF0
018C30
018C30
018C30
038C30
FF8C30
300C60
300C60
300C60
306FF0
3FCC00
3C0000
ENDCHAR
STARTCHAR C022054
ENCODING 9260
SWIDTH 2400 0
DWIDTH 24 0
BBX 20 13 2 1
BITMAP
03C070
3F9830
018C30
018C30
030C30
FF8FF0
300C30
300C30
300C30
306C30
3FCC30
3C0FF0
000C30
ENDCHAR
STARTCHAR C022055
ENCODING 9261
SWIDTH 2400 0
DWIDTH 24 0
BBX 19 12 3 2
BITMAP
03CE00
7F8700
018700
018700
030600
FF8E00
300E00
300F00
301980
3079C0
3FF0E0
3C6060
ENDCHAR
STARTCHAR C022056
ENCODING 9262
SWIDTH 2400 0
DWIDTH 24 0
BBX 19 13 3 1
BITMAP
00E1E0
07BFE0
7F3000
033000
033000
0633C0
FF3FC0
603000
603000
603000
60F0E0
7FBFE0
7C0000
ENDCHAR
STARTCHAR C022057
ENCODING 9263
SWIDTH 2400 0
DWIDTH 24 0
BBX 20 13 3 1
BITMAP
030000
FF80F0
037F80
033380
0301C0
0361C0
FF31C0
603980
601980
601980
639B00
7E0370
79FFF0
ENDCHAR
STARTCHAR C022060
ENCODING 9264
SWIDTH 2400 0
DWIDTH 24 0
BBX 21 13 2 0
BITMAP
7F8FC0
338000
030038
03FFF8
033300
FF1F80
303CC0
303860
303860
303860
33BCC0
3E1F80
380000
ENDCHAR
STARTCHAR C022061
ENCODING 9265
SWIDTH 2400 0
DWIDTH 24 0
BBX 17 12 4 2
BITMAP
000300
FFFF80
700380
700300
300300
300300
300300
300300
300600
300600
3FFF00
300000
ENDCHAR
STARTCHAR C022062
ENCODING 9266
SWIDTH 2400 0
DWIDTH 24 0
BBX 14 14 5 1
BITMAP
0038
001C
E00C
600C
600C
600C
7FFC
600C
600C
600C
600C
600C
7FFC
600C
ENDCHAR
STARTCHAR C022063
ENCODING 9267
SWIDTH 2400 0
DWIDTH 24 0
BBX 19 14 3 0
BITMAP
0000E0
03B860
E19860
619860
619860
619FE0
7F9860
619860
619860
619860
619860
619FE0
7F9860
018000
ENDCHAR
STARTCHAR C022064
ENCODING 9268
SWIDTH 2400 0
DWIDTH 24 0
BBX 19 13 3 1
BITMAP
038E00
E18700
618700
618700
618600
7F8E00
618E00
619F00
619980
61B9C0
61B0E0
7FE060
60C000
ENDCHAR
STARTCHAR C022065
ENCODING 9269
SWIDTH 2400 0
DWIDTH 24 0
BBX 19 13 3 1
BITMAP
01C000
00F000
007000
00E000
00E000
01F000
039800
030C00
060700
0C03C0
1801C0
7000E0
C00000
ENDCHAR
STARTCHAR C022066
ENCODING 9270
SWIDTH 2400 0
DWIDTH 24 0
BBX 20 12 3 2
BITMAP
000C00
070700
038700
070700
060E00
0F0C00
1D9E00
19FB00
30F1C0
6060E0
C0C0E0
018070
ENDCHAR
STARTCHAR C022067
ENCODING 9271
SWIDTH 2400 0
DWIDTH 24 0
BBX 13 14 6 1
BITMAP
0600
0700
1FC0
7060
6030
C018
C018
C018
C018
C018
C018
6030
3060
1FC0
ENDCHAR
STARTCHAR C022070
ENCODING 9272
SWIDTH 2400 0
DWIDTH 24 0
BBX 18 12 3 2
BITMAP
000780
3FFF80
1C6000
007000
00E000
01F000
01D800
038C00
070780
0C03C0
3801C0
E000C0
ENDCHAR
STARTCHAR C022071
ENCODING 9273
SWIDTH 2400 0
DWIDTH 24 0
BBX 21 12 2 2
BITMAP
006030
7FFFF8
3F0380
038380
070300
0F0700
0D8780
1DCEC0
30FC70
607838
C07018
00C000
ENDCHAR
STARTCHAR C022072
ENCODING 9274
SWIDTH 2400 0
DWIDTH 24 0
BBX 18 14 3 0
BITMAP
03F800
000000
000000
000000
7FFFC0
3E6000
00F000
00E000
01F000
039C00
070700
1C03C0
3801C0
E00000
ENDCHAR
STARTCHAR C022073
ENCODING 9275
SWIDTH 2400 0
DWIDTH 24 0
BBX 15 13 5 1
BITMAP
0006
7FFE
3F06
0006
0006
001E
01F6
FF06
7806
000C
000C
000C
000C
ENDCHAR
STARTCHAR C022074
ENCODING 9276
SWIDTH 2400 0
DWIDTH 24 0
BBX 18 12 4 2
BITMAP
E01F00
7FFF00
300000
300000
300000
300000
3FFF00
300000
300000
300000
3007C0
3FFFC0
ENDCHAR
STARTCHAR C022075
ENCODING 9277
SWIDTH 2400 0
DWIDTH 24 0
BBX 19 12 3 1
BITMAP
0007C0
7FFFC0
3C0000
001C00
0C0E00
0E0E00
060C00
070C00
071800
0019C0
FFFFE0
300000
ENDCHAR
STARTCHAR C022076
ENCODING 9278
SWIDTH 2400 0
DWIDTH 24 0
BBX 19 13 3 1
BITMAP
03F800
000000
0001C0
FFFFE0
306000
00E000
07BC00
0C0600
0C0600
0C0600
0C0600
060C00
03F800
ENDCHAR
STARTCHAR C022077
ENCODING 9279
SWIDTH 2400 0
DWIDTH 24 0
BBX 11 21 8 -3
BITMAP
F000
3800
1800
1800
1800
1800
1800
1800
1800
19E0
1FE0
1800
1800
1800
1800
1800
1800
1800
1800
1800
1800
ENDCHAR
STARTCHAR C022100
ENCODING 9280
SWIDTH 2400 0
DWIDTH 24 0
BBX 11 21 7 -3
BITMAP
03C0
00E0
E060
7060
3060
3060
3060
3060
3060
3060
3060
3FE0
3060
3060
3060
3060
3060
3060
3060
3060
0060
ENDCHAR
STARTCHAR C022101
ENCODING 9281
SWIDTH 2400 0
DWIDTH 24 0
BBX 11 21 8 -3
BITMAP
F000
3800
1800
1800
1800
1800
19C0
1FC0
1800
1800
1800
1800
19E0
1FE0
1800
1800
1800
1800
1800
1800
1800
ENDCHAR
STARTCHAR C022102
ENCODING 9282
SWIDTH 2400 0
DWIDTH 24 0
BBX 10 21 7 -3
BITMAP
0780
01C0
F0C0
30C0
30C0
30C0
30C0
3FC0
30C0
30C0
30C0
30C0
3FC0
30C0
30C0
30C0
30C0
30C0
30C0
00C0
00C0
ENDCHAR
STARTCHAR C022103
ENCODING 9283
SWIDTH 2400 0
DWIDTH 24 0
BBX 10 21 6 -3
BITMAP
0700
03C0
00C0
00C0
00C0
00C0
00C0
00C0
00C0
EFC0
38C0
00C0
00C0
00C0
00C0
00C0
00C0
00C0
00C0
00C0
00C0
ENDCHAR
STARTCHAR C022104
ENCODING 9284
SWIDTH 2400 0
DWIDTH 24 0
BBX 13 21 5 -3
BITMAP
0070
0038
0F18
0318
0318
0318
0318
0318
0318
0318
FF18
0318
0318
0318
0318
0318
0318
0318
0318
0018
0018
ENDCHAR
STARTCHAR C022105
ENCODING 9285
SWIDTH 2400 0
DWIDTH 24 0
BBX 10 21 6 -3
BITMAP
0780
01C0
00C0
00C0
00C0
00C0
00C0
FFC0
78C0
00C0
00C0
00C0
00C0
FFC0
30C0
00C0
00C0
00C0
00C0
00C0
00C0
ENDCHAR
STARTCHAR C022106
ENCODING 9286
SWIDTH 2400 0
DWIDTH 24 0
BBX 14 21 4 -3
BITMAP
0078
001C
078C
018C
018C
018C
018C
FF8C
318C
018C
018C
018C
018C
7F8C
318C
018C
018C
018C
018C
000C
000C
ENDCHAR
STARTCHAR C022107
ENCODING 9287
SWIDTH 2400 0
DWIDTH 24 0
BBX 21 12 3 1
BITMAP
01E000
006000
006000
006000
006000
006000
006000
006000
0060F0
01FFF8
FF0000
300000
ENDCHAR
STARTCHAR C022110
ENCODING 9288
SWIDTH 2400 0
DWIDTH 24 0
BBX 22 21 1 -3
BITMAP
000F00
000380
000180
000180
060180
038180
018180
018180
018180
018180
0181FC
018180
018780
01FD80
FFC180
380180
000180
000180
000180
000180
000180
ENDCHAR
STARTCHAR C022111
ENCODING 9289
SWIDTH 2400 0
DWIDTH 24 0
BBX 18 21 3 -3
BITMAP
0003C0
0060C0
0038C0
0018C0
3C18C0
0C18C0
0C18C0
0C18C0
0C18C0
0C18C0
0C1FC0
0C18C0
0CF8C0
1F98C0
F818C0
0018C0
0018C0
0018C0
0018C0
0000C0
0000C0
ENDCHAR
STARTCHAR C022112
ENCODING 9290
SWIDTH 2400 0
DWIDTH 24 0
BBX 18 20 2 -3
BITMAP
0003C0
0000C0
0000C0
0000C0
03C0C0
0180C0
0180C0
0180C0
0180C0
0180C0
0180C0
0183C0
01BEC0
CFE0C0
7E00C0
0000C0
0000C0
0000C0
0000C0
0000C0
ENDCHAR
STARTCHAR C022113
ENCODING 9291
SWIDTH 2400 0
DWIDTH 24 0
BBX 21 11 2 2
BITMAP
000E00
070700
030700
030700
030700
030600
030600
030600
030678
FFFFF8
180000
ENDCHAR
STARTCHAR C022114
ENCODING 9292
SWIDTH 2400 0
DWIDTH 24 0
BBX 22 16 2 -3
BITMAP
000078
FFFFFC
7C3000
003000
003000
003000
003000
003000
003000
003000
003000
003000
003000
003000
003000
003000
ENDCHAR
STARTCHAR C022115
ENCODING 9293
SWIDTH 2400 0
DWIDTH 24 0
BBX 18 20 2 -3
BITMAP
0003C0
0000C0
0000C0
0000C0
0000C0
001CC0
FFF0C0
7F80C0
0180C0
0180C0
019FC0
0180C0
0180C0
0180C0
0180C0
0180C0
0180C0
0000C0
0000C0
0000C0
ENDCHAR
STARTCHAR C022116
ENCODING 9294
SWIDTH 2400 0
DWIDTH 24 0
BBX 19 21 2 -3
BITMAP
0001C0
0000E0
001E60
000660
000660
000660
000660
00F660
FF8660
330660
030660
037E60
030660
030660
030660
030660
030660
000660
000060
000060
000060
ENDCHAR
STARTCHAR C022117
ENCODING 9295
SWIDTH 2400 0
DWIDTH 24 0
BBX 17 20 3 -3
BITMAP
000380
000180
000180
000180
000180
000180
000F80
FFF980
7F8180
018180
018180
018180
018180
018180
018180
018180
018180
000180
000180
000180
ENDCHAR
STARTCHAR C022120
ENCODING 9296
SWIDTH 2400 0
DWIDTH 24 0
BBX 21 16 2 -3
BITMAP
0001F8
FFFFF8
7F0600
030600
030600
030600
030600
030600
030600
030600
030600
030600
030600
030600
030600
030600
ENDCHAR
STARTCHAR C022121
ENCODING 9297
SWIDTH 2400 0
DWIDTH 24 0
BBX 22 3 2 5
BITMAP
0000FC
FFFFFC
300000
ENDCHAR
STARTCHAR C022122
ENCODING 9298
SWIDTH 2400 0
DWIDTH 24 0
BBX 17 21 3 -3
BITMAP
000E00
000780
000180
000180
000180
000180
000180
000180
000180
000180
000180
001F80
07F180
FE0180
300180
000180
000180
000180
000180
000180
000180
ENDCHAR
STARTCHAR C022123
ENCODING 9299
SWIDTH 2400 0
DWIDTH 24 0
BBX 4 21 10 -3
BITMAP
E0
70
30
30
30
30
30
30
30
30
30
30
30
30
30
30
30
30
30
30
30
ENDCHAR
STARTCHAR C022124
ENCODING 9300
SWIDTH 2400 0
DWIDTH 24 0
BBX 0 0 0 0
BITMAP
ENDCHAR
STARTCHAR C022125
ENCODING 9301
SWIDTH 2400 0
DWIDTH 24 0
BBX 19 11 3 2
BITMAP
E0F000
703000
303000
303000
303000
303000
303000
303000
31F000
3F31E0
3C3FE0
ENDCHAR
STARTCHAR C022126
ENCODING 9302
SWIDTH 2400 0
DWIDTH 24 0
BBX 19 12 3 2
BITMAP
00E1C0
003FC0
E03000
603000
603000
603000
603000
603000
60F000
63B000
6E30E0
783FE0
ENDCHAR
STARTCHAR C022127
ENCODING 9303
SWIDTH 2400 0
DWIDTH 24 0
BBX 20 12 2 2
BITMAP
000E00
F00700
300700
300700
300600
300E00
300F00
301980
30F9E0
37B0E0
3C6070
00C030
ENDCHAR
STARTCHAR C022130
ENCODING 9304
SWIDTH 2400 0
DWIDTH 24 0
BBX 21 12 2 1
BITMAP
F00700
300700
300700
300F80
300F80
301CC0
301CE0
301860
31B870
373030
3C7038
307FF8
ENDCHAR
STARTCHAR C022131
ENCODING 9305
SWIDTH 2400 0
DWIDTH 24 0
BBX 20 13 3 1
BITMAP
000600
FFE380
6C6180
0C6380
0C6380
CC6300
786780
606780
6066C0
606C60
637870
7E7830
706000
ENDCHAR
STARTCHAR C022132
ENCODING 9306
SWIDTH 2400 0
DWIDTH 24 0
BBX 21 12 2 2
BITMAP
0000F0
7FFFF0
319800
039800
031800
FF9800
301800
301800
301800
307800
3FD870
3C1FF8
ENDCHAR
STARTCHAR C022133
ENCODING 9307
SWIDTH 2400 0
DWIDTH 24 0
BBX 20 12 3 1
BITMAP
FE39C0
0FD9C0
0CD9C0
0CD9C0
ECD980
78F980
60DBC0
60DBC0
60DB70
63DE70
7EFC30
00C030
ENDCHAR
STARTCHAR C022134
ENCODING 9308
SWIDTH 2400 0
DWIDTH 24 0
BBX 21 13 2 0
BITMAP
FFC380
31C380
018380
0187C0
0186C0
7FC6C0
300E60
300C60
301C30
307830
31F830
3F3FF8
3C0000
ENDCHAR
STARTCHAR C022135
ENCODING 9309
SWIDTH 2400 0
DWIDTH 24 0
BBX 20 13 3 1
BITMAP
030000
FF8070
637FF0
033800
070000
060700
FF0F80
6039C0
6030E0
6030E0
61F0E0
6F39C0
780F80
ENDCHAR
STARTCHAR C022136
ENCODING 9310
SWIDTH 2400 0
DWIDTH 24 0
BBX 19 12 3 1
BITMAP
C078E0
FF9860
631860
631860
631860
631FE0
631860
631860
631860
631860
7F1FE0
601860
ENDCHAR
STARTCHAR C022137
ENCODING 9311
SWIDTH 2400 0
DWIDTH 24 0
BBX 20 13 3 1
BITMAP
001C00
000E00
FFC700
638600
638E00
638C00
639E00
639B00
63B980
6331E0
6360E0
7FC070
618000
ENDCHAR
STARTCHAR C022140
ENCODING 9312
SWIDTH 2400 0
DWIDTH 24 0
BBX 19 12 3 2
BITMAP
000E00
018600
FFC700
638F00
638D80
639D80
639980
6398C0
63B8C0
633060
637060
7FFFE0
ENDCHAR
STARTCHAR C022141
ENCODING 9313
SWIDTH 2400 0
DWIDTH 24 0
BBX 13 16 6 -1
BITMAP
FFF8
6030
6030
6070
6070
6070
7FF0
6000
1FC0
3060
6030
6030
6030
6030
3060
1FC0
ENDCHAR
STARTCHAR C022142
ENCODING 9314
SWIDTH 2400 0
DWIDTH 24 0
BBX 18 12 3 1
BITMAP
0380C0
E19FC0
6180C0
6180C0
6180C0
7F80C0
6180C0
6180C0
6180C0
6180C0
7F80C0
6180C0
ENDCHAR
STARTCHAR C022143
ENCODING 9315
SWIDTH 2400 0
DWIDTH 24 0
BBX 20 12 3 1
BITMAP
E3B9E0
619FC0
619800
619800
7F9800
619800
619800
619800
619800
619800
7F98F0
619FE0
ENDCHAR
STARTCHAR C022144
ENCODING 9316
SWIDTH 2400 0
DWIDTH 24 0
BBX 20 13 2 1
BITMAP
067000
071C70
E31DF0
631C30
631830
633830
7F3830
633C30
636730
636730
63C3B0
7F8030
630030
ENDCHAR
STARTCHAR C022145
ENCODING 9317
SWIDTH 2400 0
DWIDTH 24 0
BBX 21 13 2 1
BITMAP
0E7000
E63FF0
663380
663300
663300
7E7300
667300
667B00
66FF00
66CF00
678F00
7F83F8
630000
ENDCHAR
STARTCHAR C022146
ENCODING 9318
SWIDTH 2400 0
DWIDTH 24 0
BBX 19 13 3 1
BITMAP
0701C0
E3FFE0
630E00
630E00
630E00
7F0E00
630F00
631F00
6339C0
6330E0
6360E0
7FC060
618000
ENDCHAR
STARTCHAR C022147
ENCODING 9319
SWIDTH 2400 0
DWIDTH 24 0
BBX 20 14 3 0
BITMAP
0061E0
077FE0
E33000
633000
633000
6333C0
7F3FC0
633000
633000
633000
6330E0
7F3FF0
630000
600000
ENDCHAR
STARTCHAR C022150
ENCODING 9320
SWIDTH 2400 0
DWIDTH 24 0
BBX 13 20 6 -3
BITMAP
0078
E018
6018
6018
7FF8
6018
6018
6018
6018
7FF8
6018
0FC0
38E0
7070
7030
6030
7030
7070
38E0
1FC0
ENDCHAR
STARTCHAR C022151
ENCODING 9321
SWIDTH 2400 0
DWIDTH 24 0
BBX 16 20 4 -3
BITMAP
00E7
C763
6363
637F
7F63
6363
6363
6363
7F7F
6360
0000
07E0
0E38
1C0C
1C0C
1C0C
1C0C
1C0C
0E18
07F0
ENDCHAR
STARTCHAR C022152
ENCODING 9322
SWIDTH 2400 0
DWIDTH 24 0
BBX 18 11 3 2
BITMAP
0761C0
073FC0
0700C0
0600C0
0E00C0
0F00C0
1F00C0
19C0C0
30E0C0
60E0C0
C060C0
ENDCHAR
STARTCHAR C022153
ENCODING 9323
SWIDTH 2400 0
DWIDTH 24 0
BBX 21 12 2 2
BITMAP
0C3800
079C00
038C00
070C00
070C00
060C00
0F0C00
0D8C00
19CC00
30EC00
606C78
C06FF8
ENDCHAR
STARTCHAR C022154
ENCODING 9324
SWIDTH 2400 0
DWIDTH 24 0
BBX 20 12 2 2
BITMAP
0C30E0
071FE0
071800
071800
061800
0E1800
0F1800
1F1800
19D800
30F800
60F8F0
C07FF0
ENDCHAR
STARTCHAR C022155
ENCODING 9325
SWIDTH 2400 0
DWIDTH 24 0
BBX 19 12 2 2
BITMAP
0E00E0
079C60
070C60
070C60
070C60
0E0FE0
0F0C60
1F8C60
19CC60
30EC60
606FE0
C06C60
ENDCHAR
STARTCHAR C022156
ENCODING 9326
SWIDTH 2400 0
DWIDTH 24 0
BBX 20 13 2 1
BITMAP
0C0060
077FF0
071F00
070380
060380
0E0700
0F0700
1F0780
39CEC0
30DC60
60D870
C03030
006000
ENDCHAR
STARTCHAR C022157
ENCODING 9327
SWIDTH 2400 0
DWIDTH 24 0
BBX 15 13 5 1
BITMAP
0380
0180
0380
07C0
06E0
0E60
0C30
1C38
3818
300C
700E
6006
FFFE
ENDCHAR
STARTCHAR C022160
ENCODING 9328
SWIDTH 2400 0
DWIDTH 24 0
BBX 20 11 2 1
BITMAP
1F07C0
338E60
61DC70
60D830
60D830
E0D830
60D830
60D830
61DC70
738E60
1F07C0
ENDCHAR
STARTCHAR C022161
ENCODING 9329
SWIDTH 2400 0
DWIDTH 24 0
BBX 11 13 7 1
BITMAP
1E00
0E00
0E00
3F80
71C0
E0E0
C060
C060
C060
C060
E0E0
71C0
3F80
ENDCHAR
STARTCHAR C022162
ENCODING 9330
SWIDTH 2400 0
DWIDTH 24 0
BBX 20 14 3 1
BITMAP
1C0000
0C1C00
0C0700
3E0700
630600
E38E00
C18E00
C18E00
C19F00
C199C0
C1B0E0
E3E0E0
63C070
3F8000
ENDCHAR
STARTCHAR C022163
ENCODING 9331
SWIDTH 2400 0
DWIDTH 24 0
BBX 20 13 3 1
BITMAP
1C0E00
0C0600
0C0700
3E0F00
630D80
C19D80
C19980
C198C0
C1B8C0
C1B060
C1F060
636070
3E7FF0
ENDCHAR
STARTCHAR C022164
ENCODING 9332
SWIDTH 2400 0
DWIDTH 24 0
BBX 16 18 5 -2
BITMAP
7FFE
00E0
1838
0C30
0C70
0C60
006E
FFFF
0000
0000
0FC0
1870
3018
3018
3018
3018
1830
0FE0
ENDCHAR
STARTCHAR C022165
ENCODING 9333
SWIDTH 2400 0
DWIDTH 24 0
BBX 22 13 2 1
BITMAP
1F87C0
000000
000000
01E03C
FFFFFC
660DC0
1F83E0
318670
60CC30
60CC30
60CC30
318660
1F03C0
ENDCHAR
STARTCHAR C022166
ENCODING 9334
SWIDTH 2400 0
DWIDTH 24 0
BBX 17 14 4 0
BITMAP
000F80
FFFF80
300000
000000
000000
07F000
0E3800
0C1C00
180C00
180C00
180C00
1C1C00
0E3800
07E000
ENDCHAR
STARTCHAR C022167
ENCODING 9335
SWIDTH 2400 0
DWIDTH 24 0
BBX 21 21 2 -3
BITMAP
000F00
000380
000180
000180
007180
003180
1C3180
0C31F8
0C3180
0C3180
0C3180
0C3180
0C3780
0CFDF8
FF81C0
300180
000180
000180
000180
000180
000180
ENDCHAR
STARTCHAR C022170
ENCODING 9336
SWIDTH 2400 0
DWIDTH 24 0
BBX 16 21 4 -3
BITMAP
000F
0007
00E3
0073
0033
01FB
00FF
38FF
1CFF
0CFF
0CFF
0CFF
0CFF
0DFF
FF3F
383F
003F
003F
003F
0003
0003
ENDCHAR
STARTCHAR C022171
ENCODING 9337
SWIDTH 2400 0
DWIDTH 24 0
BBX 17 20 3 -3
BITMAP
000700
000380
000180
000180
00E180
006180
0E6180
066180
066180
066180
066180
066180
06FD80
FF8180
380180
000180
000180
000180
000180
000180
ENDCHAR
STARTCHAR C022172
ENCODING 9338
SWIDTH 2400 0
DWIDTH 24 0
BBX 18 20 2 -3
BITMAP
000780
0001C0
0000C0
0000C0
0000C0
001CC0
FFF0C0
3E60C0
0660C0
066FC0
0660C0
0660C0
0660C0
066FC0
0660C0
0660C0
0060C0
0000C0
0000C0
0000C0
ENDCHAR
STARTCHAR C022173
ENCODING 9339
SWIDTH 2400 0
DWIDTH 24 0
BBX 19 20 2 -3
BITMAP
0003C0
001CE0
000660
000660
000660
000660
003E60
FFE660
7CC660
0CFE60
0CC660
0CC660
0CFE60
0CC660
0CC660
0CC660
000660
000060
000060
000060
ENDCHAR
STARTCHAR C022174
ENCODING 9340
SWIDTH 2400 0
DWIDTH 24 0
BBX 17 21 3 -3
BITMAP
000700
000380
000180
000180
000180
000180
000180
003F80
FFF180
7E3180
063180
063180
063180
063180
063180
063180
063180
003180
000180
000180
000180
ENDCHAR
STARTCHAR C022175
ENCODING 9341
SWIDTH 2400 0
DWIDTH 24 0
BBX 5 4 10 6
BITMAP
78
F8
F8
78
ENDCHAR
STARTCHAR C022176
ENCODING 9342
SWIDTH 2400 0
DWIDTH 24 0
BBX 13 21 6 -3
BITMAP
0070
0038
0018
0018
0018
0018
0018
7818
F818
F818
7818
0018
0018
0018
0018
0018
0018
0018
0018
0018
0018
ENDCHAR
STARTCHAR C022177
ENCODING 9343
SWIDTH 2400 0
DWIDTH 24 0
BBX 0 0 0 0
BITMAP
ENDCHAR
STARTCHAR C022440
ENCODING 9504
SWIDTH 2400 0
DWIDTH 24 0
BBX 1 4 24 -2
BITMAP
80
00
00
80
ENDCHAR
STARTCHAR C022441
ENCODING 9505
SWIDTH 2400 0
DWIDTH 24 0
BBX 5 16 10 0
BITMAP
60
60
00
00
00
30
F0
30
30
30
30
30
30
30
30
F8
ENDCHAR
STARTCHAR C022442
ENCODING 9506
SWIDTH 2400 0
DWIDTH 24 0
BBX 13 17 6 0
BITMAP
6030
6030
6030
0000
0000
0000
3060
F1E0
3060
3060
3060
3060
3060
3060
3060
3060
FDF8
ENDCHAR
STARTCHAR C022443
ENCODING 9507
SWIDTH 2400 0
DWIDTH 24 0
BBX 16 17 4 0
BITMAP
6183
6183
6183
0000
0000
0000
30C6
F3DE
30C6
30C6
30C6
30C6
30C6
30C6
30C6
30C6
FBFF
ENDCHAR
STARTCHAR C022444
ENCODING 9508
SWIDTH 2400 0
DWIDTH 24 0
BBX 16 16 5 0
BITMAP
6000
6000
0000
0000
0000
3FCF
F706
338C
338C
318C
31D8
30D8
30F0
3070
3070
7860
ENDCHAR
STARTCHAR C022445
ENCODING 9509
SWIDTH 2400 0
DWIDTH 24 0
BBX 12 10 7 0
BITMAP
F9F0
70C0
30C0
38C0
1980
1D80
0F00
0F00
0600
0600
ENDCHAR
STARTCHAR C022446
ENCODING 9510
SWIDTH 2400 0
DWIDTH 24 0
BBX 17 16 4 0
BITMAP
000600
000600
000000
000000
000000
FDF700
30C700
38C300
38C300
198300
1D8300
0F0300
0F0300
0F0300
060300
060F80
ENDCHAR
STARTCHAR C022447
ENCODING 9511
SWIDTH 2400 0
DWIDTH 24 0
BBX 19 17 3 0
BITMAP
000C60
000C60
000000
000000
000000
000000
FBF9C0
71B9C0
7198C0
3318C0
3B18C0
3B18C0
1E18C0
1E18C0
1E18C0
0C18C0
0C3DE0
ENDCHAR
STARTCHAR C022450
ENCODING 9512
SWIDTH 2400 0
DWIDTH 24 0
BBX 21 17 2 0
BITMAP
003330
003330
000000
000000
000000
000000
FBFBF0
7199B0
7199B0
3319B0
3B19B0
3B19B0
1E19B0
1E19B0
1E19B0
0C19B0
0C3FF8
ENDCHAR
STARTCHAR C022451
ENCODING 9513
SWIDTH 2400 0
DWIDTH 24 0
BBX 17 17 4 0
BITMAP
180000
180000
000000
000000
000000
000000
F7FF00
338C00
31D800
30D800
30F000
307000
30F800
319800
319C00
330E00
FFDF80
ENDCHAR
STARTCHAR C022452
ENCODING 9514
SWIDTH 2400 0
DWIDTH 24 0
BBX 13 10 6 0
BITMAP
78F0
18C0
1D80
0F00
0700
0F80
1980
19C0
30E0
F9F8
ENDCHAR
STARTCHAR C022453
ENCODING 9515
SWIDTH 2400 0
DWIDTH 24 0
BBX 0 0 0 0
BITMAP
ENDCHAR
STARTCHAR C022454
ENCODING 9516
SWIDTH 2400 0
DWIDTH 24 0
BBX 0 0 0 0
BITMAP
ENDCHAR
STARTCHAR C022455
ENCODING 9517
SWIDTH 2400 0
DWIDTH 24 0
BBX 0 0 0 0
BITMAP
ENDCHAR
STARTCHAR C022456
ENCODING 9518
SWIDTH 2400 0
DWIDTH 24 0
BBX 0 0 0 0
BITMAP
ENDCHAR
STARTCHAR C022457
ENCODING 9519
SWIDTH 2400 0
DWIDTH 24 0
BBX 1 4 24 -2
BITMAP
80
00
00
80
ENDCHAR
STARTCHAR C022460
ENCODING 9520
SWIDTH 2400 0
DWIDTH 24 0
BBX 7 16 9 0
BITMAP
FE
30
30
30
30
30
30
30
30
30
30
30
30
30
78
FE
ENDCHAR
STARTCHAR C022461
ENCODING 9521
SWIDTH 2400 0
DWIDTH 24 0
BBX 16 16 5 0
BITMAP
FFFF
1C18
1818
1818
1818
1818
1818
1818
1818
1818
1818
1818
1818
1818
1C3C
FFFF
ENDCHAR
STARTCHAR C022462
ENCODING 9522
SWIDTH 2400 0
DWIDTH 24 0
BBX 19 16 3 0
BITMAP
FFFFE0
306180
306180
306180
306180
306180
306180
306180
306180
306180
306180
306180
306180
306180
306180
FFFFE0
ENDCHAR
STARTCHAR C022463
ENCODING 9523
SWIDTH 2400 0
DWIDTH 24 0
BBX 21 16 2 0
BITMAP
7FF1F8
19C060
19C0C0
18C0C0
18E0C0
18E180
186180
187180
187300
183300
183B00
183E00
181E00
181C00
181C00
FF0C00
ENDCHAR
STARTCHAR C022464
ENCODING 9524
SWIDTH 2400 0
DWIDTH 24 0
BBX 17 17 4 -1
BITMAP
FE1F80
380E00
380600
180C00
1C0C00
1C1800
0C1800
0E1800
0E3000
063000
073000
036000
03E000
03C000
01C000
01C000
018000
ENDCHAR
STARTCHAR C022465
ENCODING 9525
SWIDTH 2400 0
DWIDTH 24 0
BBX 19 16 3 0
BITMAP
FC7FE0
701980
303180
383180
383180
186180
1C6180
1CC180
0CC180
0CC180
0F8180
0F8180
078180
070180
070180
070FE0
ENDCHAR
STARTCHAR C022466
ENCODING 9526
SWIDTH 2400 0
DWIDTH 24 0
BBX 22 17 2 -1
BITMAP
FE7FFC
783630
303630
386630
386630
186630
1C6630
1CC630
0CC630
0CC630
0F8630
0F8630
078630
078630
070630
030F78
0301C0
ENDCHAR
STARTCHAR C022467
ENCODING 9527
SWIDTH 2400 0
DWIDTH 24 0
BBX 23 16 1 0
BITMAP
FCFFFE
386CD8
386CD8
38CCD8
38CCD8
18CCD8
1CCCD8
1D8CD8
1D8CD8
1D8CD8
0F0CD8
0F0CD8
0F0CD8
0F0CD8
0E0CD8
063FFE
ENDCHAR
STARTCHAR C022470
ENCODING 9528
SWIDTH 2400 0
DWIDTH 24 0
BBX 20 16 3 0
BITMAP
FFE3E0
31C0C0
31C180
30E300
307600
307600
303C00
303800
303C00
303E00
306600
30E700
30C380
318380
3381C0
FFE7F0
ENDCHAR
STARTCHAR C022471
ENCODING 9529
SWIDTH 2400 0
DWIDTH 24 0
BBX 17 16 4 0
BITMAP
FF3F00
1C0C00
0C1800
0E1800
063000
036000
03C000
01C000
03C000
036000
067000
0C3000
181800
181C00
381E00
FE7F80
ENDCHAR
STARTCHAR C022472
ENCODING 9530
SWIDTH 2400 0
DWIDTH 24 0
BBX 0 0 0 0
BITMAP
ENDCHAR
STARTCHAR C022473
ENCODING 9531
SWIDTH 2400 0
DWIDTH 24 0
BBX 0 0 0 0
BITMAP
ENDCHAR
STARTCHAR C022474
ENCODING 9532
SWIDTH 2400 0
DWIDTH 24 0
BBX 0 0 0 0
BITMAP
ENDCHAR
STARTCHAR C022475
ENCODING 9533
SWIDTH 2400 0
DWIDTH 24 0
BBX 0 0 0 0
BITMAP
ENDCHAR
STARTCHAR C022476
ENCODING 9534
SWIDTH 2400 0
DWIDTH 24 0
BBX 1 4 24 -2
BITMAP
80
00
00
80
ENDCHAR
STARTCHAR C022477
ENCODING 9535
SWIDTH 2400 0
DWIDTH 24 0
BBX 0 0 0 0
BITMAP
ENDCHAR
STARTCHAR C022500
ENCODING 9536
SWIDTH 2400 0
DWIDTH 24 0
BBX 1 1 24 0
BITMAP
80
ENDCHAR
STARTCHAR C022501
ENCODING 9537
SWIDTH 2400 0
DWIDTH 24 0
BBX 20 16 2 0
BITMAP
000700
000F00
000F80
001B80
003380
006380
006180
00C180
018180
01FF80
030180
0601C0
0C01C0
0C01C0
1801C0
FE07F0
ENDCHAR
STARTCHAR C022502
ENCODING 9538
SWIDTH 2400 0
DWIDTH 24 0
BBX 18 16 3 0
BITMAP
07FF80
01C0C0
0180C0
0380C0
0300C0
030180
070700
07FC00
060700
060380
0E0180
0C0180
0C0380
1C0300
1C0E00
FFF800
ENDCHAR
STARTCHAR C022503
ENCODING 9539
SWIDTH 2400 0
DWIDTH 24 0
BBX 18 16 4 0
BITMAP
0FFFC0
030380
030180
070180
070000
060000
060000
0E0000
0E0000
0C0000
0C0000
1C0000
180000
180000
380000
FE0000
ENDCHAR
STARTCHAR C022504
ENCODING 9540
SWIDTH 2400 0
DWIDTH 24 0
BBX 17 16 4 0
BITMAP
000380
000700
000F00
001B00
003300
006300
00C700
018700
030600
060600
0C0600
180600
300600
300E00
7FFE00
FFFC00
ENDCHAR
STARTCHAR C022505
ENCODING 9541
SWIDTH 2400 0
DWIDTH 24 0
BBX 19 16 3 0
BITMAP
07FFC0
0180C0
0180E0
038060
030000
030C00
070C00
07FC00
063800
0E1800
0C1800
0C0000
1C0180
1C0300
180F00
FFFE00
ENDCHAR
STARTCHAR C022506
ENCODING 9542
SWIDTH 2400 0
DWIDTH 24 0
BBX 17 16 4 0
BITMAP
07FF80
0F8300
0E0600
1C0C00
001800
003000
006000
00C000
018000
030000
060000
0E0000
1C0C00
381C00
703800
FFF800
ENDCHAR
STARTCHAR C022507
ENCODING 9543
SWIDTH 2400 0
DWIDTH 24 0
BBX 21 16 2 0
BITMAP
0FE1F8
0380E0
0300C0
0300C0
0701C0
060180
060180
0FFF80
0C0300
0C0300
1C0700
180700
180600
380E00
380E00
FE7F80
ENDCHAR
STARTCHAR C022510
ENCODING 9544
SWIDTH 2400 0
DWIDTH 24 0
BBX 16 18 5 -1
BITMAP
01F0
071C
1C06
3806
3006
7007
6037
EEE6
CFE6
CCE6
D80E
C00C
C01C
C018
E030
6060
3FC0
0600
ENDCHAR
STARTCHAR C022511
ENCODING 9545
SWIDTH 2400 0
DWIDTH 24 0
BBX 12 16 6 0
BITMAP
07F0
01C0
0180
0180
0380
0300
0300
0700
0600
0600
0E00
0E00
0C00
0C00
1C00
FF00
ENDCHAR
STARTCHAR C022512
ENCODING 9546
SWIDTH 2400 0
DWIDTH 24 0
BBX 21 16 2 0
BITMAP
0FF3F8
03C0E0
038180
030300
030E00
071800
077000
07F000
0F3800
0C1800
0C1C00
1C0C00
180E00
180600
380700
FE3FC0
ENDCHAR
STARTCHAR C022513
ENCODING 9547
SWIDTH 2400 0
DWIDTH 24 0
BBX 18 16 3 0
BITMAP
000E00
001E00
003E00
003600
006600
00C600
00C600
018600
030600
030600
060600
0C0700
0C0700
180700
380700
FE3FC0
ENDCHAR
STARTCHAR C022514
ENCODING 9548
SWIDTH 2400 0
DWIDTH 24 0
BBX 23 16 1 0
BITMAP
07C03E
01C078
03C078
03C0F0
03C1B0
06C1F0
06C370
06C660
0CC660
0CCCE0
0CD8C0
18F0C0
18F1C0
18E180
30C380
FCCFE0
ENDCHAR
STARTCHAR C022515
ENCODING 9549
SWIDTH 2400 0
DWIDTH 24 0
BBX 21 16 2 0
BITMAP
0F80F8
038060
03C060
03C0C0
06E0C0
0660C0
066180
0C7180
0C3180
0C3B00
181B00
181B00
181F00
180E00
380E00
FE0600
ENDCHAR
STARTCHAR C022516
ENCODING 9550
SWIDTH 2400 0
DWIDTH 24 0
BBX 17 16 4 0
BITMAP
0FFF80
0C0180
180180
180000
000000
060C00
0E1800
0FF800
0C3800
001800
000000
000600
C00C00
C00C00
E01C00
FFF800
ENDCHAR
STARTCHAR C022517
ENCODING 9551
SWIDTH 2400 0
DWIDTH 24 0
BBX 15 17 5 0
BITMAP
01F0
071C
0C0C
1806
3806
7006
7006
6006
E00E
E00E
C00C
C01C
C018
E038
6070
70E0
3F80
ENDCHAR
STARTCHAR C022520
ENCODING 9552
SWIDTH 2400 0
DWIDTH 24 0
BBX 21 16 2 0
BITMAP
07FFF8
0180C0
0180C0
0381C0
030180
030180
070380
060380
060300
0E0700
0C0700
0C0600
1C0600
180E00
180C00
FE7F00
ENDCHAR
STARTCHAR C022521
ENCODING 9553
SWIDTH 2400 0
DWIDTH 24 0
BBX 18 16 4 0
BITMAP
0FFE00
038380
030180
0301C0
070180
060380
060F00
0FFC00
0C0000
0C0000
1C0000
180000
180000
180000
380000
FE0000
ENDCHAR
STARTCHAR C022522
ENCODING 9554
SWIDTH 2400 0
DWIDTH 24 0
BBX 17 16 4 0
BITMAP
07FF80
070380
030180
038180
018000
01C000
00E000
00E000
006000
01C000
030000
060600
1C0C00
300C00
603C00
FFF800
ENDCHAR
STARTCHAR C022523
ENCODING 9555
SWIDTH 2400 0
DWIDTH 24 0
BBX 17 16 4 0
BITMAP
3FFF80
70E780
E0C180
C1C180
018000
018000
038000
030000
030000
070000
060000
060000
0E0000
0C0000
0C0000
7F8000
ENDCHAR
STARTCHAR C022524
ENCODING 9556
SWIDTH 2400 0
DWIDTH 24 0
BBX 17 17 4 0
BITMAP
1E0780
7F1F80
033780
03E000
03C000
038000
038000
030000
070000
060000
060000
0E0000
0C0000
0C0000
1C0000
1C0000
FF0000
ENDCHAR
STARTCHAR C022525
ENCODING 9557
SWIDTH 2400 0
DWIDTH 24 0
BBX 15 16 5 0
BITMAP
03F8
01E0
0FF8
18CC
31C6
7186
6186
E386
C30E
C30E
C71C
E71C
6638
3EE0
0FC0
7F00
ENDCHAR
STARTCHAR C022526
ENCODING 9558
SWIDTH 2400 0
DWIDTH 24 0
BBX 23 16 1 0
BITMAP
07F8FE
01C070
00C0C0
00E180
006300
007600
003C00
003800
007800
00DC00
018C00
030E00
060600
0C0700
3C0780
FF1FE0
ENDCHAR
STARTCHAR C022527
ENCODING 9559
SWIDTH 2400 0
DWIDTH 24 0
BBX 18 17 4 0
BITMAP
300780
FBFFC0
1DCFC0
19CC00
398C00
319C00
739800
631800
E31800
E73800
673800
76F000
1FC000
0E0000
0C0000
1C0000
7F8000
ENDCHAR
STARTCHAR C022530
ENCODING 9560
SWIDTH 2400 0
DWIDTH 24 0
BBX 19 16 3 0
BITMAP
007F00
01C1C0
0300C0
0600E0
0C00E0
0C00E0
1C00E0
1C00C0
1C01C0
0C0380
0E0700
073E00
037000
636180
E36300
FEFF00
ENDCHAR
STARTCHAR C022531
ENCODING 9561
SWIDTH 2400 0
DWIDTH 24 0
BBX 0 0 0 0
BITMAP
ENDCHAR
STARTCHAR C022532
ENCODING 9562
SWIDTH 2400 0
DWIDTH 24 0
BBX 0 0 0 0
BITMAP
ENDCHAR
STARTCHAR C022533
ENCODING 9563
SWIDTH 2400 0
DWIDTH 24 0
BBX 0 0 0 0
BITMAP
ENDCHAR
STARTCHAR C022534
ENCODING 9564
SWIDTH 2400 0
DWIDTH 24 0
BBX 1 4 24 -2
BITMAP
80
00
00
80
ENDCHAR
STARTCHAR C022535
ENCODING 9565
SWIDTH 2400 0
DWIDTH 24 0
BBX 0 0 0 0
BITMAP
ENDCHAR
STARTCHAR C022536
ENCODING 9566
SWIDTH 2400 0
DWIDTH 24 0
BBX 0 0 0 0
BITMAP
ENDCHAR
STARTCHAR C022537
ENCODING 9567
SWIDTH 2400 0
DWIDTH 24 0
BBX 0 0 0 0
BITMAP
ENDCHAR
STARTCHAR C022540
ENCODING 9568
SWIDTH 2400 0
DWIDTH 24 0
BBX 1 4 24 1
BITMAP
80
80
80
80
ENDCHAR
STARTCHAR C022541
ENCODING 9569
SWIDTH 2400 0
DWIDTH 24 0
BBX 13 11 6 0
BITMAP
0798
0CF8
18F0
30F0
71E0
61E0
E1C0
C180
C380
E780
7DE0
ENDCHAR
STARTCHAR C022542
ENCODING 9570
SWIDTH 2400 0
DWIDTH 24 0
BBX 15 19 5 -3
BITMAP
00FC
018C
030E
060E
060E
061C
0C18
0FF0
0C30
1838
1818
1838
3838
3830
3C70
77E0
7000
6000
E000
ENDCHAR
STARTCHAR C022543
ENCODING 9571
SWIDTH 2400 0
DWIDTH 24 0
BBX 11 14 7 -3
BITMAP
7860
F8E0
1CC0
0D80
0F00
0E00
0C00
0C00
1800
3800
3800
7000
7000
E000
ENDCHAR
STARTCHAR C022544
ENCODING 9572
SWIDTH 2400 0
DWIDTH 24 0
BBX 11 17 7 0
BITMAP
0600
0F80
19C0
18E0
0C60
0660
0300
1F00
3180
61C0
C1C0
C1C0
C1C0
C180
C380
E700
7C00
ENDCHAR
STARTCHAR C022545
ENCODING 9573
SWIDTH 2400 0
DWIDTH 24 0
BBX 11 11 7 0
BITMAP
0F80
3FE0
3000
3000
3000
7F00
C000
C000
C000
F1C0
7F00
ENDCHAR
STARTCHAR C022546
ENCODING 9574
SWIDTH 2400 0
DWIDTH 24 0
BBX 11 19 7 -3
BITMAP
3800
70E0
73C0
3F80
1C00
3000
3000
6000
C000
C000
C000
C000
E000
7C00
3F00
0300
0300
7600
7E00
ENDCHAR
STARTCHAR C022547
ENCODING 9575
SWIDTH 2400 0
DWIDTH 24 0
BBX 11 14 7 -3
BITMAP
7BC0
7EE0
1C60
18E0
18C0
30C0
71C0
7180
E380
E300
0700
0700
0E00
0E00
ENDCHAR
STARTCHAR C022550
ENCODING 9576
SWIDTH 2400 0
DWIDTH 24 0
BBX 12 17 7 0
BITMAP
03C0
0660
0C60
1870
3860
3060
7060
60E0
7FE0
E0C0
C0C0
C180
C180
C300
C300
C600
7C00
ENDCHAR
STARTCHAR C022551
ENCODING 9577
SWIDTH 2400 0
DWIDTH 24 0
BBX 7 11 9 0
BITMAP
0E
1C
1C
38
30
70
60
60
C6
EC
78
ENDCHAR
STARTCHAR C022552
ENCODING 9578
SWIDTH 2400 0
DWIDTH 24 0
BBX 11 11 7 0
BITMAP
1CE0
19E0
3B00
3E00
3600
7C00
6E00
6600
E600
EF80
C780
ENDCHAR
STARTCHAR C022553
ENCODING 9579
SWIDTH 2400 0
DWIDTH 24 0
BBX 11 16 7 0
BITMAP
0780
03C0
00C0
00C0
00C0
00C0
01C0
03C0
07C0
06C0
0CC0
1CC0
38C0
30E0
70E0
E060
ENDCHAR
STARTCHAR C022554
ENCODING 9580
SWIDTH 2400 0
DWIDTH 24 0
BBX 13 13 6 -3
BITMAP
0618
0E18
1C38
1C38
1870
3870
3860
30C0
30F8
7FF0
6000
E000
E000
ENDCHAR
STARTCHAR C022555
ENCODING 9581
SWIDTH 2400 0
DWIDTH 24 0
BBX 11 11 7 0
BITMAP
7060
7060
7060
30C0
30C0
3180
6180
6700
6E00
FC00
F000
ENDCHAR
STARTCHAR C022556
ENCODING 9582
SWIDTH 2400 0
DWIDTH 24 0
BBX 13 20 6 -3
BITMAP
01C0
07E0
0600
07F8
0FF8
1800
3000
3000
1800
1FF0
30C0
6000
C000
C000
C000
FE00
3F80
0180
0380
0F00
ENDCHAR
STARTCHAR C022557
ENCODING 9583
SWIDTH 2400 0
DWIDTH 24 0
BBX 11 12 7 -1
BITMAP
0F80
18C0
30E0
70E0
60E0
E0E0
C0C0
C0C0
E180
6300
3E00
1800
ENDCHAR
STARTCHAR C022560
ENCODING 9584
SWIDTH 2400 0
DWIDTH 24 0
BBX 13 10 6 0
BITMAP
3FF8
6CF8
CD80
1980
1980
3300
3300
7300
E380
E3C0
ENDCHAR
STARTCHAR C022561
ENCODING 9585
SWIDTH 2400 0
DWIDTH 24 0
BBX 12 13 7 -3
BITMAP
03C0
0E60
1870
3870
7070
7070
7060
F0E0
F1C0
DF80
C000
C000
C000
ENDCHAR
STARTCHAR C022562
ENCODING 9586
SWIDTH 2400 0
DWIDTH 24 0
BBX 13 12 6 0
BITMAP
0078
07F8
1F80
38C0
70E0
60E0
60E0
E0E0
E0C0
61C0
6380
3E00
ENDCHAR
STARTCHAR C022563
ENCODING 9587
SWIDTH 2400 0
DWIDTH 24 0
BBX 10 11 8 0
BITMAP
3DC0
FF80
D800
1800
3000
3000
7000
6000
6000
FC00
7800
ENDCHAR
STARTCHAR C022564
ENCODING 9588
SWIDTH 2400 0
DWIDTH 24 0
BBX 11 12 7 -1
BITMAP
39C0
38E0
38E0
38E0
30C0
70C0
61C0
C180
C300
C600
7C00
3000
ENDCHAR
STARTCHAR C022565
ENCODING 9589
SWIDTH 2400 0
DWIDTH 24 0
BBX 13 13 6 -3
BITMAP
0660
3DF0
7398
E318
C618
C618
C630
EC60
7DC0
3F80
1800
1800
3800
ENDCHAR
STARTCHAR C022566
ENCODING 9590
SWIDTH 2400 0
DWIDTH 24 0
BBX 13 14 6 -3
BITMAP
1E38
3E38
3770
03E0
03C0
0380
0300
0700
0F00
1F00
3B00
7330
F3F0
E1E0
ENDCHAR
STARTCHAR C022567
ENCODING 9591
SWIDTH 2400 0
DWIDTH 24 0
BBX 13 19 6 -3
BITMAP
00E0
00C0
01C0
01C0
0180
19B8
3B38
7338
6338
E630
E630
E660
EC60
7DC0
1F00
1800
1800
3800
3800
ENDCHAR
STARTCHAR C022570
ENCODING 9592
SWIDTH 2400 0
DWIDTH 24 0
BBX 15 11 5 0
BITMAP
070C
1C0C
38C6
31C6
71C6
61C6
E38E
E38C
E31C
6738
3DF0
ENDCHAR
STARTCHAR C022571
ENCODING 9593
SWIDTH 2400 0
DWIDTH 24 0
BBX 0 0 0 0
BITMAP
ENDCHAR
STARTCHAR C022572
ENCODING 9594
SWIDTH 2400 0
DWIDTH 24 0
BBX 1 4 24 -2
BITMAP
80
00
00
80
ENDCHAR
STARTCHAR C022573
ENCODING 9595
SWIDTH 2400 0
DWIDTH 24 0
BBX 0 0 0 0
BITMAP
ENDCHAR
STARTCHAR C022574
ENCODING 9596
SWIDTH 2400 0
DWIDTH 24 0
BBX 0 0 0 0
BITMAP
ENDCHAR
STARTCHAR C022575
ENCODING 9597
SWIDTH 2400 0
DWIDTH 24 0
BBX 0 0 0 0
BITMAP
ENDCHAR
STARTCHAR C022576
ENCODING 9598
SWIDTH 2400 0
DWIDTH 24 0
BBX 0 0 0 0
BITMAP
ENDCHAR
STARTCHAR C022577
ENCODING 9599
SWIDTH 2400 0
DWIDTH 24 0
BBX 1 21 24 -4
BITMAP
80
00
00
80
00
00
00
00
00
00
00
00
80
00
00
00
00
00
00
00
80
ENDCHAR
STARTCHAR C023040
ENCODING 9760
SWIDTH 2400 0
DWIDTH 24 0
BBX 1 1 24 7
BITMAP
80
ENDCHAR
STARTCHAR C023041
ENCODING 9761
SWIDTH 2400 0
DWIDTH 24 0
BBX 24 1 0 7
BITMAP
FFFFFF
ENDCHAR
STARTCHAR C023042
ENCODING 9762
SWIDTH 2400 0
DWIDTH 24 0
BBX 0 0 0 0
BITMAP
ENDCHAR
STARTCHAR C023043
ENCODING 9763
SWIDTH 2400 0
DWIDTH 24 0
BBX 12 1 12 7
BITMAP
FFF0
ENDCHAR
STARTCHAR C023044
ENCODING 9764
SWIDTH 2400 0
DWIDTH 24 0
BBX 25 23 0 -5
BITMAP
00000080
00000080
00000000
00000000
00000000
00000000
00000000
00000000
00000000
00000000
FFF80000
00180000
00180000
00180000
00180000
00180000
00180000
00180000
00180000
00180000
00180000
00180000
00180000
ENDCHAR
STARTCHAR C023045
ENCODING 9765
SWIDTH 2400 0
DWIDTH 24 0
BBX 25 12 0 7
BITMAP
00180000
00180000
00180000
00180000
00180000
00180000
00180000
00180000
00180000
00180000
00180000
FFF80080
ENDCHAR
STARTCHAR C023046
ENCODING 9766
SWIDTH 2400 0
DWIDTH 24 0
BBX 12 1 12 7
BITMAP
FFF0
ENDCHAR
STARTCHAR C023047
ENCODING 9767
SWIDTH 2400 0
DWIDTH 24 0
BBX 12 1 12 7
BITMAP
FFF0
ENDCHAR
STARTCHAR C023050
ENCODING 9768
SWIDTH 2400 0
DWIDTH 24 0
BBX 25 13 0 -5
BITMAP
FFFFFF80
00180000
00180000
00180000
00180000
00180000
00180000
00180000
00180000
00180000
00180000
00180000
00180000
ENDCHAR
STARTCHAR C023051
ENCODING 9769
SWIDTH 2400 0
DWIDTH 24 0
BBX 25 24 0 -5
BITMAP
00180000
00180000
00180000
00180000
00180000
00180000
00180000
00180000
00180000
00180000
00180000
FFF80000
00180000
00180000
00180000
00180000
00180000
00180080
00180000
00180000
00180080
00180000
00180000
00180000
ENDCHAR
STARTCHAR C023052
ENCODING 9770
SWIDTH 2400 0
DWIDTH 24 0
BBX 25 12 0 7
BITMAP
00180000
00180000
00180000
00180000
00180000
00180000
00180000
00180000
00180000
00180000
00180000
FFFFFF80
ENDCHAR
STARTCHAR C023053
ENCODING 9771
SWIDTH 2400 0
DWIDTH 24 0
BBX 25 24 0 -5
BITMAP
00180000
00180000
00180000
00180000
00180000
00180000
00180000
00180000
00180000
00180000
00180000
FFFFFF80
00180080
00180000
00180000
00180000
00180000
00180000
00180000
00180000
00180000
00180000
00180000
00180000
ENDCHAR
STARTCHAR C023054
ENCODING 9772
SWIDTH 2400 0
DWIDTH 24 0
BBX 25 24 0 -5
BITMAP
00000080
00000080
00000080
00000080
00000080
00000080
00000080
00000080
00000080
00000080
00000080
FFFFFF80
FFFFFF80
00000080
00000080
00000080
00000080
00000080
00000080
00000080
00000080
00000080
00000080
00000080
ENDCHAR
STARTCHAR C023055
ENCODING 9773
SWIDTH 2400 0
DWIDTH 24 0
BBX 2 24 11 -5
BITMAP
C0
C0
C0
C0
C0
C0
C0
C0
C0
C0
C0
C0
C0
C0
C0
C0
C0
C0
C0
C0
C0
C0
C0
C0
ENDCHAR
STARTCHAR C023056
ENCODING 9774
SWIDTH 2400 0
DWIDTH 24 0
BBX 13 13 11 -5
BITMAP
FFF8
FFF8
C000
C000
C000
C000
C000
C000
C000
C000
C000
C000
C000
ENDCHAR
STARTCHAR C023057
ENCODING 9775
SWIDTH 2400 0
DWIDTH 24 0
BBX 25 13 0 -5
BITMAP
FFF80080
FFF80080
00180000
00180000
00180000
00180000
00180000
00180000
00180000
00180000
00180000
00180000
00180000
ENDCHAR
STARTCHAR C023060
ENCODING 9776
SWIDTH 2400 0
DWIDTH 24 0
BBX 25 13 0 6
BITMAP
00180080
00180080
00180080
00180080
00180080
00180080
00180080
00180080
00180080
00180080
00180080
FFF80080
FFF80080
ENDCHAR
STARTCHAR C023061
ENCODING 9777
SWIDTH 2400 0
DWIDTH 24 0
BBX 13 13 11 6
BITMAP
C000
C000
C000
C000
C000
C000
C000
C000
C000
C000
C000
FFF8
FFF8
ENDCHAR
STARTCHAR C023062
ENCODING 9778
SWIDTH 2400 0
DWIDTH 24 0
BBX 14 24 11 -5
BITMAP
C000
C000
C000
C000
C000
C000
C000
C000
C000
C000
C000
FFF8
FFF8
C000
C000
C000
C000
C000
C000
C000
C000
C000
C000
C000
ENDCHAR
STARTCHAR C023063
ENCODING 9779
SWIDTH 2400 0
DWIDTH 24 0
BBX 25 23 0 -5
BITMAP
00000080
00000080
00000000
00000000
00000000
00000000
00000000
00000000
00000000
00000000
FFFFFF00
FFFFFF00
00180000
00180000
00180000
00180000
00180000
00180000
00180000
00180000
00180000
00180000
00180000
ENDCHAR
STARTCHAR C023064
ENCODING 9780
SWIDTH 2400 0
DWIDTH 24 0
BBX 13 24 0 -5
BITMAP
0018
0018
0018
0018
0018
0018
0018
0018
0018
0018
0018
FFF8
FFF8
0018
0018
0018
0018
0018
0018
0018
0018
0018
0018
0018
ENDCHAR
STARTCHAR C023065
ENCODING 9781
SWIDTH 2400 0
DWIDTH 24 0
BBX 23 13 1 6
BITMAP
001800
001800
001800
001800
001800
001800
001800
001800
001800
001800
001800
FFFFFE
FFFFFE
ENDCHAR
STARTCHAR C023066
ENCODING 9782
SWIDTH 2400 0
DWIDTH 24 0
BBX 24 24 1 -5
BITMAP
001801
001801
001801
001801
001801
001801
001801
001801
001801
001801
001801
FFFFFF
FFFFFF
001801
001801
001801
001801
001801
001801
001801
001801
001801
001801
001801
ENDCHAR
STARTCHAR C023067
ENCODING 9783
SWIDTH 2400 0
DWIDTH 24 0
BBX 14 24 11 -5
BITMAP
C000
C000
C000
C000
C000
C000
C000
C000
C000
C000
C000
FFF8
C000
C000
C000
C000
C000
C000
C000
C000
C000
C000
C000
C000
ENDCHAR
STARTCHAR C023070
ENCODING 9784
SWIDTH 2400 0
DWIDTH 24 0
BBX 25 13 0 -5
BITMAP
FFFFFF00
FFFFFF00
00180000
00180000
00180000
00180000
00180080
00180000
00180000
00180080
00180000
00180000
00180000
ENDCHAR
STARTCHAR C023071
ENCODING 9785
SWIDTH 2400 0
DWIDTH 24 0
BBX 24 24 1 -5
BITMAP
001800
001800
001800
001800
001800
001800
001800
001800
001800
001800
001800
FFF801
001801
001800
001800
001800
001800
001800
001800
001800
001800
001800
001800
001800
ENDCHAR
STARTCHAR C023072
ENCODING 9786
SWIDTH 2400 0
DWIDTH 24 0
BBX 25 13 0 6
BITMAP
00180000
00180000
00180000
00180000
00180000
00180000
00180000
00180000
00180000
00180000
00180000
FFFFFF80
FFFFFF80
ENDCHAR
STARTCHAR C023073
ENCODING 9787
SWIDTH 2400 0
DWIDTH 24 0
BBX 25 24 0 -5
BITMAP
00180000
00180000
00180000
00180000
00180000
00180000
00180000
00180000
00180000
00180000
00180000
FFFFFF80
FFFFFF80
00180000
00180000
00180000
00180000
00180000
00180000
00180000
00180000
00180000
00180000
00180000
ENDCHAR
STARTCHAR C023074
ENCODING 9788
SWIDTH 2400 0
DWIDTH 24 0
BBX 12 2 12 6
BITMAP
FFF0
FFF0
ENDCHAR
STARTCHAR C023075
ENCODING 9789
SWIDTH 2400 0
DWIDTH 24 0
BBX 25 22 0 -5
BITMAP
00000080
00000000
00000000
00000080
00000000
00000000
00000000
00000000
00000000
FFFFFF00
00180000
00180000
00180080
00180000
00180000
00180000
00180000
00180000
00180000
00180000
00180080
00180000
ENDCHAR
STARTCHAR C023076
ENCODING 9790
SWIDTH 2400 0
DWIDTH 24 0
BBX 25 24 0 -5
BITMAP
00180000
00180000
00180000
00180000
00180000
00180000
00180000
00180000
00180000
00180000
00180000
FFF80080
FFF80000
00180000
00180000
00180000
00180000
00180000
00180000
00180000
00180000
00180000
00180000
00180000
ENDCHAR
STARTCHAR C023077
ENCODING 9791
SWIDTH 2400 0
DWIDTH 24 0
BBX 25 12 0 7
BITMAP
00180000
00180000
00180000
00180000
00180000
00180000
00180000
00180000
00180000
00180000
00180000
FFFFFF80
ENDCHAR
STARTCHAR C023100
ENCODING 9792
SWIDTH 2400 0
DWIDTH 24 0
BBX 25 24 0 -5
BITMAP
00180000
00180000
00180000
00180000
00180000
00180000
00180000
00180000
00180000
00180000
00180000
FFFFFF80
00180000
00180000
00180000
00180000
00180000
00180000
00180000
00180000
00180000
00180000
00180000
00180000
ENDCHAR
STARTCHAR C023101
ENCODING 9793
SWIDTH 2400 0
DWIDTH 24 0
BBX 25 13 0 -5
BITMAP
FFF80080
00180080
00180000
00180000
00180000
00180000
00180000
00180000
00180000
00180000
00180000
00180000
00180000
ENDCHAR
STARTCHAR C023102
ENCODING 9794
SWIDTH 2400 0
DWIDTH 24 0
BBX 25 23 0 -5
BITMAP
00000080
00000080
00000000
00000000
00000000
00000000
00000000
00000000
00000000
00000000
FFF80000
FFF80000
00180000
00180000
00180000
00180000
00180000
00180000
00180000
00180000
00180000
00180000
00180000
ENDCHAR
STARTCHAR C023103
ENCODING 9795
SWIDTH 2400 0
DWIDTH 24 0
BBX 25 13 0 6
BITMAP
00180000
00180000
00180000
00180000
00180000
00180000
00180000
00180000
00180000
00180000
00180000
FFF80080
00000080
ENDCHAR
STARTCHAR C023104
ENCODING 9796
SWIDTH 2400 0
DWIDTH 24 0
BBX 25 13 0 6
BITMAP
000C0080
000C0080
000C0080
000C0080
000C0080
000C0080
000C0080
000C0080
000C0080
000C0080
000C0080
FFFC0080
FFFC0000
ENDCHAR
STARTCHAR C023105
ENCODING 9797
SWIDTH 2400 0
DWIDTH 24 0
BBX 13 12 11 7
BITMAP
C000
C000
C000
C000
C000
C000
C000
C000
C000
C000
C000
FFF8
ENDCHAR
STARTCHAR C023106
ENCODING 9798
SWIDTH 2400 0
DWIDTH 24 0
BBX 12 2 12 6
BITMAP
FFF0
FFF0
ENDCHAR
STARTCHAR C023107
ENCODING 9799
SWIDTH 2400 0
DWIDTH 24 0
BBX 12 13 12 -5
BITMAP
FFF0
C000
C000
C000
C000
C000
C000
C000
C000
C000
C000
C000
C000
ENDCHAR
STARTCHAR C023110
ENCODING 9800
SWIDTH 2400 0
DWIDTH 24 0
BBX 12 2 12 6
BITMAP
FFF0
FFF0
ENDCHAR
STARTCHAR C023111
ENCODING 9801
SWIDTH 2400 0
DWIDTH 24 0
BBX 14 24 11 -5
BITMAP
6000
6000
6000
6000
6000
6000
6000
6000
6000
6000
6000
7FF8
C000
C000
C000
C000
C000
C000
C000
C000
C000
C000
C000
C000
ENDCHAR
STARTCHAR C023112
ENCODING 9802
SWIDTH 2400 0
DWIDTH 24 0
BBX 14 24 11 -5
BITMAP
6000
6000
6000
6000
6000
6000
6000
6000
6000
6000
6000
7FF8
C000
C000
C000
C000
C000
C000
C000
C000
C000
C000
C000
C000
ENDCHAR
STARTCHAR C023113
ENCODING 9803
SWIDTH 2400 0
DWIDTH 24 0
BBX 14 24 11 -5
BITMAP
6000
6000
6000
6000
6000
6000
6000
6000
6000
6000
6000
7FF8
FFF8
C000
C000
C000
C000
C000
C000
C000
C000
C000
C000
C000
ENDCHAR
STARTCHAR C023114
ENCODING 9804
SWIDTH 2400 0
DWIDTH 24 0
BBX 14 24 11 -5
BITMAP
6000
6000
6000
6000
6000
6000
6000
6000
6000
6000
6000
7FF8
FFF8
C000
C000
C000
C000
C000
C000
C000
C000
C000
C000
C000
ENDCHAR
STARTCHAR C023115
ENCODING 9805
SWIDTH 2400 0
DWIDTH 24 0
BBX 25 24 0 -5
BITMAP
00180000
00180000
00180000
00180000
00180000
00180000
00180000
00180000
00180000
00180000
00180000
FFF80080
00180000
00180000
00180000
00180000
00180000
00180000
00180000
00180000
00180000
00180000
00180000
00180000
ENDCHAR
STARTCHAR C023116
ENCODING 9806
SWIDTH 2400 0
DWIDTH 24 0
BBX 25 24 0 -5
BITMAP
000C0000
000C0000
000C0000
000C0000
000C0000
000C0000
000C0000
000C0000
000C0000
000C0000
000C0000
FFFC0080
00180080
00180000
00180000
00180000
00180000
00180000
00180000
00180000
00180000
00180000
00180000
00180000
ENDCHAR
STARTCHAR C023117
ENCODING 9807
SWIDTH 2400 0
DWIDTH 24 0
BBX 14 24 0 -5
BITMAP
0018
0018
0018
0018
0018
0018
0018
0018
0018
0018
0018
FFF8
FFFC
000C
000C
000C
000C
000C
000C
000C
000C
000C
000C
000C
ENDCHAR
STARTCHAR C023120
ENCODING 9808
SWIDTH 2400 0
DWIDTH 24 0
BBX 24 24 1 -5
BITMAP
003000
003000
003000
003000
003000
003000
003000
003000
003000
003000
003000
FFF001
FFF801
001800
001800
001800
001800
001800
001800
001800
001800
001800
001800
001800
ENDCHAR
STARTCHAR C023121
ENCODING 9809
SWIDTH 2400 0
DWIDTH 24 0
BBX 25 23 0 -5
BITMAP
00000080
00000080
00000000
00000000
00000000
00000000
00000000
00000000
00000000
00000000
FFFFFF00
FFF80000
00180000
00180000
00180000
00180000
00180000
00180000
00180000
00180000
00180000
00180000
00180000
ENDCHAR
STARTCHAR C023122
ENCODING 9810
SWIDTH 2400 0
DWIDTH 24 0
BBX 25 13 0 -5
BITMAP
FFFFFF80
001FFF80
00180000
00180000
00180000
00180000
00180000
00180000
00180000
00180000
00180000
00180000
00180000
ENDCHAR
STARTCHAR C023123
ENCODING 9811
SWIDTH 2400 0
DWIDTH 24 0
BBX 25 13 0 -5
BITMAP
FFFFFF80
FFF80000
00180000
00180000
00180000
00180000
00180000
00180000
00180000
00180000
00180000
00180000
00180000
ENDCHAR
STARTCHAR C023124
ENCODING 9812
SWIDTH 2400 0
DWIDTH 24 0
BBX 25 13 0 -5
BITMAP
FFFFFF80
001FFF80
00180000
00180000
00180000
00180000
00180000
00180000
00180000
00180000
00180000
00180000
00180000
ENDCHAR
STARTCHAR C023125
ENCODING 9813
SWIDTH 2400 0
DWIDTH 24 0
BBX 25 13 0 6
BITMAP
00180000
00180000
00180000
00180000
00180000
00180000
00180000
00180000
00180000
00180000
00180000
FFFFFF80
FFF80000
ENDCHAR
STARTCHAR C023126
ENCODING 9814
SWIDTH 2400 0
DWIDTH 24 0
BBX 25 21 0 -2
BITMAP
00180000
00180000
00180000
00180000
00180000
00180000
00180000
00180000
00180000
00180000
00180000
FFFFFF00
000FFF00
00000000
00000000
00000000
00000000
00000080
00000000
00000000
00000080
ENDCHAR
STARTCHAR C023127
ENCODING 9815
SWIDTH 2400 0
DWIDTH 24 0
BBX 25 13 0 6
BITMAP
00180000
00180000
00180000
00180000
00180000
00180000
00180000
00180000
00180000
00180000
00180000
FFFFFF80
FFF80000
ENDCHAR
STARTCHAR C023130
ENCODING 9816
SWIDTH 2400 0
DWIDTH 24 0
BBX 25 13 0 6
BITMAP
00180000
00180000
00180000
00180000
00180000
00180000
00180000
00180000
00180000
00180000
00180000
FFFFFF80
001FFF80
ENDCHAR
STARTCHAR C023131
ENCODING 9817
SWIDTH 2400 0
DWIDTH 24 0
BBX 25 24 0 -5
BITMAP
00180000
00180000
00180000
00180000
00180000
00180000
00180000
00180000
00180000
00180000
00180000
FFFFFF80
FFF80000
00180000
00180000
00180000
00180000
00180000
00180000
00180000
00180000
00180000
00180000
00180000
ENDCHAR
STARTCHAR C023132
ENCODING 9818
SWIDTH 2400 0
DWIDTH 24 0
BBX 25 24 0 -5
BITMAP
00180000
00180000
00180000
00180000
00180000
00180000
00180000
00180000
00180000
00180000
00180000
FFFFFF80
001FFF00
00180000
00180000
00180000
00180000
00180000
00180000
00180000
00180000
00180000
00180000
00180000
ENDCHAR
STARTCHAR C023133
ENCODING 9819
SWIDTH 2400 0
DWIDTH 24 0
BBX 25 24 0 -5
BITMAP
00180000
00180000
00180080
00180000
00180000
00180080
00180000
00180000
00180000
00180000
00180000
FFFFFF00
00180000
00180000
00180080
00180000
00180000
00180000
00180000
00180000
00180000
00180000
00180080
00180000
ENDCHAR
STARTCHAR C023134
ENCODING 9820
SWIDTH 2400 0
DWIDTH 24 0
BBX 25 24 0 -5
BITMAP
00180000
00180000
00180000
00180000
00180000
00180000
00180000
00180000
00180000
00180000
00180000
FFFFFF80
00180080
00180000
00180000
00180000
00180000
00180000
00180000
00180000
00180000
00180000
00180000
00180000
ENDCHAR
STARTCHAR C023135
ENCODING 9821
SWIDTH 2400 0
DWIDTH 24 0
BBX 25 24 0 -5
BITMAP
00180000
00180000
00180000
00180000
00180000
00180000
00180000
00180000
00180000
00180000
00180000
FFFFFF80
FFFC0000
000C0000
000C0000
000C0000
000C0000
000C0000
000C0000
000C0000
000C0000
000C0000
000C0000
000C0000
ENDCHAR
STARTCHAR C023136
ENCODING 9822
SWIDTH 2400 0
DWIDTH 24 0
BBX 25 24 0 -5
BITMAP
00180000
00180000
00180000
00180000
00180000
00180000
00180000
00180000
00180000
00180000
00180000
FFFFFF80
001FFF80
00180000
00180000
00180000
00180000
00180000
00180000
00180000
00180000
00180000
00180000
00180000
ENDCHAR
STARTCHAR C023137
ENCODING 9823
SWIDTH 2400 0
DWIDTH 24 0
BBX 25 24 0 -5
BITMAP
00180000
00180000
00180000
00180000
00180000
00180000
00180000
00180000
00180000
00180000
00180000
FFFFFF80
FFF80000
00180000
00180000
00180000
00180000
00180000
00180000
00180000
00180000
00180000
00180000
00180000
ENDCHAR
STARTCHAR C023140
ENCODING 9824
SWIDTH 2400 0
DWIDTH 24 0
BBX 25 24 0 -5
BITMAP
00180000
00180080
00180080
00180000
00180000
00180000
00180000
00180000
00180000
00180000
00180000
FFFFFF00
001FFF00
00180000
00180000
00180000
00180000
00180000
00180000
00180000
00180000
00180000
00180000
00180000
ENDCHAR
STARTCHAR C023141
ENCODING 9825
SWIDTH 2400 0
DWIDTH 24 0
BBX 24 24 1 -5
BITMAP
001800
001800
001800
001800
001800
001800
001800
001800
001800
001800
001800
FFFFFF
FFFFFF
003000
003000
003000
003000
003000
003000
003000
003000
003000
003000
003000
ENDCHAR
STARTCHAR C023142
ENCODING 9826
SWIDTH 2400 0
DWIDTH 24 0
BBX 25 24 0 -5
BITMAP
000C0000
000C0000
000C0000
000C0000
000C0000
000C0000
000C0000
000C0000
000C0000
000C0000
000C0000
FFFFFF80
FFFFFF80
00180000
00180000
00180000
00180000
00180000
00180000
00180000
00180000
00180000
00180000
00180000
ENDCHAR
STARTCHAR C023143
ENCODING 9827
SWIDTH 2400 0
DWIDTH 24 0
BBX 25 24 0 -5
BITMAP
00180000
00180000
00180000
00180000
00180000
00180000
00180000
00180000
00180000
00180000
00180000
FFFFFF80
FFF80000
00180000
00180000
00180000
00180000
00180000
00180000
00180000
00180000
00180000
00180000
00180000
ENDCHAR
STARTCHAR C023144
ENCODING 9828
SWIDTH 2400 0
DWIDTH 24 0
BBX 24 24 0 -5
BITMAP
001800
001800
001800
001800
001800
001800
001800
001800
001800
001800
001800
FFFFFF
001FFF
001800
001800
001800
001800
001800
001800
001800
001800
001800
001800
001800
ENDCHAR
STARTCHAR C023145
ENCODING 9829
SWIDTH 2400 0
DWIDTH 24 0
BBX 1 4 24 -2
BITMAP
80
00
00
80
ENDCHAR
STARTCHAR C023146
ENCODING 9830
SWIDTH 2400 0
DWIDTH 24 0
BBX 0 0 0 0
BITMAP
ENDCHAR
STARTCHAR C023147
ENCODING 9831
SWIDTH 2400 0
DWIDTH 24 0
BBX 0 0 0 0
BITMAP
ENDCHAR
STARTCHAR C023150
ENCODING 9832
SWIDTH 2400 0
DWIDTH 24 0
BBX 0 0 0 0
BITMAP
ENDCHAR
STARTCHAR C023151
ENCODING 9833
SWIDTH 2400 0
DWIDTH 24 0
BBX 0 0 0 0
BITMAP
ENDCHAR
STARTCHAR C023152
ENCODING 9834
SWIDTH 2400 0
DWIDTH 24 0
BBX 1 21 24 -4
BITMAP
80
00
00
80
00
00
00
00
00
00
00
00
80
00
00
00
00
00
00
00
80
ENDCHAR
STARTCHAR C023153
ENCODING 9835
SWIDTH 2400 0
DWIDTH 24 0
BBX 0 0 0 0
BITMAP
ENDCHAR
STARTCHAR C023154
ENCODING 9836
SWIDTH 2400 0
DWIDTH 24 0
BBX 0 0 0 0
BITMAP
ENDCHAR
STARTCHAR C023155
ENCODING 9837
SWIDTH 2400 0
DWIDTH 24 0
BBX 0 0 0 0
BITMAP
ENDCHAR
STARTCHAR C023156
ENCODING 9838
SWIDTH 2400 0
DWIDTH 24 0
BBX 0 0 0 0
BITMAP
ENDCHAR
STARTCHAR C023157
ENCODING 9839
SWIDTH 2400 0
DWIDTH 24 0
BBX 1 2 24 16
BITMAP
80
80
ENDCHAR
STARTCHAR C023160
ENCODING 9840
SWIDTH 2400 0
DWIDTH 24 0
BBX 0 0 0 0
BITMAP
ENDCHAR
STARTCHAR C023161
ENCODING 9841
SWIDTH 2400 0
DWIDTH 24 0
BBX 0 0 0 0
BITMAP
ENDCHAR
STARTCHAR C023162
ENCODING 9842
SWIDTH 2400 0
DWIDTH 24 0
BBX 0 0 0 0
BITMAP
ENDCHAR
STARTCHAR C023163
ENCODING 9843
SWIDTH 2400 0
DWIDTH 24 0
BBX 0 0 0 0
BITMAP
ENDCHAR
STARTCHAR C023164
ENCODING 9844
SWIDTH 2400 0
DWIDTH 24 0
BBX 1 4 24 -2
BITMAP
80
00
00
80
ENDCHAR
STARTCHAR C023165
ENCODING 9845
SWIDTH 2400 0
DWIDTH 24 0
BBX 0 0 0 0
BITMAP
ENDCHAR
STARTCHAR C023166
ENCODING 9846
SWIDTH 2400 0
DWIDTH 24 0
BBX 0 0 0 0
BITMAP
ENDCHAR
STARTCHAR C023167
ENCODING 9847
SWIDTH 2400 0
DWIDTH 24 0
BBX 0 0 0 0
BITMAP
ENDCHAR
STARTCHAR C023170
ENCODING 9848
SWIDTH 2400 0
DWIDTH 24 0
BBX 0 0 0 0
BITMAP
ENDCHAR
STARTCHAR C023171
ENCODING 9849
SWIDTH 2400 0
DWIDTH 24 0
BBX 1 21 24 -4
BITMAP
80
00
00
80
00
00
00
00
00
00
00
00
80
00
00
00
00
00
00
00
80
ENDCHAR
STARTCHAR C023172
ENCODING 9850
SWIDTH 2400 0
DWIDTH 24 0
BBX 0 0 0 0
BITMAP
ENDCHAR
STARTCHAR C023173
ENCODING 9851
SWIDTH 2400 0
DWIDTH 24 0
BBX 0 0 0 0
BITMAP
ENDCHAR
STARTCHAR C023174
ENCODING 9852
SWIDTH 2400 0
DWIDTH 24 0
BBX 0 0 0 0
BITMAP
ENDCHAR
STARTCHAR C023175
ENCODING 9853
SWIDTH 2400 0
DWIDTH 24 0
BBX 0 0 0 0
BITMAP
ENDCHAR
STARTCHAR C023176
ENCODING 9854
SWIDTH 2400 0
DWIDTH 24 0
BBX 1 2 24 16
BITMAP
80
80
ENDCHAR
STARTCHAR C023177
ENCODING 9855
SWIDTH 2400 0
DWIDTH 24 0
BBX 0 0 0 0
BITMAP
ENDCHAR
STARTCHAR C023440
ENCODING 10016
SWIDTH 2400 0
DWIDTH 24 0
BBX 1 2 24 -4
BITMAP
80
80
ENDCHAR
STARTCHAR C023441
ENCODING 10017
SWIDTH 2400 0
DWIDTH 24 0
BBX 23 21 1 -4
BITMAP
00001C
00003C
000066
000066
0000CC
0000CC
060CCC
0E1CD8
0E1CD8
1C18F0
1C38F0
1838E0
3871C0
3073E2
306066
30EC66
79F83C
6F0000
600000
E00000
C00000
ENDCHAR
STARTCHAR C023442
ENCODING 10018
SWIDTH 2400 0
DWIDTH 24 0
BBX 23 18 1 -1
BITMAP
000038
000078
0000CC
0000CC
00019C
000198
0EE198
7FB198
6631B0
6631E0
6631E0
6631C0
663180
6633C6
663ECC
6630CC
F67078
000030
ENDCHAR
STARTCHAR C023443
ENCODING 10019
SWIDTH 2400 0
DWIDTH 24 0
BBX 21 18 2 -1
BITMAP
0000E0
00C1B0
00C330
00C330
00C670
00C660
00C660
3FC6E0
61C6C0
60C780
C0C780
C0C700
C0C600
C0DF18
C0F330
61C330
3FC1E0
0C00C0
ENDCHAR
STARTCHAR C023444
ENCODING 10020
SWIDTH 2400 0
DWIDTH 24 0
BBX 11 17 7 0
BITMAP
0380
07C0
0CC0
0CC0
19C0
1980
1980
1B00
1B00
1E00
1C00
1800
3800
7C60
CCC0
0CC0
0780
ENDCHAR
STARTCHAR C023445
ENCODING 10021
SWIDTH 2400 0
DWIDTH 24 0
BBX 22 18 2 -1
BITMAP
000070
6000F0
600198
600198
600338
600330
600330
63E370
630360
6603C0
6603C0
7E0380
770300
63870C
619D98
61C198
F1F0F0
000060
ENDCHAR
STARTCHAR C023446
ENCODING 10022
SWIDTH 2400 0
DWIDTH 24 0
BBX 22 12 2 -1
BITMAP
1F01F0
718718
61C61C
C1CC1C
C00C00
C00C00
C00C00
C00C00
E00E00
618618
3F0330
0C01E0
ENDCHAR
STARTCHAR C023447
ENCODING 10023
SWIDTH 2400 0
DWIDTH 24 0
BBX 21 18 2 0
BITMAP
0000F8
000018
000030
000018
000018
0000D8
000070
FBBF70
EEDDD8
CCD998
CCD998
CCD998
CCD998
CCD998
CCD998
CCD998
CCD998
EDF9B8
ENDCHAR
STARTCHAR C023450
ENCODING 10024
SWIDTH 2400 0
DWIDTH 24 0
BBX 21 19 2 -1
BITMAP
0000F0
0000D8
000030
000030
000018
0000D8
000070
1E7FF0
333BB0
63B330
603330
C03330
C03330
C03330
E03330
61B330
733330
3B7BF8
0E0000
ENDCHAR
STARTCHAR C023451
ENCODING 10025
SWIDTH 2400 0
DWIDTH 24 0
BBX 17 18 5 0
BITMAP
000F80
000180
000700
000180
000D80
000F00
000600
0F3C00
79EE00
71C600
618600
618600
618600
618600
618600
618600
618600
F3CF00
ENDCHAR
STARTCHAR C023452
ENCODING 10026
SWIDTH 2400 0
DWIDTH 24 0
BBX 21 18 2 0
BITMAP
0000F0
E000D8
600030
600030
600018
6000D8
600070
67BF70
661FF0
6C1B30
6C1B30
7C1B30
7E1B30
6E1B30
661B30
671B30
631B30
E7FB70
ENDCHAR
STARTCHAR C023453
ENCODING 10027
SWIDTH 2400 0
DWIDTH 24 0
BBX 18 17 3 0
BITMAP
1C0000
3C0000
600000
600000
600000
600000
FFBBC0
61EEC0
61CCC0
618CC0
618CC0
618CC0
618CC0
618CC0
618CC0
618CC0
F3DDC0
ENDCHAR
STARTCHAR C023454
ENCODING 10028
SWIDTH 2400 0
DWIDTH 24 0
BBX 22 11 1 0
BITMAP
6FBBB8
78DEEC
60D8CC
60D8CC
60D8CC
60D8CC
60D8CC
60D8CC
60D8CC
60D8CC
F1FDFC
ENDCHAR
STARTCHAR C023455
ENCODING 10029
SWIDTH 2400 0
DWIDTH 24 0
BBX 25 22 0 -4
BITMAP
00000080
00000080
00000000
00000000
00000000
00000000
00000000
061FFE00
0E3BBB00
0E333300
0C733300
1C733300
18633300
18E33300
18E33300
18C33300
18DB3300
3DFFFF00
37000000
70000000
60000000
E0000000
ENDCHAR
STARTCHAR C023456
ENCODING 10030
SWIDTH 2400 0
DWIDTH 24 0
BBX 23 11 1 0
BITMAP
FDCFD8
7FC7FC
66C6CC
66C6CC
66C6CC
66C6CC
66C6CC
66C6CC
66C6CC
66C6CC
7FEFFE
ENDCHAR
STARTCHAR C023457
ENCODING 10031
SWIDTH 2400 0
DWIDTH 24 0
BBX 23 12 1 -1
BITMAP
1F3BB8
719FEC
61998C
E1998C
C0198C
C0198C
C0198C
C0198C
E0198C
61998C
3B3FDE
0E0000
ENDCHAR
STARTCHAR C023460
ENCODING 10032
SWIDTH 2400 0
DWIDTH 24 0
BBX 22 16 2 0
BITMAP
E00000
600000
600000
600000
600000
607770
633DD8
663198
6C3198
7C3198
7C3198
6E3198
663198
673198
633198
F7FBFC
ENDCHAR
STARTCHAR C023461
ENCODING 10033
SWIDTH 2400 0
DWIDTH 24 0
BBX 21 18 2 0
BITMAP
0000F0
0000D8
000038
000060
0000C0
0000F8
000000
FBBF70
EEDDF0
CCD9B0
CCD9B0
CCD9B0
CCD9B0
CCD9B0
CCD9B0
CCD9B0
CCD9B0
FFFFF8
ENDCHAR
STARTCHAR C023462
ENCODING 10034
SWIDTH 2400 0
DWIDTH 24 0
BBX 21 19 2 -1
BITMAP
0000F8
0000D8
000030
000060
0000C0
000198
0000F0
1F7FF0
31BBB0
63B330
603330
E03330
E03330
E03330
603330
603330
71B330
3B7330
0E0000
ENDCHAR
STARTCHAR C023463
ENCODING 10035
SWIDTH 2400 0
DWIDTH 24 0
BBX 17 18 5 0
BITMAP
000F00
000D80
000300
000600
000C00
001980
000F00
EF3C00
79EE00
71C600
618600
618600
618600
618600
618600
618600
618600
F3CF00
ENDCHAR
STARTCHAR C023464
ENCODING 10036
SWIDTH 2400 0
DWIDTH 24 0
BBX 20 18 3 0
BITMAP
0001E0
0001B0
C00070
C000C0
C001B0
C001F0
C00000
CFFDE0
C67760
CC6660
D86660
F86660
FC6660
DC6660
CC6660
CE6660
C66660
CFF6F0
ENDCHAR
STARTCHAR C023465
ENCODING 10037
SWIDTH 2400 0
DWIDTH 24 0
BBX 23 16 1 0
BITMAP
E00000
600000
600000
600000
600000
6001F0
6F0738
79C618
60C718
60C078
60C1D8
60C718
60C618
60C618
60C638
FBF7FE
ENDCHAR
STARTCHAR C023466
ENCODING 10038
SWIDTH 2400 0
DWIDTH 24 0
BBX 24 16 0 -5
BITMAP
030073
070DDF
061D8C
0E1D8E
0C398E
1C39DC
1C30F8
187180
186300
186380
38FDFE
3FB987
700303
600303
E00387
0000FC
ENDCHAR
STARTCHAR C023467
ENCODING 10039
SWIDTH 2400 0
DWIDTH 24 0
BBX 24 22 1 -5
BITMAP
000001
000000
000000
000001
000000
000000
0EE1EE
7FB33E
663718
663718
663718
6633B8
6633E1
663600
663600
663780
F633FC
00060E
000C06
000E06
00060D
0003F8
ENDCHAR
STARTCHAR C023470
ENCODING 10040
SWIDTH 2400 0
DWIDTH 24 0
BBX 23 21 1 -5
BITMAP
E00000
600000
600000
600000
600000
6001CE
60037E
63C618
630618
660638
6C0730
7E03E0
670600
630C00
638E00
61C7F8
30061E
000C0E
000C0E
000E1C
0003F0
ENDCHAR
STARTCHAR C023471
ENCODING 10041
SWIDTH 2400 0
DWIDTH 24 0
BBX 20 17 2 -1
BITMAP
700000
300000
300000
300000
300300
300300
3007E0
31E300
318300
330300
370300
3F0300
398300
31C300
30C330
3061E0
FDF800
ENDCHAR
STARTCHAR C023472
ENCODING 10042
SWIDTH 2400 0
DWIDTH 24 0
BBX 25 17 0 -1
BITMAP
00000E00
00000600
00000600
00000600
00000600
1F0F8600
3199C600
61DCC600
6198C600
E007C600
E01CC600
E030C600
E030C600
6030C600
71B0C600
3B1FFF80
0E006000
ENDCHAR
STARTCHAR C023473
ENCODING 10043
SWIDTH 2400 0
DWIDTH 24 0
BBX 25 17 0 -1
BITMAP
70000300
70000300
70000300
70000300
70000300
703CF300
73EDB300
736FBB00
76E03B00
7EC03B80
7EC0FB80
76C1BB80
77C33B80
73E33B80
73633B00
F7FFFF00
00180000
ENDCHAR
STARTCHAR C023474
ENCODING 10044
SWIDTH 2400 0
DWIDTH 24 0
BBX 25 19 0 -1
BITMAP
00000080
00000080
00C3FC00
00C30600
00C30700
00C30700
00C30700
00C30700
3EC30E00
63C3FC00
61C30600
C0C30300
C0C30100
C0C30100
C0C30100
C0C30300
61C30700
3FC73E00
0C01E000
ENDCHAR
STARTCHAR C023475
ENCODING 10045
SWIDTH 2400 0
DWIDTH 24 0
BBX 23 21 1 -4
BITMAP
FFE000
776006
66600C
666018
666030
666060
6660C0
666380
666600
666D80
001BF8
003618
006600
00C700
0183F0
030078
06001C
0C060C
180718
300398
6000F0
ENDCHAR
STARTCHAR C023476
ENCODING 10046
SWIDTH 2400 0
DWIDTH 24 0
BBX 23 21 1 -4
BITMAP
FFC000
776006
66600C
666018
666030
666060
6660C0
66618E
66631E
666E06
001BEC
00366C
006678
00C61E
018780
0301E0
060070
0C0C30
180630
300760
6001C0
ENDCHAR
STARTCHAR C023477
ENCODING 10047
SWIDTH 2400 0
DWIDTH 24 0
BBX 20 15 3 -4
BITMAP
FF0FE0
7398E0
719860
60DC00
60CF00
60C7C0
60C1E0
60C060
60D870
719860
7B0E60
6E03C0
600000
600000
700000
ENDCHAR
STARTCHAR C023500
ENCODING 10048
SWIDTH 2400 0
DWIDTH 24 0
BBX 19 12 3 -1
BITMAP
EF0F80
7B98E0
719860
619800
619C00
618F80
6183E0
6180E0
618060
619860
619E60
0003C0
ENDCHAR
STARTCHAR C023501
ENCODING 10049
SWIDTH 2400 0
DWIDTH 24 0
BBX 23 15 1 -4
BITMAP
030DF0
071F9C
061F0C
0E1B80
0E3BC0
0C39F8
1C303C
18700E
186306
18638C
3EFDEC
338038
700000
600000
E00000
ENDCHAR
STARTCHAR C023502
ENCODING 10050
SWIDTH 2400 0
DWIDTH 24 0
BBX 22 11 2 0
BITMAP
0EE3F0
7FB638
663618
663700
663380
6631F0
663078
66301C
66360C
663718
F673F8
ENDCHAR
STARTCHAR C023503
ENCODING 10051
SWIDTH 2400 0
DWIDTH 24 0
BBX 23 22 1 -5
BITMAP
007C3E
00381C
003818
001818
001C18
001C30
EF0C30
79CE30
70CE60
606660
606760
606360
6063C0
6063C0
6061C0
70C180
7FC180
6F0000
600000
600000
600000
F00000
ENDCHAR
STARTCHAR C023504
ENCODING 10052
SWIDTH 2400 0
DWIDTH 24 0
BBX 22 16 1 0
BITMAP
007C1C
003818
001818
001818
001C30
6F8C30
78CC30
60CE30
60C660
60C660
60C760
60C3C0
60C3C0
60C1C0
60C180
F1E180
ENDCHAR
STARTCHAR C023505
ENCODING 10053
SWIDTH 2400 0
DWIDTH 24 0
BBX 24 20 0 -4
BITMAP
001F07
000E06
000606
000606
00070C
030F0C
071F0C
0E1F98
0E3998
1C3998
1C31F0
1870F0
1860F0
1860E0
38EC60
3FF860
730000
600000
E00000
E00000
ENDCHAR
STARTCHAR C023506
ENCODING 10054
SWIDTH 2400 0
DWIDTH 24 0
BBX 24 21 1 -4
BITMAP
000001
007E1E
001C0C
001C0D
000C0C
000E18
FFEE18
776618
666730
666730
666330
6663E0
6661E1
6661E0
6661C0
6660C0
FFE0C0
000000
000000
000000
000001
ENDCHAR
STARTCHAR C023507
ENCODING 10055
SWIDTH 2400 0
DWIDTH 24 0
BBX 23 17 1 0
BITMAP
700000
303E1E
301C0C
300C18
300C18
300E18
300630
31E630
318730
330730
360360
3F0360
3B83E0
3181C0
30C1C0
30E1C0
FDF800
ENDCHAR
STARTCHAR C023510
ENCODING 10056
SWIDTH 2400 0
DWIDTH 24 0
BBX 25 16 0 0
BITMAP
F073C700
70718600
70718600
78F1C600
78F1C600
78F0CC80
78F0CC00
7DB0EC00
6DB0EC00
6DB07800
6FB07800
67307800
67307800
67303000
67303000
F0F83000
ENDCHAR
STARTCHAR C023511
ENCODING 10057
SWIDTH 2400 0
DWIDTH 24 0
BBX 21 20 2 -4
BITMAP
000300
000300
000380
000780
000780
EF07C0
7B8DC0
71CCC0
60CCC0
60D8E0
60DFE0
60D860
60D860
60F070
71B070
7F7878
600000
600000
600000
700000
ENDCHAR
STARTCHAR C023512
ENCODING 10058
SWIDTH 2400 0
DWIDTH 24 0
BBX 23 16 1 0
BITMAP
0000C0
0000E0
0000E0
0001E0
0001E0
E781F0
7DC370
70C330
60C330
60C338
60C7F8
60C618
60C61C
60CC1C
60CC1C
70FF1E
ENDCHAR
STARTCHAR C023513
ENCODING 10059
SWIDTH 2400 0
DWIDTH 24 0
BBX 25 22 0 -4
BITMAP
00000080
00000080
00003000
00003000
00007000
00007000
0000F800
030CD800
071CD800
0E199C00
0E399C00
0C398C00
1C71FC00
18730E00
18630E00
18630600
18EE0600
3DFF0700
37000000
70000000
60000000
E0000000
ENDCHAR
STARTCHAR C023514
ENCODING 10060
SWIDTH 2400 0
DWIDTH 24 0
BBX 23 16 1 0
BITMAP
0000C0
0000C0
0000E0
0001E0
0001E0
FDC1F0
7FC370
6EC330
6CC330
6CC638
6CC7F8
6CC618
6CC618
6CCC1C
6CCC1C
7FFF3E
ENDCHAR
STARTCHAR C023515
ENCODING 10061
SWIDTH 2400 0
DWIDTH 24 0
BBX 23 16 1 0
BITMAP
6000E0
6000E0
6000E0
6001E0
6001F0
6001F0
63C330
630338
660338
6C0618
7E07F8
76061C
670C1C
630C0C
618C0E
F3FF1E
ENDCHAR
STARTCHAR C023516
ENCODING 10062
SWIDTH 2400 0
DWIDTH 24 0
BBX 24 21 1 -5
BITMAP
03EFDE
01C306
00C386
00C38C
00E38C
00E3CD
FF67CC
E1F6CC
C0F6D8
C0F6F8
C0FCF8
C0FC78
C0FC78
C0DC70
E19C30
FF9831
DE0030
C00000
C00000
C00000
E00000
ENDCHAR
STARTCHAR C023517
ENCODING 10063
SWIDTH 2400 0
DWIDTH 24 0
BBX 25 20 0 -4
BITMAP
00F3C700
0071C600
0071C600
0071C600
0031E600
E7BB6600
7DFB6600
70DB7C00
60DF7C00
60DF3C00
60DF3C00
60CE3C00
60CE3C00
60CE1800
60C61800
F1E61800
00000000
00000000
00000080
00000080
ENDCHAR
STARTCHAR C023520
ENCODING 10064
SWIDTH 2400 0
DWIDTH 24 0
BBX 25 20 0 -4
BITMAP
007FFF00
001CE300
001CE600
000CE600
000CE600
031CF600
063FF600
0E3FB600
0E77BC00
1C77BC00
1CE7BC00
18E7BC00
18C71C00
18C31C00
31831880
3BF31800
7E000000
60000080
E0000000
E0000000
ENDCHAR
STARTCHAR C023521
ENCODING 10065
SWIDTH 2400 0
DWIDTH 24 0
BBX 23 16 1 0
BITMAP
007BCE
0039CC
0039CC
0039CC
0019CC
FF9BCC
7EDBF8
6CDFF8
6CDF78
6CCF78
6CCF78
6CCE70
6CCE70
6CCE70
6CC630
FFE630
ENDCHAR
STARTCHAR C023522
ENCODING 10066
SWIDTH 2400 0
DWIDTH 24 0
BBX 23 16 1 0
BITMAP
607BCE
6039CC
6039CC
6039CC
603BCC
601BCC
63DBF8
631FF8
661FF8
6C0F78
7C0E78
7E0E70
670E70
630E70
638630
F3E630
ENDCHAR
STARTCHAR C023523
ENCODING 10067
SWIDTH 2400 0
DWIDTH 24 0
BBX 25 16 0 0
BITMAP
F0777380
70773300
70773300
78773B00
78F33B00
78F33E00
78F37E00
7DF3FE00
6DB3DE00
6DB3DE00
6DB3DC00
6F31DC00
6731DC00
67318C00
67318C00
F0798080
ENDCHAR
STARTCHAR C023524
ENCODING 10068
SWIDTH 2400 0
DWIDTH 24 0
BBX 23 16 1 0
BITMAP
F07800
603000
603000
603000
603000
603000
6033FE
7FF31C
603638
603030
603070
6030E0
6031C2
603386
60370E
F07FFC
ENDCHAR
STARTCHAR C023525
ENCODING 10069
SWIDTH 2400 0
DWIDTH 24 0
BBX 23 16 1 0
BITMAP
E0F780
606300
606300
606300
606300
60637E
67E3E6
667FCE
6C630C
78631C
7C6318
7C6338
6E6332
6E6372
666366
EFF7FE
ENDCHAR
STARTCHAR C023526
ENCODING 10070
SWIDTH 2400 0
DWIDTH 24 0
BBX 25 16 0 0
BITMAP
71F9C000
71D9C080
73D9C080
73D9C080
7BD9C080
7BD9C080
7FD9DF80
7FDFF780
7FD9F780
7FD9CE80
7FD9CE80
7DD9DC80
7DD9D880
6DD9F980
6DD9F380
FFFFFF00
ENDCHAR
STARTCHAR C023527
ENCODING 10071
SWIDTH 2400 0
DWIDTH 24 0
BBX 25 17 0 -1
BITMAP
7E318080
E6318080
C3318000
C3318000
C0318000
C031BF00
C031F300
C03FE700
C0318600
C7B18E00
C3318C00
C3319C00
C3319800
C331B900
C731B300
7C31FF00
18000000
ENDCHAR
STARTCHAR C023530
ENCODING 10072
SWIDTH 2400 0
DWIDTH 24 0
BBX 25 16 0 0
BITMAP
FFE3C000
DBC18000
18C18000
18C18000
18C18000
18C1BF00
18C1F300
18FFE700
18C18600
18C18E00
18C18C00
18C19C00
18C19980
18C1B180
18C1B380
39E3FF80
ENDCHAR
STARTCHAR C023531
ENCODING 10073
SWIDTH 2400 0
DWIDTH 24 0
BBX 17 17 4 0
BITMAP
03F000
0E1C00
180F00
300700
600380
600380
600380
600380
600380
300300
380700
1C1C00
077800
C36180
C36180
C36180
FF7F80
ENDCHAR
STARTCHAR C023532
ENCODING 10074
SWIDTH 2400 0
DWIDTH 24 0
BBX 24 18 1 0
BITMAP
000001
0000E1
C007B8
C00C0C
C01C06
C01806
C01802
C03802
C7F802
C31806
C61C06
CC0C0E
DE0718
F601F0
E701E0
C3B1E6
C1B1E6
E3FFBE
ENDCHAR
STARTCHAR C023533
ENCODING 10075
SWIDTH 2400 0
DWIDTH 24 0
BBX 25 21 0 -4
BITMAP
0000FC00
F0738E00
70760300
70760300
787C0100
78FC0100
78FC0180
78FC0100
7DFC0100
6DB60300
6DB70300
6DB1CE00
6F307800
67367900
67367900
67367900
F07FFF00
00000000
00000000
00000000
00000080
ENDCHAR
STARTCHAR C023534
ENCODING 10076
SWIDTH 2400 0
DWIDTH 24 0
BBX 21 20 2 -4
BITMAP
001FF8
000C18
000C18
000C00
000C00
FF8C00
71CC60
60EFE0
606C60
606C60
606C00
606C00
606C00
60CC00
70CC00
7F8C00
661800
600000
600000
F00000
ENDCHAR
STARTCHAR C023535
ENCODING 10077
SWIDTH 2400 0
DWIDTH 24 0
BBX 21 16 2 0
BITMAP
001FF8
000C18
000C00
000C00
000C00
7F0C00
718C60
618FE0
618C60
618C00
618C00
618C00
618C00
618C00
618C00
F3FE00
ENDCHAR
STARTCHAR C023536
ENCODING 10078
SWIDTH 2400 0
DWIDTH 24 0
BBX 23 20 1 -4
BITMAP
0007FE
000306
000300
000300
000300
060300
0E1B18
0E3BF8
1C3B18
1C7300
187300
386300
30E300
30C300
30DB00
7FF780
660000
E00000
E00000
C00000
ENDCHAR
STARTCHAR C023537
ENCODING 10079
SWIDTH 2400 0
DWIDTH 24 0
BBX 23 17 1 -1
BITMAP
00000E
000006
000006
000006
000006
FFC786
EEDCE6
CCD866
CCF036
CCF036
CCF036
CCF036
CCF036
CCF036
CCF866
FFFCE6
000F80
ENDCHAR
STARTCHAR C023540
ENCODING 10080
SWIDTH 2400 0
DWIDTH 24 0
BBX 23 17 1 -1
BITMAP
00000C
00000C
00000C
00000C
00000C
1F000C
3181EC
61C33C
61861C
E00C0C
C00C0C
C00C0C
C00C0C
E00C0C
61861C
33033E
1E01E0
ENDCHAR
STARTCHAR C023541
ENCODING 10081
SWIDTH 2400 0
DWIDTH 24 0
BBX 25 16 0 0
BITMAP
00000700
00000300
00000380
00000300
00000300
067C0300
7FC63B00
73E66F00
7006C700
703EC300
7066C300
70C6C300
70C6C300
70C6E700
70CE6700
F8FF3F00
ENDCHAR
STARTCHAR C023542
ENCODING 10082
SWIDTH 2400 0
DWIDTH 24 0
BBX 23 21 1 -4
BITMAP
000180
000180
000180
FFC180
7F7F80
61F180
67F180
6F7180
7E7180
6FFB80
000F8E
000038
000060
0001F8
00076E
001C60
007038
01C00E
070006
1C0076
70001C
ENDCHAR
STARTCHAR C023543
ENCODING 10083
SWIDTH 2400 0
DWIDTH 24 0
BBX 23 21 1 -4
BITMAP
000180
000180
000180
FFC180
7F7F80
60F180
67F180
6F7180
7E7180
6FFB86
000F9C
000070
0001CE
0007E6
001DBC
00719E
01C0EC
070030
1C01B0
7000F0
000060
ENDCHAR
STARTCHAR C023544
ENCODING 10084
SWIDTH 2400 0
DWIDTH 24 0
BBX 18 11 3 0
BITMAP
7F39C0
C31FC0
C01C00
E01800
701800
3E1800
071800
039800
C19800
E31800
7E3C00
ENDCHAR
STARTCHAR C023545
ENCODING 10085
SWIDTH 2400 0
DWIDTH 24 0
BBX 21 17 2 -1
BITMAP
7F0000
618000
60C000
60C000
60C000
60CF80
60D8E0
61DC60
639C60
7E0060
6007E0
601C60
601860
603860
603860
F01FF8
000600
ENDCHAR
STARTCHAR C023546
ENCODING 10086
SWIDTH 2400 0
DWIDTH 24 0
BBX 24 17 1 -1
BITMAP
E07E01
E06300
E06300
E06300
E06380
E06378
EF63CC
E663CE
EC670E
F87C1E
F8607E
FC60CE
EC61CE
EE618E
E661CE
EFF1FE
000001
ENDCHAR
STARTCHAR C023547
ENCODING 10087
SWIDTH 2400 0
DWIDTH 24 0
BBX 25 17 0 -1
BITMAP
F3FF0000
73998000
7399C080
7398C080
7398C080
7F98FC80
7F98E680
7F99F380
7F998380
7F9F0F80
7F983B80
7D986380
7D98E380
6D98E380
6D98E700
6DB87F00
FFC00000
ENDCHAR
STARTCHAR C023550
ENCODING 10088
SWIDTH 2400 0
DWIDTH 24 0
BBX 25 17 0 0
BITMAP
38000000
7F7E0080
63738000
C3718000
C371C000
C071C000
C071FC00
C071E600
C071E700
C0738700
C7F70F00
C37C3F00
C3706700
E370C700
E370C700
6770C700
7F70FF00
ENDCHAR
STARTCHAR C023551
ENCODING 10089
SWIDTH 2400 0
DWIDTH 24 0
BBX 23 16 1 0
BITMAP
FFBB00
673300
733300
733300
736300
77E300
37E378
37E3CC
3DE30C
3DC306
3DC306
3DC306
19C306
19C306
19838C
1807F8
ENDCHAR
STARTCHAR C023552
ENCODING 10090
SWIDTH 2400 0
DWIDTH 24 0
BBX 17 16 4 0
BITMAP
600000
E00000
600000
600000
600000
607700
63FD80
633180
633180
633180
633180
633180
633180
633180
633180
F7BB80
ENDCHAR
STARTCHAR C023553
ENCODING 10091
SWIDTH 2400 0
DWIDTH 24 0
BBX 18 16 4 0
BITMAP
600000
E00000
600000
600000
600000
600000
638300
61C600
60EC00
607800
607800
603800
607C00
60CE00
618700
FF87C0
ENDCHAR
STARTCHAR C023554
ENCODING 10092
SWIDTH 2400 0
DWIDTH 24 0
BBX 23 20 1 -4
BITMAP
7F8000
60E000
60E000
606000
606000
60E1EE
60C3BC
63870C
7FC60C
60660C
60360C
603E0C
60360C
60770C
60E71C
FFC3FC
00000C
00000C
00000C
00000C
ENDCHAR
STARTCHAR C023555
ENCODING 10093
SWIDTH 2400 0
DWIDTH 24 0
BBX 21 22 2 -5
BITMAP
1C0000
770000
638000
C18000
C18000
C18000
C00000
C03C38
C01C30
C00C30
C3CE60
C18E60
C18660
C187C0
6183C0
638380
3F8380
0C0300
000300
000300
001E00
001C00
ENDCHAR
STARTCHAR C023556
ENCODING 10094
SWIDTH 2400 0
DWIDTH 24 0
BBX 24 19 1 -2
BITMAP
3F8000
61C000
C0C000
C06000
C00000
C00000
F03F3E
7E1C0C
0FCE0C
01E618
007718
007330
0073B0
0073E0
C071E0
70E1C1
7F80C0
000000
000001
ENDCHAR
STARTCHAR C023557
ENCODING 10095
SWIDTH 2400 0
DWIDTH 24 0
BBX 23 21 1 -4
BITMAP
3E0000
730600
618C00
C19800
C01800
C03000
C06000
C1C000
63C000
7F8000
036000
066E30
066CFE
0C78CE
187CCE
306C7C
3066E0
6000FE
C001C6
0000FC
000030
ENDCHAR
STARTCHAR C023560
ENCODING 10096
SWIDTH 2400 0
DWIDTH 24 0
BBX 0 0 0 0
BITMAP
ENDCHAR
STARTCHAR C023561
ENCODING 10097
SWIDTH 2400 0
DWIDTH 24 0
BBX 0 0 0 0
BITMAP
ENDCHAR
STARTCHAR C023562
ENCODING 10098
SWIDTH 2400 0
DWIDTH 24 0
BBX 0 0 0 0
BITMAP
ENDCHAR
STARTCHAR C023563
ENCODING 10099
SWIDTH 2400 0
DWIDTH 24 0
BBX 1 21 24 -4
BITMAP
80
00
00
80
00
00
00
00
00
00
00
00
80
00
00
00
00
00
00
00
80
ENDCHAR
STARTCHAR C023564
ENCODING 10100
SWIDTH 2400 0
DWIDTH 24 0
BBX 0 0 0 0
BITMAP
ENDCHAR
STARTCHAR C023565
ENCODING 10101
SWIDTH 2400 0
DWIDTH 24 0
BBX 0 0 0 0
BITMAP
ENDCHAR
STARTCHAR C023566
ENCODING 10102
SWIDTH 2400 0
DWIDTH 24 0
BBX 0 0 0 0
BITMAP
ENDCHAR
STARTCHAR C023567
ENCODING 10103
SWIDTH 2400 0
DWIDTH 24 0
BBX 0 0 0 0
BITMAP
ENDCHAR
STARTCHAR C023570
ENCODING 10104
SWIDTH 2400 0
DWIDTH 24 0
BBX 1 2 24 16
BITMAP
80
80
ENDCHAR
STARTCHAR C023571
ENCODING 10105
SWIDTH 2400 0
DWIDTH 24 0
BBX 0 0 0 0
BITMAP
ENDCHAR
STARTCHAR C023572
ENCODING 10106
SWIDTH 2400 0
DWIDTH 24 0
BBX 0 0 0 0
BITMAP
ENDCHAR
STARTCHAR C023573
ENCODING 10107
SWIDTH 2400 0
DWIDTH 24 0
BBX 0 0 0 0
BITMAP
ENDCHAR
STARTCHAR C023574
ENCODING 10108
SWIDTH 2400 0
DWIDTH 24 0
BBX 0 0 0 0
BITMAP
ENDCHAR
STARTCHAR C023575
ENCODING 10109
SWIDTH 2400 0
DWIDTH 24 0
BBX 1 4 24 -2
BITMAP
80
00
00
80
ENDCHAR
STARTCHAR C023576
ENCODING 10110
SWIDTH 2400 0
DWIDTH 24 0
BBX 0 0 0 0
BITMAP
ENDCHAR
STARTCHAR C023577
ENCODING 10111
SWIDTH 2400 0
DWIDTH 24 0
BBX 0 0 0 0
BITMAP
ENDCHAR
STARTCHAR C024040
ENCODING 10272
SWIDTH 2400 0
DWIDTH 24 0
BBX 1 1 24 0
BITMAP
80
ENDCHAR
STARTCHAR C024041
ENCODING 10273
SWIDTH 2400 0
DWIDTH 24 0
BBX 25 16 0 0
BITMAP
007FFC00
003C1E00
007C0600
006C0300
00CC3000
00CC3000
018C7000
030FF080
030C7000
07FC3000
0C0C3000
0C0C0300
180C0300
180C0600
380C1E00
FE7FFC00
ENDCHAR
STARTCHAR C024042
ENCODING 10274
SWIDTH 2400 0
DWIDTH 24 0
BBX 17 16 3 0
BITMAP
7FF000
0E1C00
0C0600
0C0300
0C0300
0C0180
0C0180
FFC180
0C0180
0C0180
0C0180
0C0300
0C0300
0C0600
0C1C00
7FF000
ENDCHAR
STARTCHAR C024043
ENCODING 10275
SWIDTH 2400 0
DWIDTH 24 0
BBX 13 17 6 0
BITMAP
0F80
3CE0
3860
0060
0060
03E0
1EE0
30E0
60E0
60E0
60E0
31E0
1F70
0000
0000
0000
FFF8
ENDCHAR
STARTCHAR C024044
ENCODING 10276
SWIDTH 2400 0
DWIDTH 24 0
BBX 18 16 4 0
BITMAP
FF3FC0
180600
FFFFC0
180600
180600
180600
180600
1FFE00
180600
180600
180600
180600
180600
180600
380600
FF3FC0
ENDCHAR
STARTCHAR C024045
ENCODING 10277
SWIDTH 2400 0
DWIDTH 24 0
BBX 1 16 24 0
BITMAP
80
00
00
00
00
00
00
00
00
00
00
00
00
00
00
80
ENDCHAR
STARTCHAR C024046
ENCODING 10278
SWIDTH 2400 0
DWIDTH 24 0
BBX 17 17 4 -1
BITMAP
FF7F80
180E00
180C00
180C00
180C00
180C00
180C00
180C00
180C00
180C00
180C00
180C00
180C00
180C00
1DD800
FFF800
01F000
ENDCHAR
STARTCHAR C024047
ENCODING 10279
SWIDTH 2400 0
DWIDTH 24 0
BBX 1 2 24 16
BITMAP
80
80
ENDCHAR
STARTCHAR C024050
ENCODING 10280
SWIDTH 2400 0
DWIDTH 24 0
BBX 15 16 5 0
BITMAP
7E00
1800
1800
1800
1800
1800
1860
1860
1860
1800
1800
1800
1806
180C
181C
FFF8
ENDCHAR
STARTCHAR C024051
ENCODING 10281
SWIDTH 2400 0
DWIDTH 24 0
BBX 16 16 4 0
BITMAP
3F00
0C00
0CC0
0D80
0F00
0E00
0C00
0C00
1C00
3C00
6C00
CC00
0C03
0C06
0C1E
7FFC
ENDCHAR
STARTCHAR C024052
ENCODING 10282
SWIDTH 2400 0
DWIDTH 24 0
BBX 19 18 3 -1
BITMAP
03F8C0
0E1FC0
180780
300300
600780
600DC0
E018C0
E030E0
E060E0
E0C0E0
E180C0
E300C0
7600C0
7C0180
380180
3C0700
671C00
C1F000
ENDCHAR
STARTCHAR C024053
ENCODING 10283
SWIDTH 2400 0
DWIDTH 24 0
BBX 23 18 1 -1
BITMAP
07C000
1E7FF8
38181C
30180C
601800
601800
C01860
C018E0
C01FE0
C018E0
C01860
C01860
E01800
601806
70180E
38181C
0F7FFC
01C000
ENDCHAR
STARTCHAR C024054
ENCODING 10284
SWIDTH 2400 0
DWIDTH 24 0
BBX 11 17 7 0
BITMAP
1F00
71C0
60C0
C060
C060
C060
C060
C060
C060
C060
60C0
71C0
1F00
0000
0000
0000
FFE0
ENDCHAR
STARTCHAR C024055
ENCODING 10285
SWIDTH 2400 0
DWIDTH 24 0
BBX 15 16 5 0
BITMAP
FE00
3800
1800
1FF0
181C
180E
1806
1806
1806
1806
181C
1FF8
1800
1800
1800
FF00
ENDCHAR
STARTCHAR C024056
ENCODING 10286
SWIDTH 2400 0
DWIDTH 24 0
BBX 18 16 3 0
BITMAP
3FFF00
78C780
60C180
C0C180
C0C0C0
00C000
00C000
00C000
0FFC00
00C000
00C000
00C000
00C000
00C000
00C000
07F800
ENDCHAR
STARTCHAR C024057
ENCODING 10287
SWIDTH 2400 0
DWIDTH 24 0
BBX 14 18 5 -1
BITMAP
00E0
F7B8
7C18
380C
300C
300C
300C
300C
300C
300C
300C
300C
300C
31CC
33CC
318C
FDD8
0070
ENDCHAR
STARTCHAR C024060
ENCODING 10288
SWIDTH 2400 0
DWIDTH 24 0
BBX 1 7 24 4
BITMAP
80
80
80
80
80
80
80
ENDCHAR
STARTCHAR C024061
ENCODING 10289
SWIDTH 2400 0
DWIDTH 24 0
BBX 23 21 1 -3
BITMAP
00FE00
0783C0
0E00E0
180030
300018
60001C
6000CC
CFFFCE
C380C6
C000C6
C000C6
C000C6
C000C6
C000CE
6000CC
6000DC
3000D8
1800F0
0E00E0
0783C0
01FE00
ENDCHAR
STARTCHAR C024062
ENCODING 10290
SWIDTH 2400 0
DWIDTH 24 0
BBX 23 22 1 -4
BITMAP
00FE00
0783C0
0E00E0
180030
300018
700018
60000C
67000C
C30006
C30006
C30006
C30006
C30006
C30006
6301CC
63FFEC
70001C
300018
180030
0E00E0
0783C0
00FE00
ENDCHAR
STARTCHAR C024063
ENCODING 10291
SWIDTH 2400 0
DWIDTH 24 0
BBX 23 22 1 -4
BITMAP
00FE00
0783C0
0E00E0
180030
300018
700018
6E038C
67FF8C
C30006
C30006
C30006
C30006
C30006
C30006
63000C
63FFCC
70001C
300018
180030
0E00E0
0783C0
00FE00
ENDCHAR
STARTCHAR C024064
ENCODING 10292
SWIDTH 2400 0
DWIDTH 24 0
BBX 23 22 1 -4
BITMAP
00FE00
0783C0
0E00E0
180030
300018
700018
67FF8C
60038C
C00306
C00306
C7FF86
C30006
C30006
C30006
63018C
63FFCC
700018
300018
180030
0E00E0
0783C0
00FE00
ENDCHAR
STARTCHAR C024065
ENCODING 10293
SWIDTH 2400 0
DWIDTH 24 0
BBX 23 21 1 -4
BITMAP
00FE00
0783C0
0E00E0
180030
300018
6E001C
67FFCC
C3038E
C30386
C30386
C30386
C30306
C30306
C3FF86
63000C
60001C
300018
180030
0E00E0
0783C0
00FE00
ENDCHAR
STARTCHAR C024066
ENCODING 10294
SWIDTH 2400 0
DWIDTH 24 0
BBX 23 22 1 -4
BITMAP
00FE00
0783C0
0E00E0
180030
300018
700798
63818C
61818C
C18186
C1FF86
C18186
C18186
C18186
C18186
61FF8C
61818C
70001C
300018
180030
0E00E0
0783C0
00FE00
ENDCHAR
STARTCHAR C024067
ENCODING 10295
SWIDTH 2400 0
DWIDTH 24 0
BBX 23 21 1 -4
BITMAP
00FE00
0783C0
0E00E0
180030
303818
601C1C
601C0C
C0380E
C03806
C07C06
C0E706
C1C3C6
C381C6
C600E6
7C000C
60001C
300018
180030
0E00E0
0783C0
00FE00
ENDCHAR
STARTCHAR C024070
ENCODING 10296
SWIDTH 2400 0
DWIDTH 24 0
BBX 23 22 1 -4
BITMAP
00FE00
0783C0
0E00E0
180030
300018
703818
60FE0C
63C38C
C381C6
C700C6
C700C6
C700C6
C700C6
C38186
63C38C
60FE0C
70001C
300018
180030
0E00E0
0783C0
00FE00
ENDCHAR
STARTCHAR C024071
ENCODING 10297
SWIDTH 2400 0
DWIDTH 24 0
BBX 23 22 1 -4
BITMAP
00FE00
0783C0
0E00E0
180030
300018
7001D8
67FFCC
63C18C
C00386
C00706
C00E06
C01C06
C03E06
C07386
61C1CC
6F00EC
70001C
300018
180030
0E00E0
0783C0
00FE00
ENDCHAR
STARTCHAR C024072
ENCODING 10298
SWIDTH 2400 0
DWIDTH 24 0
BBX 23 22 1 -4
BITMAP
00FE00
0783C0
0E00E0
180030
30E018
707E18
60000C
60038C
C7FFC6
C38386
C00706
C00E06
C01806
C07E06
60E3CC
6381EC
760078
300018
180030
0E00E0
0783C0
00FE00
ENDCHAR
STARTCHAR C024073
ENCODING 10299
SWIDTH 2400 0
DWIDTH 24 0
BBX 23 22 1 -4
BITMAP
00FE00
0783C0
0E00E0
180030
300018
700018
6001EC
67FFEC
C180C6
C000C6
C000C6
C00FC6
C7F986
C30186
60038C
60030C
70031C
300618
180C30
0E00E0
0783C0
00FE00
ENDCHAR
STARTCHAR C024074
ENCODING 10300
SWIDTH 2400 0
DWIDTH 24 0
BBX 23 22 1 -4
BITMAP
00FE00
0783C0
0E00E0
180030
300018
7E0798
63FF8C
63000C
C30006
C30006
C3FF86
C30006
C30006
C30006
63000C
63FFEC
70001C
300018
180030
0E00E0
0783C0
00FE00
ENDCHAR
STARTCHAR C024075
ENCODING 10301
SWIDTH 2400 0
DWIDTH 24 0
BBX 23 22 1 -4
BITMAP
00FE00
0783C0
0E00E0
180030
300018
7001D8
67FFEC
630E0C
C18706
C1C606
C0C606
C0E606
C0CC06
C00CE6
783FFC
6FE00C
70001C
300018
180030
0E00E0
0783C0
00FE00
ENDCHAR
STARTCHAR C024076
ENCODING 10302
SWIDTH 2400 0
DWIDTH 24 0
BBX 23 22 1 -4
BITMAP
00FE00
0783C0
0E00E0
180030
300018
707E18
60000C
6000EC
C00FF6
CFF806
C07C06
C0C606
C18306
C18306
61830C
61830C
70C61C
307C18
180030
0E00E0
0783C0
00FE00
ENDCHAR
STARTCHAR C024077
ENCODING 10303
SWIDTH 2400 0
DWIDTH 24 0
BBX 23 21 1 -4
BITMAP
00FE00
0783C0
0E07E0
1801B0
300198
60019C
6FF98C
C0398E
C07186
C061B6
C0C1FE
C1C186
C30186
CE0186
60018C
60019C
300198
1801B0
0E00E0
0783C0
01FE00
ENDCHAR
STARTCHAR C024100
ENCODING 10304
SWIDTH 2400 0
DWIDTH 24 0
BBX 23 22 1 -4
BITMAP
00FE00
0783C0
0E00E0
180730
300198
700198
60018C
6E018C
C60186
C60186
C601B6
C601FE
C61D86
C7F186
67818C
60018C
70019C
300198
1801B0
0E00E0
0783C0
00FE00
ENDCHAR
STARTCHAR C024101
ENCODING 10305
SWIDTH 2400 0
DWIDTH 24 0
BBX 23 22 1 -4
BITMAP
00FE00
0783C0
0E00E0
180730
300198
700198
60798C
7FF98C
C60186
C60186
C601B6
C601FE
C60186
C63D86
67E18C
60018C
70019C
300198
1801B0
0E00E0
0783C0
00FE00
ENDCHAR
STARTCHAR C024102
ENCODING 10306
SWIDTH 2400 0
DWIDTH 24 0
BBX 23 22 1 -4
BITMAP
00FE00
0783C0
0E00E0
180730
300398
700198
6FF98C
66318C
C03186
C03186
CFF186
C601FE
C60186
C60786
66FD8C
67C18C
70019C
300198
1801B0
0E00E0
0783C0
00FE00
ENDCHAR
STARTCHAR C024103
ENCODING 10307
SWIDTH 2400 0
DWIDTH 24 0
BBX 23 22 1 -4
BITMAP
00FE00
0783C0
0E00E0
180730
300398
700198
60318C
6FF98C
C61986
C61986
C63986
C631FE
C63186
C7F986
66018C
60018C
70019C
300198
1801B0
0E00E0
0783C0
00FE00
ENDCHAR
STARTCHAR C024104
ENCODING 10308
SWIDTH 2400 0
DWIDTH 24 0
BBX 23 22 1 -4
BITMAP
00FE00
0783C0
0E00E0
180730
300198
70F198
7C718C
6C718C
CC7186
CFF186
CC31B6
CC31FE
CC3186
CC3186
6FF18C
6C318C
70019C
300198
1801B0
0E00E0
0783C0
00FE00
ENDCHAR
STARTCHAR C024105
ENCODING 10309
SWIDTH 2400 0
DWIDTH 24 0
BBX 23 22 1 -4
BITMAP
00FE00
0783C0
0E00E0
180730
300198
700198
60E18C
60E18C
C0E186
C1C186
C1C1B6
C371FE
C73986
CC1986
78018C
60018C
70019C
300198
1801B0
0E00E0
0783C0
00FE00
ENDCHAR
STARTCHAR C024106
ENCODING 10310
SWIDTH 2400 0
DWIDTH 24 0
BBX 23 22 1 -4
BITMAP
00FE00
0783C0
0E00E0
180730
300398
700198
63818C
67C18C
CC7186
D87186
D83186
D831FE
D87186
CC7186
67E18C
60018C
70019C
300198
1801B0
0E00E0
0783C0
00FE00
ENDCHAR
STARTCHAR C024107
ENCODING 10311
SWIDTH 2400 0
DWIDTH 24 0
BBX 23 22 1 -4
BITMAP
00FE00
0783C0
0E00E0
180630
300398
700198
60018C
6FF98C
C07186
C06186
C0C186
C1E1FE
C3B986
C61986
6C018C
60018C
70019C
300198
1801B0
0E00E0
0783C0
00FE00
ENDCHAR
STARTCHAR C024110
ENCODING 10312
SWIDTH 2400 0
DWIDTH 24 0
BBX 23 22 1 -4
BITMAP
00FE00
0783C0
0E00E0
180730
300198
71C198
60F18C
60018C
CFF986
C63186
C07186
C0E1FE
C1E186
C3B986
66198C
7C018C
70019C
300198
1801B0
0E00E0
0783C0
00FE00
ENDCHAR
STARTCHAR C024111
ENCODING 10313
SWIDTH 2400 0
DWIDTH 24 0
BBX 23 22 1 -4
BITMAP
00FE00
0783C0
0E00E0
180730
300198
700198
60798C
67F98C
C03986
C0F186
CFF1B6
C0E1FE
C0C186
C18186
63018C
66018C
70019C
300198
1801B0
0E00E0
0783C0
00FE00
ENDCHAR
STARTCHAR C024112
ENCODING 10314
SWIDTH 2400 0
DWIDTH 24 0
BBX 23 22 1 -4
BITMAP
00FE00
0783C0
0E00E0
180730
300398
700198
60318C
6FF18C
C60186
C60186
C7F186
C601FE
C60786
C63D86
67E18C
66018C
70019C
300198
1801B0
0E00E0
0783C0
00FE00
ENDCHAR
STARTCHAR C024113
ENCODING 10315
SWIDTH 2400 0
DWIDTH 24 0
BBX 23 22 1 -4
BITMAP
00FE00
0783C0
0E00E0
180730
300198
700198
60FD8C
6F818C
C03186
C61986
C339F6
C331C6
C33786
C1FD86
6F818C
60018C
70019C
300198
1801B0
0E00E0
0783C0
00FE00
ENDCHAR
STARTCHAR C024114
ENCODING 10316
SWIDTH 2400 0
DWIDTH 24 0
BBX 23 22 1 -4
BITMAP
00FE00
0783C0
0E00E0
180730
300198
73E198
60018C
601D8C
DFFD86
C1C186
C7E1FE
CE39C6
CE1986
CE1986
6E398C
67F18C
70019C
300198
1801B0
0E00E0
0783C0
00FE00
ENDCHAR
STARTCHAR C024115
ENCODING 10317
SWIDTH 2400 0
DWIDTH 24 0
BBX 23 22 1 -4
BITMAP
00FE00
0783C0
0E00E0
180030
300018
700018
60FC0C
61C60C
C1C606
C00606
C01E06
C0F606
C1C606
C18606
618E0C
61FF8C
70001C
300018
180030
0E00E0
0783C0
00FE00
ENDCHAR
STARTCHAR C024116
ENCODING 10318
SWIDTH 2400 0
DWIDTH 24 0
BBX 23 22 1 -4
BITMAP
00FE00
0783C0
0E00E0
18C030
31C018
70C018
60C00C
60C00C
C0FE06
C0E706
C0C386
C0C186
C0C186
C0C186
60C18C
60C18C
70C31C
30FE18
181830
0E00E0
0783C0
00FE00
ENDCHAR
STARTCHAR C024117
ENCODING 10319
SWIDTH 2400 0
DWIDTH 24 0
BBX 23 22 1 -4
BITMAP
00FE00
0783C0
0E00E0
180030
300018
700018
607E0C
60C70C
C18606
C18006
C18006
C18006
C18006
C1C006
60E30C
607E0C
70001C
300018
180030
0E00E0
0783C0
00FE00
ENDCHAR
STARTCHAR C024120
ENCODING 10320
SWIDTH 2400 0
DWIDTH 24 0
BBX 23 22 1 -4
BITMAP
00FE00
0783C0
0E00E0
180630
301E18
700618
60060C
60060C
C07606
C1DE06
C18606
C30606
C30606
C30606
63060C
63060C
71861C
30FF18
180030
0E00E0
0783C0
00FE00
ENDCHAR
STARTCHAR C024121
ENCODING 10321
SWIDTH 2400 0
DWIDTH 24 0
BBX 23 22 1 -4
BITMAP
00FE00
0783C0
0E00E0
180030
300018
700018
607C0C
60C60C
C18306
C18306
C1FF06
C18006
C18006
C18006
61C00C
60E70C
703C1C
300018
180030
0E00E0
0783C0
00FE00
ENDCHAR
STARTCHAR C024122
ENCODING 10322
SWIDTH 2400 0
DWIDTH 24 0
BBX 23 22 1 -4
BITMAP
00FE00
0783C0
0E00E0
180030
301F18
703618
60300C
60300C
C03006
C0FE06
C03006
C03006
C03006
C03006
60300C
60300C
70301C
303018
18FC30
0E00E0
0783C0
00FE00
ENDCHAR
STARTCHAR C024123
ENCODING 10323
SWIDTH 2400 0
DWIDTH 24 0
BBX 23 22 1 -4
BITMAP
00FE00
0783C0
0E00E0
180030
307DD8
70E7D8
61C70C
61C30C
C1C306
C0C706
C06C06
C1F806
C1F006
C07E06
61C38C
63038C
73839C
31FE18
180030
0E00E0
0783C0
00FE00
ENDCHAR
STARTCHAR C024124
ENCODING 10324
SWIDTH 2400 0
DWIDTH 24 0
BBX 23 22 1 -4
BITMAP
00FE00
0783C0
0E00E0
180030
31C018
70C018
60C00C
60C00C
C0C006
C0FE06
C0E306
C0C306
C0C306
C0C306
60C30C
60C30C
70C31C
30C318
186030
0E00E0
0783C0
00FE00
ENDCHAR
STARTCHAR C024125
ENCODING 10325
SWIDTH 2400 0
DWIDTH 24 0
BBX 23 22 1 -4
BITMAP
00FE00
0783C0
0E00E0
183830
303818
700018
60000C
60000C
C03806
C03806
C01806
C01806
C01806
C01806
60180C
60180C
70181C
303C18
180030
0E00E0
0783C0
00FE00
ENDCHAR
STARTCHAR C024126
ENCODING 10326
SWIDTH 2400 0
DWIDTH 24 0
BBX 23 22 1 -4
BITMAP
00FE00
0783C0
0E38E0
183830
300018
700018
60000C
60380C
C03806
C01806
C01806
C01806
C01806
C01806
60180C
60180C
70181C
301818
18F830
0EF0E0
0783C0
00FE00
ENDCHAR
STARTCHAR C024127
ENCODING 10327
SWIDTH 2400 0
DWIDTH 24 0
BBX 23 22 1 -4
BITMAP
00FE00
0783C0
0E00E0
18C030
31C018
70C018
60C00C
60C00C
C0CFC6
C0C706
C0CC06
C0D806
C0FC06
C0EC06
60CE0C
60C70C
70C39C
31F7D8
180030
0E00E0
0783C0
00FE00
ENDCHAR
STARTCHAR C024130
ENCODING 10328
SWIDTH 2400 0
DWIDTH 24 0
BBX 23 22 1 -4
BITMAP
00FE00
0783C0
0E00E0
180030
307818
701818
60180C
60180C
C01806
C01806
C01806
C01806
C01806
C01806
60180C
60180C
70181C
303C18
180030
0E00E0
0783C0
00FE00
ENDCHAR
STARTCHAR C024131
ENCODING 10329
SWIDTH 2400 0
DWIDTH 24 0
BBX 23 22 1 -4
BITMAP
00FE00
0783C0
0E00E0
180030
300018
700018
6FF7CC
6F1CEC
C61866
C61866
C61866
C61866
C61866
C61866
66186C
6F3CFC
70001C
300018
180030
0E00E0
0783C0
00FE00
ENDCHAR
STARTCHAR C024132
ENCODING 10330
SWIDTH 2400 0
DWIDTH 24 0
BBX 23 22 1 -4
BITMAP
00FE00
0783C0
0E00E0
180030
300018
700018
63BE0C
61E70C
C18306
C18306
C18306
C18306
C18306
C18306
61830C
63C78C
70001C
300018
180030
0E00E0
0783C0
00FE00
ENDCHAR
STARTCHAR C024133
ENCODING 10331
SWIDTH 2400 0
DWIDTH 24 0
BBX 23 22 1 -4
BITMAP
00FE00
0783C0
0E00E0
180030
300018
700018
607C0C
61C70C
C18306
C30186
C30186
C30186
C30186
C18306
61C70C
607C0C
70001C
300018
180030
0E00E0
0783C0
00FE00
ENDCHAR
STARTCHAR C024134
ENCODING 10332
SWIDTH 2400 0
DWIDTH 24 0
BBX 23 22 1 -4
BITMAP
00FE00
0783C0
0E00E0
180030
300018
71FE18
60E30C
60C18C
C0C186
C0C186
C0C186
C0C186
C0C306
C0E706
60FC0C
60C00C
70C01C
31E018
180030
0E00E0
0783C0
00FE00
ENDCHAR
STARTCHAR C024135
ENCODING 10333
SWIDTH 2400 0
DWIDTH 24 0
BBX 23 22 1 -4
BITMAP
00FE00
0783C0
0E00E0
180030
307018
71DE18
61860C
63060C
C30606
C30606
C30606
C30606
C18606
C0CE06
607E0C
60060C
70061C
300F18
180030
0E00E0
0783C0
00FE00
ENDCHAR
STARTCHAR C024136
ENCODING 10334
SWIDTH 2400 0
DWIDTH 24 0
BBX 23 22 1 -4
BITMAP
00FE00
0783C0
0E00E0
180030
300018
700018
60030C
60FF8C
C03806
C03006
C03006
C03006
C03006
C03006
60300C
60780C
70001C
300018
180030
0E00E0
0783C0
00FE00
ENDCHAR
STARTCHAR C024137
ENCODING 10335
SWIDTH 2400 0
DWIDTH 24 0
BBX 23 22 1 -4
BITMAP
00FE00
0783C0
0E00E0
180030
300018
700018
607E0C
60C70C
C0C306
C0E006
C07806
C01E06
C00706
C18306
60C70C
60FE0C
70001C
300018
180030
0E00E0
0783C0
00FE00
ENDCHAR
STARTCHAR C024140
ENCODING 10336
SWIDTH 2400 0
DWIDTH 24 0
BBX 23 22 1 -4
BITMAP
00FE00
0783C0
0E00E0
180030
303018
703018
60300C
60FE0C
C03006
C03006
C03006
C03006
C03006
C03006
60300C
60330C
701E1C
300018
180030
0E00E0
0783C0
00FE00
ENDCHAR
STARTCHAR C024141
ENCODING 10337
SWIDTH 2400 0
DWIDTH 24 0
BBX 23 22 1 -4
BITMAP
00FE00
0783C0
0E00E0
180030
300018
700018
60000C
638F0C
C18306
C18306
C18306
C18306
C18306
C18306
61870C
60FF8C
70001C
300018
180030
0E00E0
0783C0
00FE00
ENDCHAR
STARTCHAR C024142
ENCODING 10338
SWIDTH 2400 0
DWIDTH 24 0
BBX 23 22 1 -4
BITMAP
00FE00
0783C0
0E00E0
180030
300018
700018
63E00C
61C70C
C0C606
C0C606
C0E606
C06C06
C07C06
C03806
60380C
60380C
70001C
300018
180030
0E00E0
0783C0
00FE00
ENDCHAR
STARTCHAR C024143
ENCODING 10339
SWIDTH 2400 0
DWIDTH 24 0
BBX 23 22 1 -4
BITMAP
00FE00
0783C0
0E00E0
180030
300018
700018
60000C
6F3CFC
C61866
C71CC6
C33CC6
C3BD86
C1EF86
C1E786
61C70C
60C70C
70C01C
300018
180030
0E00E0
0783C0
00FE00
ENDCHAR
STARTCHAR C024144
ENCODING 10340
SWIDTH 2400 0
DWIDTH 24 0
BBX 23 22 1 -4
BITMAP
00FE00
0783C0
0E00E0
180030
300018
700018
63E78C
60C30C
C06606
C07C06
C03806
C03806
C06C06
C0C606
60C70C
63EFCC
70001C
300018
180030
0E00E0
0783C0
00FE00
ENDCHAR
STARTCHAR C024145
ENCODING 10341
SWIDTH 2400 0
DWIDTH 24 0
BBX 23 22 1 -4
BITMAP
00FE00
0783C0
0E00E0
180030
300018
71E7D8
60C30C
60E30C
C06606
C07606
C03606
C03C06
C03C06
C01806
60180C
60300C
71F01C
31E018
180030
0E00E0
0783C0
00FE00
ENDCHAR
STARTCHAR C024146
ENCODING 10342
SWIDTH 2400 0
DWIDTH 24 0
BBX 23 22 1 -4
BITMAP
00FE00
0783C0
0E00E0
180030
300018
700018
60FF0C
60C60C
C18C06
C01C06
C01806
C03006
C06006
C0E306
61C70C
61FE0C
70001C
300018
180030
0E00E0
0783C0
00FE00
ENDCHAR
STARTCHAR C024147
ENCODING 10343
SWIDTH 2400 0
DWIDTH 24 0
BBX 23 21 1 -4
BITMAP
00FE00
0783C0
0E30E0
19F030
303018
60301C
60300C
C0300C
C03006
C03006
C03006
C03006
C03006
C0300E
60300C
60301C
31FE18
180030
0E00E0
0783C0
00FE00
ENDCHAR
STARTCHAR C024150
ENCODING 10344
SWIDTH 2400 0
DWIDTH 24 0
BBX 23 21 1 -4
BITMAP
00FE00
0783C0
0E3CE0
18E630
31C318
61C31C
61C38C
C0030C
C00606
C00C06
C01806
C03006
C06006
C0C18E
60C30C
61831C
31FF18
180030
0E00E0
0783C0
01FE00
ENDCHAR
STARTCHAR C024151
ENCODING 10345
SWIDTH 2400 0
DWIDTH 24 0
BBX 23 22 1 -4
BITMAP
00FE00
0783C0
0E00E0
187C30
30E618
70C318
61C30C
60030C
C00606
C00C06
C03806
C00E06
C00306
C00306
61830C
63830C
71861C
30FC18
183030
0E00E0
0783C0
00FE00
ENDCHAR
STARTCHAR C024152
ENCODING 10346
SWIDTH 2400 0
DWIDTH 24 0
BBX 23 22 1 -4
BITMAP
00FE00
0783C0
0E00E0
181830
301818
703818
60380C
60780C
C07806
C0D806
C19806
C19806
C31806
C31806
67FF0C
60180C
70181C
303E18
180030
0E00E0
0783C0
00FE00
ENDCHAR
STARTCHAR C024153
ENCODING 10347
SWIDTH 2400 0
DWIDTH 24 0
BBX 23 22 1 -4
BITMAP
00FE00
038380
0E00E0
180030
31FE30
318018
61800C
61800C
C18006
C1B006
C1FC06
C18606
C00706
C00306
E0030E
61830C
73871C
318618
19CC30
0E78E0
0783C0
00FE00
ENDCHAR
STARTCHAR C024154
ENCODING 10348
SWIDTH 2400 0
DWIDTH 24 0
BBX 23 22 1 -4
BITMAP
00FE00
0783C0
0E00E0
180030
303E18
706718
60C70C
60C00C
C18006
C18006
C1FE06
C1C606
C18306
C18306
61830C
61830C
70C71C
30E618
187C30
0E00E0
0783C0
00FE00
ENDCHAR
STARTCHAR C024155
ENCODING 10349
SWIDTH 2400 0
DWIDTH 24 0
BBX 23 22 1 -4
BITMAP
00FE00
0783C0
0E00E0
180030
31FF98
718318
61860C
63060C
C00C06
C00C06
C01806
C01806
C03806
C03006
60700C
60700C
70701C
307018
186030
0E00E0
0783C0
00FE00
ENDCHAR
STARTCHAR C024156
ENCODING 10350
SWIDTH 2400 0
DWIDTH 24 0
BBX 23 22 1 -4
BITMAP
00FE00
0783C0
0E00E0
187C30
30C718
718318
61830C
61830C
C1C606
C0FC06
C07C06
C0FE06
C18706
C38386
63838C
63838C
73831C
31C718
18FE30
0E00E0
0783C0
00FE00
ENDCHAR
STARTCHAR C024157
ENCODING 10351
SWIDTH 2400 0
DWIDTH 24 0
BBX 23 22 1 -4
BITMAP
00FE00
0783C0
0E00E0
187C30
30CE18
70C618
61860C
61830C
C18306
C18306
C0C706
C06F06
C03B06
C00306
60060C
60C60C
71CC1C
30F818
180030
0E00E0
0783C0
00FE00
ENDCHAR
STARTCHAR C024160
ENCODING 10352
SWIDTH 2400 0
DWIDTH 24 0
BBX 23 22 1 -4
BITMAP
00FE00
0783C0
0E00E0
180030
300018
7783D8
61866C
61866C
C18C36
C18C36
C18C36
C18C36
C18C36
C18C36
61866C
61866C
77E3DC
300018
180030
0E00E0
0783C0
00FE00
ENDCHAR
STARTCHAR C024161
ENCODING 10353
SWIDTH 2400 0
DWIDTH 24 0
BBX 23 22 1 -4
BITMAP
00FE00
0783C0
0E00E0
180030
300018
738798
67818C
61818C
C18186
C18186
C18186
C18186
C18186
C18186
61818C
61818C
77E7FC
300018
180030
0E00E0
0783C0
00FE00
ENDCHAR
STARTCHAR C024162
ENCODING 10354
SWIDTH 2400 0
DWIDTH 24 0
BBX 23 22 1 -4
BITMAP
00FE00
0783C0
0E00E0
180030
300018
7707D8
6F0C6C
630C7C
C30C76
C30066
C300E6
C30186
C30306
C30606
63060C
630C3C
7FCFFC
300018
180030
0E00E0
0783C0
00FE00
ENDCHAR
STARTCHAR C024163
ENCODING 10355
SWIDTH 2400 0
DWIDTH 24 0
BBX 23 22 1 -4
BITMAP
00FE00
0783C0
0E00E0
180030
300018
7707F8
6F0E7C
63067C
C30076
C30066
C303C6
C30066
C30036
C30036
630E3C
630E7C
7FC7DC
300018
180030
0E00E0
0783C0
00FE00
ENDCHAR
STARTCHAR C024164
ENCODING 10356
SWIDTH 2400 0
DWIDTH 24 0
BBX 23 22 1 -4
BITMAP
00FE00
0783C0
0E00E0
180030
300018
7380D8
6781CC
6181CC
C183C6
C183C6
C186C6
C18CC6
C18CC6
C19FF6
6180CC
6180CC
77E1FC
300018
180030
0E00E0
0783C0
00FE00
ENDCHAR
STARTCHAR C024165
ENCODING 10357
SWIDTH 2400 0
DWIDTH 24 0
BBX 23 22 1 -4
BITMAP
00FE00
0783C0
0E00E0
180030
300018
738FF8
678C0C
618C0C
C18C06
C18F86
C18EC6
C18066
C18066
C18066
619C6C
618CCC
77E79C
300318
180030
0E00E0
0783C0
00FE00
ENDCHAR
STARTCHAR C024166
ENCODING 10358
SWIDTH 2400 0
DWIDTH 24 0
BBX 19 20 3 -3
BITMAP
700000
3000C0
300180
300300
300600
300C00
301800
303000
306000
FC6000
00CF80
01B8C0
0338E0
0630C0
0C0180
180700
300C00
601860
6030C0
C03FC0
ENDCHAR
STARTCHAR C024167
ENCODING 10359
SWIDTH 2400 0
DWIDTH 24 0
BBX 19 21 3 -4
BITMAP
700000
3000C0
300180
300300
300600
300C00
301800
303000
306000
FC6000
00CF80
0198C0
0338C0
0600C0
0C0180
1803C0
3000E0
6038E0
C030C0
C019C0
000F00
ENDCHAR
STARTCHAR C024170
ENCODING 10360
SWIDTH 2400 0
DWIDTH 24 0
BBX 19 21 3 -4
BITMAP
7E0060
C300C0
E30180
C30300
0E0300
180600
300C00
601800
C33000
FF6000
00C7C0
019CE0
031C60
030060
0600C0
0C01E0
180060
301860
601860
001CE0
000780
ENDCHAR
STARTCHAR C024171
ENCODING 10361
SWIDTH 2400 0
DWIDTH 24 0
BBX 19 20 3 -3
BITMAP
780060
1800C0
180180
180300
180600
180C00
181800
181800
183000
3C6000
00C300
018700
030F00
061B00
0C3300
186300
18C300
30FF80
600300
C00700
ENDCHAR
STARTCHAR C024172
ENCODING 10362
SWIDTH 2400 0
DWIDTH 24 0
BBX 19 20 3 -3
BITMAP
7F0060
630060
E300C0
030180
1E0300
030600
038C00
E39800
E33000
773000
1C6300
00CF00
019B00
031B00
063300
0C6300
0CC300
18FFC0
300300
600700
ENDCHAR
STARTCHAR C024173
ENCODING 10363
SWIDTH 2400 0
DWIDTH 24 0
BBX 20 21 3 -4
BITMAP
380000
1800C0
180180
180300
180600
180C00
181800
181800
183000
7E6000
00CF80
019860
033860
063860
0C1EC0
180FC0
1838E0
303070
603060
C018E0
000F80
ENDCHAR
STARTCHAR C024174
ENCODING 10364
SWIDTH 2400 0
DWIDTH 24 0
BBX 20 21 3 -4
BITMAP
7E0060
E300C0
E300C0
070180
1C0300
070600
030C00
E39800
C33000
666000
3CCF80
00D8E0
01B060
033860
061EC0
0C0FC0
1838E0
303070
603060
0018E0
000F80
ENDCHAR
STARTCHAR C024175
ENCODING 10365
SWIDTH 2400 0
DWIDTH 24 0
BBX 21 21 2 -4
BITMAP
7F8030
600060
6000C0
600180
7F0300
018300
018600
E18C00
619800
773000
1C67E0
00DC70
019830
031C30
060E60
060FE0
0C1830
181838
301830
000C70
0007C0
ENDCHAR
STARTCHAR C024176
ENCODING 10366
SWIDTH 2400 0
DWIDTH 24 0
BBX 19 21 3 -4
BITMAP
7F8000
6180C0
C30180
060300
060600
0E0C00
0C1800
0C3000
1C6000
1C6000
00CFC0
019860
033060
061860
0C1FC0
181FC0
303060
603060
603060
C018C0
000F80
ENDCHAR
STARTCHAR C024177
ENCODING 10367
SWIDTH 2400 0
DWIDTH 24 0
BBX 0 0 0 0
BITMAP
ENDCHAR
STARTCHAR C024440
ENCODING 10528
SWIDTH 2400 0
DWIDTH 24 0
BBX 0 0 0 0
BITMAP
ENDCHAR
STARTCHAR C024441
ENCODING 10529
SWIDTH 2400 0
DWIDTH 24 0
BBX 17 11 4 0
BITMAP
3F3E00
73E300
F1C300
61C180
01FF80
1F8000
718000
E18000
E1C180
E3E300
7E7E00
ENDCHAR
STARTCHAR C024442
ENCODING 10530
SWIDTH 2400 0
DWIDTH 24 0
BBX 12 17 7 -1
BITMAP
01C0
01C0
00C0
0FF0
00C0
00C0
3FC0
60C0
C0C0
C0C0
C0C0
C0C0
C0C0
E0C0
61C0
7FE0
1C00
ENDCHAR
STARTCHAR C024443
ENCODING 10531
SWIDTH 2400 0
DWIDTH 24 0
BBX 11 17 7 -1
BITMAP
3000
1CC0
0780
0F00
3B80
0180
01C0
3FC0
60E0
C060
C060
C060
C060
C060
60C0
71C0
1F00
ENDCHAR
STARTCHAR C024444
ENCODING 10532
SWIDTH 2400 0
DWIDTH 24 0
BBX 12 16 6 0
BITMAP
7000
7000
3000
FF00
3000
3780
3DC0
3860
3060
3060
3060
3060
3060
3060
3060
78F0
ENDCHAR
STARTCHAR C024445
ENCODING 10533
SWIDTH 2400 0
DWIDTH 24 0
BBX 5 11 10 0
BITMAP
30
F0
30
30
30
30
30
30
30
30
78
ENDCHAR
STARTCHAR C024446
ENCODING 10534
SWIDTH 2400 0
DWIDTH 24 0
BBX 11 19 6 -3
BITMAP
18C0
18C0
0000
0000
0000
3060
F1E0
3060
3060
3060
3060
3060
3060
3060
3060
7860
0060
03C0
0380
ENDCHAR
STARTCHAR C024447
ENCODING 10535
SWIDTH 2400 0
DWIDTH 24 0
BBX 11 10 7 0
BITMAP
F3E0
6180
6700
6C00
7E00
7E00
6700
6380
6380
F3E0
ENDCHAR
STARTCHAR C024450
ENCODING 10536
SWIDTH 2400 0
DWIDTH 24 0
BBX 7 16 9 0
BITMAP
E0
E0
60
60
60
60
60
66
66
66
60
60
60
60
60
F0
ENDCHAR
STARTCHAR C024451
ENCODING 10537
SWIDTH 2400 0
DWIDTH 24 0
BBX 9 17 9 0
BITMAP
1800
7800
1800
1980
1B00
1E00
1C00
1800
1800
3800
3800
7800
D800
1800
1800
1800
7E00
ENDCHAR
STARTCHAR C024452
ENCODING 10538
SWIDTH 2400 0
DWIDTH 24 0
BBX 13 12 6 0
BITMAP
0600
1FD8
3070
60F0
E1F8
E338
E638
EC38
F830
7070
78E0
CFC0
ENDCHAR
STARTCHAR C024453
ENCODING 10539
SWIDTH 2400 0
DWIDTH 24 0
BBX 18 11 4 0
BITMAP
1F3F00
71E180
C1C180
C0C0C0
C0FFC0
C0C000
C0C000
C0C000
C0E000
61F180
3F3F00
ENDCHAR
STARTCHAR C024454
ENCODING 10540
SWIDTH 2400 0
DWIDTH 24 0
BBX 12 18 6 -1
BITMAP
0F80
18C0
3060
3060
3060
3060
3060
30C0
31C0
30F0
3070
3070
3030
3030
3070
3760
FF60
01C0
ENDCHAR
STARTCHAR C024455
ENCODING 10541
SWIDTH 2400 0
DWIDTH 24 0
BBX 13 19 6 -3
BITMAP
3000
F000
3000
3000
3000
3380
3EE0
3030
3018
3018
3018
3018
3018
3038
3830
3FE0
3380
3000
7800
ENDCHAR
STARTCHAR C024456
ENCODING 10542
SWIDTH 2400 0
DWIDTH 24 0
BBX 8 16 8 0
BITMAP
30
30
30
70
FF
30
FC
30
30
30
30
30
30
30
33
3E
ENDCHAR
STARTCHAR C024457
ENCODING 10543
SWIDTH 2400 0
DWIDTH 24 0
BBX 12 15 6 -4
BITMAP
37C0
FCE0
3070
3030
3030
3030
3030
3030
3030
3030
7830
0330
0730
0330
03E0
ENDCHAR
STARTCHAR C024460
ENCODING 10544
SWIDTH 2400 0
DWIDTH 24 0
BBX 16 14 3 0
BITMAP
3800
3800
3000
6338
CFEE
C386
0306
0306
0306
0306
0306
0306
0306
078F
ENDCHAR
STARTCHAR C024461
ENCODING 10545
SWIDTH 2400 0
DWIDTH 24 0
BBX 23 18 1 -2
BITMAP
180030
300018
300018
60000C
60000C
CFFFC6
C70186
C00186
C00186
C00186
C00186
C00186
C00186
60018C
60018C
300198
300018
180030
ENDCHAR
STARTCHAR C024462
ENCODING 10546
SWIDTH 2400 0
DWIDTH 24 0
BBX 23 19 1 -3
BITMAP
0C0030
180018
300018
60000C
60000C
638006
C18006
C18006
C18006
C18006
C18006
C18006
C180F6
61FF8C
60000C
600018
300018
180030
0C0000
ENDCHAR
STARTCHAR C024463
ENCODING 10547
SWIDTH 2400 0
DWIDTH 24 0
BBX 23 18 1 -2
BITMAP
180030
300018
300018
60000C
6E038C
C7FFC6
C30006
C30006
C30006
C30006
C30006
C30006
C30386
63FFCC
60000C
300018
300018
180030
ENDCHAR
STARTCHAR C024464
ENCODING 10548
SWIDTH 2400 0
DWIDTH 24 0
BBX 23 18 1 -2
BITMAP
180030
300018
300018
60000C
67FF8C
C30386
C00306
C00306
C7FF06
C30006
C30006
C30006
C301C6
63FFCC
60000C
300018
300018
180030
ENDCHAR
STARTCHAR C024465
ENCODING 10549
SWIDTH 2400 0
DWIDTH 24 0
BBX 23 18 1 -2
BITMAP
180030
300018
300018
60000C
60000C
C3FFE6
C180C6
C180C6
C181C6
C18186
C18186
C18186
C1FFC6
61800C
60000C
300018
300018
180030
ENDCHAR
STARTCHAR C024466
ENCODING 10550
SWIDTH 2400 0
DWIDTH 24 0
BBX 23 18 1 -2
BITMAP
180030
300018
300018
60078C
63818C
C18186
C18186
C1FF86
C18186
C18186
C18186
C18186
C18186
61FF8C
61818C
300018
300018
180030
ENDCHAR
STARTCHAR C024467
ENCODING 10551
SWIDTH 2400 0
DWIDTH 24 0
BBX 23 18 1 -2
BITMAP
180030
300018
300018
60300C
601C0C
C01C06
C01C06
C03806
C07C06
C0E606
C0C386
C181C6
C700E6
6C006C
60000C
300018
300018
180030
ENDCHAR
STARTCHAR C024470
ENCODING 10552
SWIDTH 2400 0
DWIDTH 24 0
BBX 23 19 1 -2
BITMAP
000060
180030
300018
300018
60380C
60FE0C
C38386
C701C6
C600C6
C600C6
C600C6
C600C6
C30186
C3838C
60FE0C
60000C
300018
300030
180000
ENDCHAR
STARTCHAR C024471
ENCODING 10553
SWIDTH 2400 0
DWIDTH 24 0
BBX 23 18 1 -2
BITMAP
180030
300018
300018
6003CC
67FFCC
C3C386
C00306
C00706
C00E06
C01806
C07E06
C0E386
C181C6
6F00EC
60000C
300018
300018
180030
ENDCHAR
STARTCHAR C024472
ENCODING 10554
SWIDTH 2400 0
DWIDTH 24 0
BBX 23 18 1 -2
BITMAP
180030
300018
30C018
607E0C
60000C
C00386
C7FF86
C00706
C00E06
C01C06
C07E06
C0E386
C381C6
6E00EC
60000C
300018
300018
180030
ENDCHAR
STARTCHAR C024473
ENCODING 10555
SWIDTH 2400 0
DWIDTH 24 0
BBX 23 18 1 -2
BITMAP
180030
300018
300018
6001EC
67FFEC
C3C0C6
C000C6
C001C6
C00FC6
C7F986
C00186
C00186
C00306
60030C
60060C
300C18
300018
180030
ENDCHAR
STARTCHAR C024474
ENCODING 10556
SWIDTH 2400 0
DWIDTH 24 0
BBX 23 18 1 -2
BITMAP
180030
300018
300018
60078C
67FF8C
C30006
C30006
C30006
C30786
C3FF86
C30006
C30006
C301C6
63FFEC
60000C
300018
300018
180030
ENDCHAR
STARTCHAR C024475
ENCODING 10557
SWIDTH 2400 0
DWIDTH 24 0
BBX 23 19 1 -3
BITMAP
0C0030
180018
300018
6001CC
67FFEC
630006
C00E06
C18706
C0C706
C0C606
C0E606
C00C06
C00C66
6FFFFC
60000C
600018
300018
180030
0C0000
ENDCHAR
STARTCHAR C024476
ENCODING 10558
SWIDTH 2400 0
DWIDTH 24 0
BBX 23 18 1 -2
BITMAP
180030
300018
30C018
607E0C
60000C
C000C6
C01FF6
CFF006
C01806
C0FC06
C1C706
C18306
C18306
61830C
61C60C
307C18
300018
180030
ENDCHAR
STARTCHAR C024477
ENCODING 10559
SWIDTH 2400 0
DWIDTH 24 0
BBX 23 18 1 -2
BITMAP
180730
300198
300198
60018C
60198C
CFFD86
C71986
C03986
C07186
C061FE
C0C186
C18186
C30186
6E018C
60018C
300198
300198
1801B0
ENDCHAR
STARTCHAR C024500
ENCODING 10560
SWIDTH 2400 0
DWIDTH 24 0
BBX 23 18 1 -2
BITMAP
180730
300198
300198
60018C
7E018C
C60186
C60186
C60186
C601F6
C601F6
C60786
C67D86
C7C186
60018C
60018C
300198
300198
1801B0
ENDCHAR
STARTCHAR C024501
ENCODING 10561
SWIDTH 2400 0
DWIDTH 24 0
BBX 23 18 1 -2
BITMAP
180030
300398
300198
60018C
60398C
CFF986
C60186
C60186
C601B6
C601FE
C60186
C61D86
C7F186
60018C
60018C
300198
300198
180030
ENDCHAR
STARTCHAR C024502
ENCODING 10562
SWIDTH 2400 0
DWIDTH 24 0
BBX 23 18 1 -2
BITMAP
180030
300398
300198
60018C
60018C
CFF986
C63986
CC3186
CFF986
C601FE
C60186
C60786
C67D86
67C18C
60018C
300198
300198
1801B0
ENDCHAR
STARTCHAR C024503
ENCODING 10563
SWIDTH 2400 0
DWIDTH 24 0
BBX 23 18 1 -2
BITMAP
180730
300198
300198
60018C
60018C
CFFD86
C61986
C61986
C61986
C619FE
C63186
C7F986
C60186
60018C
60018C
300198
300198
180030
ENDCHAR
STARTCHAR C024504
ENCODING 10564
SWIDTH 2400 0
DWIDTH 24 0
BBX 23 18 1 -2
BITMAP
180730
300198
300198
60018C
60718C
CE3186
C63186
C63186
C7F186
C631FE
C63186
C63186
C7F186
66318C
60018C
300198
300198
180030
ENDCHAR
STARTCHAR C024505
ENCODING 10565
SWIDTH 2400 0
DWIDTH 24 0
BBX 23 18 1 -2
BITMAP
180730
300198
300198
61C18C
60618C
C0E186
C0C186
C1C186
C1C186
C371FE
C63986
CC1D86
D80186
60018C
60018C
300198
300198
180030
ENDCHAR
STARTCHAR C024506
ENCODING 10566
SWIDTH 2400 0
DWIDTH 24 0
BBX 23 18 1 -2
BITMAP
180730
300198
300198
61818C
67E18C
CC3186
D81986
D81986
D819F6
D819C6
CC3186
C7E186
C00186
60018C
60018C
300198
300198
180030
ENDCHAR
STARTCHAR C024507
ENCODING 10567
SWIDTH 2400 0
DWIDTH 24 0
BBX 23 18 1 -2
BITMAP
180730
300198
300198
60018C
60798C
CFF186
C07186
C0E186
C0C1B6
C1F1FE
C33986
C61D86
DC0186
60018C
60018C
300198
300198
180030
ENDCHAR
STARTCHAR C024510
ENCODING 10568
SWIDTH 2400 0
DWIDTH 24 0
BBX 23 18 1 -2
BITMAP
180730
3001D8
300198
63F18C
60018C
C01986
CFF986
C03186
C061BE
C0C1F6
C1F186
C33986
C61D86
7C018C
60018C
300198
300198
180030
ENDCHAR
STARTCHAR C024511
ENCODING 10569
SWIDTH 2400 0
DWIDTH 24 0
BBX 23 18 1 -2
BITMAP
180030
300398
300198
60018C
60398C
CFF986
C03986
C03186
DFE186
CEE1FE
C0C186
C18186
C30186
66018C
7C018C
300198
300198
1801B0
ENDCHAR
STARTCHAR C024512
ENCODING 10570
SWIDTH 2400 0
DWIDTH 24 0
BBX 23 18 1 -2
BITMAP
180030
300398
300198
60018C
60318C
CFF186
C60186
C63186
C7F186
C601FE
C60186
C60F86
C7F986
67818C
60018C
300198
300198
180030
ENDCHAR
STARTCHAR C024513
ENCODING 10571
SWIDTH 2400 0
DWIDTH 24 0
BBX 23 18 1 -2
BITMAP
180630
300398
300198
60018C
6CFD8C
C78186
C03986
C03986
C33186
C3B1FE
C33186
C07D86
CFC186
60018C
60018C
300198
300198
1801B0
ENDCHAR
STARTCHAR C024514
ENCODING 10572
SWIDTH 2400 0
DWIDTH 24 0
BBX 23 19 1 -3
BITMAP
180700
3001B0
300198
61F18C
60018C
C00D8C
DFFF86
C6C186
C3F186
C739FE
C71986
C71986
C73986
63F18C
60018C
300198
300198
180030
000060
ENDCHAR
STARTCHAR C024515
ENCODING 10573
SWIDTH 2400 0
DWIDTH 24 0
BBX 23 18 1 -2
BITMAP
180030
300018
300018
60000C
607C0C
C1C606
C1C606
C00606
C01E06
C0F606
C1C606
C1C606
C1CE06
61FF8C
60000C
300018
300018
180030
ENDCHAR
STARTCHAR C024516
ENCODING 10574
SWIDTH 2400 0
DWIDTH 24 0
BBX 23 18 1 -2
BITMAP
180030
30C018
33C018
60C00C
60C00C
C0C006
C0DC06
C0F706
C0C386
C0C186
C0C186
C0C186
C0C186
60C18C
60C30C
30E618
303C18
180030
ENDCHAR
STARTCHAR C024517
ENCODING 10575
SWIDTH 2400 0
DWIDTH 24 0
BBX 23 18 1 -2
BITMAP
180030
300018
300018
60000C
607E0C
C0C706
C1C306
C18006
C18006
C18006
C18006
C1C006
C0E306
607E0C
60000C
300018
300018
180030
ENDCHAR
STARTCHAR C024520
ENCODING 10576
SWIDTH 2400 0
DWIDTH 24 0
BBX 23 18 1 -2
BITMAP
180030
300618
301E18
60060C
60060C
C00606
C07E06
C1CE06
C18606
C30606
C30606
C30606
C30606
63060C
618E0C
30FF18
300018
180030
ENDCHAR
STARTCHAR C024521
ENCODING 10577
SWIDTH 2400 0
DWIDTH 24 0
BBX 23 18 1 -2
BITMAP
180030
300018
300018
60000C
607C0C
C0E606
C0C306
C1C306
C1FF06
C18006
C18006
C18006
C1C006
60E60C
607C0C
300018
300018
180030
ENDCHAR
STARTCHAR C024522
ENCODING 10578
SWIDTH 2400 0
DWIDTH 24 0
BBX 23 18 1 -2
BITMAP
180030
300018
301F18
60300C
60300C
C03006
C03006
C0FE06
C03006
C03006
C03006
C03006
C03006
60300C
60300C
303018
30FC18
180030
ENDCHAR
STARTCHAR C024523
ENCODING 10579
SWIDTH 2400 0
DWIDTH 24 0
BBX 23 18 1 -2
BITMAP
180000
300030
307998
61CF8C
61860C
C1860C
C18606
C18E06
C0FC06
C1B006
C1E006
C0FE06
C38706
67030C
63070C
31FC18
300018
180030
ENDCHAR
STARTCHAR C024524
ENCODING 10580
SWIDTH 2400 0
DWIDTH 24 0
BBX 23 18 1 -2
BITMAP
180030
30C018
33C018
60C00C
60C00C
C0C006
C0DC06
C0F706
C0C306
C0C306
C0C306
C0C306
C0C306
60C30C
60C30C
31E798
300018
180030
ENDCHAR
STARTCHAR C024525
ENCODING 10581
SWIDTH 2400 0
DWIDTH 24 0
BBX 23 18 1 -2
BITMAP
180030
303818
303818
60000C
60000C
C00006
C01806
C07806
C01806
C01806
C01806
C01806
C01806
60180C
60180C
303C18
300018
180030
ENDCHAR
STARTCHAR C024526
ENCODING 10582
SWIDTH 2400 0
DWIDTH 24 0
BBX 23 18 1 -2
BITMAP
003830
383818
300018
60000C
60000C
C03806
C03806
C01806
C01806
C01806
C01806
C01806
C01806
60180C
60180C
301818
30F018
18E030
ENDCHAR
STARTCHAR C024527
ENCODING 10583
SWIDTH 2400 0
DWIDTH 24 0
BBX 23 18 1 -2
BITMAP
180030
30C018
31C018
60C00C
60C00C
C0C006
C0CF86
C0C706
C0CC06
C0D806
C0F806
C0FC06
C0CE06
60C60C
60C70C
31E7D8
300018
180030
ENDCHAR
STARTCHAR C024530
ENCODING 10584
SWIDTH 2400 0
DWIDTH 24 0
BBX 23 18 1 -2
BITMAP
180030
301818
303818
60180C
60180C
C01806
C01806
C01806
C01806
C01806
C01806
C01806
C01806
60180C
60180C
303C18
300018
180030
ENDCHAR
STARTCHAR C024531
ENCODING 10585
SWIDTH 2400 0
DWIDTH 24 0
BBX 23 18 1 -2
BITMAP
180030
300018
300018
60000C
7FF7CC
CE3C66
CC1866
CC1866
CC1866
CC1866
CC1866
CC1866
CC1866
780C0C
60000C
300018
300018
180030
ENDCHAR
STARTCHAR C024532
ENCODING 10586
SWIDTH 2400 0
DWIDTH 24 0
BBX 23 18 1 -2
BITMAP
180030
300018
300018
60000C
63BE0C
C1E706
C18306
C18306
C18306
C18306
C18306
C18306
C18306
60000C
60000C
300018
300018
180030
ENDCHAR
STARTCHAR C024533
ENCODING 10587
SWIDTH 2400 0
DWIDTH 24 0
BBX 23 18 1 -2
BITMAP
180030
300018
300018
60000C
607C0C
C0EE06
C0C706
C18306
C18306
C18306
C18306
C1C606
C0CE06
607C0C
60000C
300018
300018
180030
ENDCHAR
STARTCHAR C024534
ENCODING 10588
SWIDTH 2400 0
DWIDTH 24 0
BBX 23 18 1 -2
BITMAP
180030
300018
300018
61FE0C
60E30C
C0C186
C0C186
C0C186
C0C186
C0C186
C0C306
C0E306
C0FE06
60C00C
60C00C
31E018
300018
180030
ENDCHAR
STARTCHAR C024535
ENCODING 10589
SWIDTH 2400 0
DWIDTH 24 0
BBX 23 18 1 -2
BITMAP
180030
300018
300018
60FE0C
618E0C
C30606
C30606
C30606
C30606
C30606
C18606
C1CE06
C07E06
60060C
60060C
300F18
300018
180030
ENDCHAR
STARTCHAR C024536
ENCODING 10590
SWIDTH 2400 0
DWIDTH 24 0
BBX 23 18 1 -2
BITMAP
180030
300018
300018
60000C
60EF0C
C07E06
C06006
C06006
C06006
C06006
C06006
C06006
C06006
60F00C
60000C
300018
300018
180030
ENDCHAR
STARTCHAR C024537
ENCODING 10591
SWIDTH 2400 0
DWIDTH 24 0
BBX 23 18 1 -2
BITMAP
180030
300018
300018
60000C
60FE0C
C0C606
C1C306
C0E006
C07E06
C00F06
C00306
C18306
C0C306
60FE0C
60000C
300018
300018
180030
ENDCHAR
STARTCHAR C024540
ENCODING 10592
SWIDTH 2400 0
DWIDTH 24 0
BBX 23 18 1 -2
BITMAP
180030
300018
300018
60600C
60600C
C06006
C1FC06
C06006
C06006
C06006
C06006
C06006
C06006
60600C
60660C
307C18
300018
180030
ENDCHAR
STARTCHAR C024541
ENCODING 10593
SWIDTH 2400 0
DWIDTH 24 0
BBX 23 18 1 -2
BITMAP
180030
300018
300018
60000C
63870C
C18306
C18306
C18306
C18306
C18306
C18306
C18306
C1CF06
60FB8C
60000C
300018
300018
180030
ENDCHAR
STARTCHAR C024542
ENCODING 10594
SWIDTH 2400 0
DWIDTH 24 0
BBX 23 18 1 -2
BITMAP
180030
300018
300018
60000C
60000C
C3C786
C1C306
C0C606
C0E606
C0EC06
C06C06
C07806
C03806
60380C
60000C
300018
300018
180030
ENDCHAR
STARTCHAR C024543
ENCODING 10595
SWIDTH 2400 0
DWIDTH 24 0
BBX 23 18 1 -2
BITMAP
180030
300018
300018
60000C
60000C
CF38E6
C638C6
C738C6
C33D86
C36D86
C3ED86
C1EF06
C1C706
61C60C
60000C
300018
300018
180030
ENDCHAR
STARTCHAR C024544
ENCODING 10596
SWIDTH 2400 0
DWIDTH 24 0
BBX 23 18 1 -2
BITMAP
180030
300018
300018
60000C
63EF8C
C1C606
C0EC06
C07806
C03806
C03806
C07C06
C0CE06
C18706
67CFCC
60000C
300018
300018
180030
ENDCHAR
STARTCHAR C024545
ENCODING 10597
SWIDTH 2400 0
DWIDTH 24 0
BBX 23 18 1 -2
BITMAP
180030
300018
300018
60000C
61E38C
C0C306
C0E306
C06606
C07606
C07C06
C03C06
C03806
C01806
60180C
60300C
31F018
30C018
180030
ENDCHAR
STARTCHAR C024546
ENCODING 10598
SWIDTH 2400 0
DWIDTH 24 0
BBX 23 19 1 -2
BITMAP
000060
180030
300018
300018
60000C
60FF0C
C0E606
C00E06
C01C06
C01806
C03006
C06006
C0E306
C0C70C
61FE0C
60000C
300018
300030
180000
ENDCHAR
STARTCHAR C024547
ENCODING 10599
SWIDTH 2400 0
DWIDTH 24 0
BBX 23 18 1 -2
BITMAP
180030
303818
31F818
60180C
60180C
C01806
C01806
C01806
C01806
C01806
C01806
C01806
C01806
60180C
60180C
301818
30FF18
180030
ENDCHAR
STARTCHAR C024550
ENCODING 10600
SWIDTH 2400 0
DWIDTH 24 0
BBX 23 18 1 -2
BITMAP
180030
307E18
30C718
61838C
61838C
C1C386
C00306
C00706
C00C06
C01806
C03006
C06006
C0C186
61818C
63030C
33FF18
300018
180030
ENDCHAR
STARTCHAR C024551
ENCODING 10601
SWIDTH 2400 0
DWIDTH 24 0
BBX 23 18 1 -2
BITMAP
180030
307E18
31C718
61C30C
61830C
C00306
C00606
C00C06
C07806
C00E06
C00306
C00186
C00186
61C18C
61818C
30C318
307E18
180030
ENDCHAR
STARTCHAR C024552
ENCODING 10602
SWIDTH 2400 0
DWIDTH 24 0
BBX 23 18 1 -2
BITMAP
180030
300C18
301C18
601C0C
603C0C
C06C06
C06C06
C0CC06
C0CC06
C18C06
C30C06
C30C06
C3FF86
600C0C
600C0C
300C18
303F18
180030
ENDCHAR
STARTCHAR C024553
ENCODING 10603
SWIDTH 2400 0
DWIDTH 24 0
BBX 23 18 1 -2
BITMAP
180030
31FF18
318018
61800C
61800C
C18006
C19806
C1FE06
C18306
C00386
C00386
C00386
C18386
61C38C
61830C
30C618
307C18
180030
ENDCHAR
STARTCHAR C024554
ENCODING 10604
SWIDTH 2400 0
DWIDTH 24 0
BBX 23 18 1 -2
BITMAP
180030
307E18
30C718
61870C
61800C
C30006
C30006
C37E06
C3C306
C30386
C30186
C30186
C30186
63018C
61830C
30C718
307C18
180030
ENDCHAR
STARTCHAR C024555
ENCODING 10605
SWIDTH 2400 0
DWIDTH 24 0
BBX 23 18 1 -2
BITMAP
180030
300018
31FF98
61830C
61830C
C00606
C00606
C00C06
C00C06
C01806
C01806
C03006
C03006
60700C
60700C
307018
306018
180030
ENDCHAR
STARTCHAR C024556
ENCODING 10606
SWIDTH 2400 0
DWIDTH 24 0
BBX 23 18 1 -2
BITMAP
180000
307E30
31C718
61830C
61830C
C1830C
C1C606
C07C06
C07E06
C1CF06
C18386
C38386
C38186
63818C
61830C
30C618
307C18
180030
ENDCHAR
STARTCHAR C024557
ENCODING 10607
SWIDTH 2400 0
DWIDTH 24 0
BBX 23 18 1 -2
BITMAP
180030
300018
30FC18
60C60C
61830C
C18306
C18306
C18306
C18306
C0CF06
C07B06
C00306
C00306
60060C
61C60C
31CC18
307818
180030
ENDCHAR
STARTCHAR C024560
ENCODING 10608
SWIDTH 2400 0
DWIDTH 24 0
BBX 23 18 1 -2
BITMAP
180030
318798
378DD8
618CCC
618CCC
C19866
C19866
C19866
C19866
C19866
C19866
C19866
C19866
6198CC
618CCC
318D98
330718
180030
ENDCHAR
STARTCHAR C024561
ENCODING 10609
SWIDTH 2400 0
DWIDTH 24 0
BBX 23 18 1 -2
BITMAP
180030
300018
300018
63838C
67878C
C18186
C18186
C18186
C18186
C18186
C18186
C18186
C18186
61818C
67E7EC
300018
300018
180030
ENDCHAR
STARTCHAR C024562
ENCODING 10610
SWIDTH 2400 0
DWIDTH 24 0
BBX 23 19 1 -3
BITMAP
0C0030
180018
300018
6F07CC
630C6C
630C76
C30C76
C30066
C300E6
C30186
C30306
C30606
C30606
630C3C
6FCFFC
600018
300018
180030
0C0000
ENDCHAR
STARTCHAR C024563
ENCODING 10611
SWIDTH 2400 0
DWIDTH 24 0
BBX 23 18 1 -2
BITMAP
180030
300018
300018
6F07EC
630E7C
C30676
C30076
C30066
C303C6
C30066
C30036
C30036
C30E36
630E7C
6FC7CC
300018
300018
180030
ENDCHAR
STARTCHAR C024564
ENCODING 10612
SWIDTH 2400 0
DWIDTH 24 0
BBX 23 18 1 -2
BITMAP
180030
300018
300018
6700CC
6F01CC
C301C6
C303C6
C303C6
C306C6
C30CC6
C30CC6
C31FF6
C300C6
6300CC
6FC1EC
300018
300018
180030
ENDCHAR
STARTCHAR C024565
ENCODING 10613
SWIDTH 2400 0
DWIDTH 24 0
BBX 23 18 1 -2
BITMAP
180030
300018
300018
638FEC
678C0C
C18C06
C18C06
C18F86
C18EC6
C18066
C18066
C18066
C19C66
618CCC
67E78C
300318
300018
180030
ENDCHAR
STARTCHAR C024566
ENCODING 10614
SWIDTH 2400 0
DWIDTH 24 0
BBX 6 10 10 8
BITMAP
30
70
30
30
30
30
30
30
30
FC
ENDCHAR
STARTCHAR C024567
ENCODING 10615
SWIDTH 2400 0
DWIDTH 24 0
BBX 7 9 9 8
BITMAP
7E
E6
E6
0E
1C
38
60
C6
FE
ENDCHAR
STARTCHAR C024570
ENCODING 10616
SWIDTH 2400 0
DWIDTH 24 0
BBX 7 11 9 7
BITMAP
7C
EE
EE
0E
1C
3C
06
C6
C6
FC
30
ENDCHAR
STARTCHAR C024571
ENCODING 10617
SWIDTH 2400 0
DWIDTH 24 0
BBX 7 9 9 8
BITMAP
0C
1C
3C
3C
6C
CC
FE
0C
1E
ENDCHAR
STARTCHAR C024572
ENCODING 10618
SWIDTH 2400 0
DWIDTH 24 0
BBX 10 8 8 8
BITMAP
1F00
F180
6180
6180
6180
6180
6180
E3C0
ENDCHAR
STARTCHAR C024573
ENCODING 10619
SWIDTH 2400 0
DWIDTH 24 0
BBX 6 10 9 -4
BITMAP
30
70
30
30
30
30
30
30
30
FC
ENDCHAR
STARTCHAR C024574
ENCODING 10620
SWIDTH 2400 0
DWIDTH 24 0
BBX 7 9 9 -4
BITMAP
7E
E6
E6
0E
1C
38
60
C6
FE
ENDCHAR
STARTCHAR C024575
ENCODING 10621
SWIDTH 2400 0
DWIDTH 24 0
BBX 8 11 9 -5
BITMAP
3C
6E
E6
06
0C
3C
06
E7
E6
7C
18
ENDCHAR
STARTCHAR C024576
ENCODING 10622
SWIDTH 2400 0
DWIDTH 24 0
BBX 7 9 9 -4
BITMAP
0C
1C
3C
3C
6C
CC
FE
0C
1E
ENDCHAR
STARTCHAR C024577
ENCODING 10623
SWIDTH 2400 0
DWIDTH 24 0
BBX 0 0 0 0
BITMAP
ENDCHAR
STARTCHAR C025040
ENCODING 10784
SWIDTH 2400 0
DWIDTH 24 0
BBX 1 4 24 -2
BITMAP
80
00
00
80
ENDCHAR
STARTCHAR C025041
ENCODING 10785
SWIDTH 2400 0
DWIDTH 24 0
BBX 14 15 5 -3
BITMAP
0300
0700
06E0
3F80
0600
06C0
07F0
0F98
3D8C
6F0C
6E0C
DE0C
7E18
6030
00E0
ENDCHAR
STARTCHAR C025042
ENCODING 10786
SWIDTH 2400 0
DWIDTH 24 0
BBX 17 19 4 -2
BITMAP
038000
038000
038000
03B800
7FF800
1F0000
076000
073000
06F800
07FE00
1EE380
3EC380
678180
E70180
C70380
DF0380
FB0700
E00E00
003800
ENDCHAR
STARTCHAR C025043
ENCODING 10787
SWIDTH 2400 0
DWIDTH 24 0
BBX 14 9 6 -2
BITMAP
C000
C000
C070
C038
C018
C01C
781C
7000
3000
ENDCHAR
STARTCHAR C025044
ENCODING 10788
SWIDTH 2400 0
DWIDTH 24 0
BBX 17 12 4 1
BITMAP
C00000
C00000
C03C00
C00600
C00300
C00380
C60180
CC0380
7C0780
780180
780000
380000
ENDCHAR
STARTCHAR C025045
ENCODING 10789
SWIDTH 2400 0
DWIDTH 24 0
BBX 9 15 8 -2
BITMAP
0C00
0700
0300
0000
0000
1F00
F180
0180
0180
0380
0300
0300
0600
0600
0C00
ENDCHAR
STARTCHAR C025046
ENCODING 10790
SWIDTH 2400 0
DWIDTH 24 0
BBX 11 20 7 -3
BITMAP
0C00
0780
03C0
00C0
0000
0000
03C0
DCE0
7860
0060
0060
0060
0060
00E0
00C0
00C0
0180
0380
0700
0C00
ENDCHAR
STARTCHAR C025047
ENCODING 10791
SWIDTH 2400 0
DWIDTH 24 0
BBX 13 14 6 -2
BITMAP
0600
0380
0180
0000
0380
3F80
0300
0600
0C00
1800
3C00
6600
E700
C3F8
ENDCHAR
STARTCHAR C025050
ENCODING 10792
SWIDTH 2400 0
DWIDTH 24 0
BBX 17 19 4 -2
BITMAP
030000
03C000
00E000
007000
000000
000000
01F000
1FF000
1CE000
01C000
038000
070000
060000
0C0000
1F0000
798000
F1C000
E0FF80
003F80
ENDCHAR
STARTCHAR C025051
ENCODING 10793
SWIDTH 2400 0
DWIDTH 24 0
BBX 15 13 5 -2
BITMAP
0E00
0E00
0C3C
6F8E
3C1E
0C00
0CF0
0F98
1C0C
3C0C
FC1C
7DF8
1C00
ENDCHAR
STARTCHAR C025052
ENCODING 10794
SWIDTH 2400 0
DWIDTH 24 0
BBX 19 17 3 -1
BITMAP
070000
070000
070000
0607C0
07E1E0
7FC1E0
060000
060000
063E00
07E380
0700C0
0E00C0
1E00C0
FE01C0
F60380
1E1F00
0E0000
ENDCHAR
STARTCHAR C025053
ENCODING 10795
SWIDTH 2400 0
DWIDTH 24 0
BBX 19 17 3 -1
BITMAP
060000
038000
038000
038000
030700
07F380
FE39C0
FE38E0
0C38E0
0C39E0
183060
383000
307000
706000
E6E000
E3C000
C38000
ENDCHAR
STARTCHAR C025054
ENCODING 10796
SWIDTH 2400 0
DWIDTH 24 0
BBX 21 17 3 -1
BITMAP
070000
038070
0381B8
0300E0
076660
0FF380
FE39C0
6C38E0
0C38E0
1C33E0
183060
387000
707000
70E000
E7E000
C3C000
018000
ENDCHAR
STARTCHAR C025055
ENCODING 10797
SWIDTH 2400 0
DWIDTH 24 0
BBX 13 19 6 -2
BITMAP
3800
1C00
0CE0
0FC0
FE00
6700
0378
03E0
FFC0
00E0
0070
0078
7FF8
C038
C000
C000
F000
7FC0
0FC0
ENDCHAR
STARTCHAR C025056
ENCODING 10798
SWIDTH 2400 0
DWIDTH 24 0
BBX 18 19 5 -2
BITMAP
1C0000
0E0380
067FC0
07E700
7F0000
338000
01FC00
01F000
7FE000
007000
003000
003C00
3FFC00
601C00
C00000
600000
780000
3FE000
07E000
ENDCHAR
STARTCHAR C025057
ENCODING 10799
SWIDTH 2400 0
DWIDTH 24 0
BBX 9 19 8 -2
BITMAP
0300
0380
0780
0700
0E00
1800
3000
6000
C000
C000
E000
7000
3800
1C00
0E00
0700
0700
0380
0380
ENDCHAR
STARTCHAR C025060
ENCODING 10800
SWIDTH 2400 0
DWIDTH 24 0
BBX 14 19 8 -2
BITMAP
0300
0380
0380
0700
0E30
18DC
307C
6070
C000
C000
E000
7000
3800
1C00
0E00
0700
0700
0380
0380
ENDCHAR
STARTCHAR C025061
ENCODING 10801
SWIDTH 2400 0
DWIDTH 24 0
BBX 19 18 3 -1
BITMAP
000C00
700E00
700600
700600
600600
6007E0
E1FFE0
C00600
C00600
C00600
C00600
F00600
F00600
F00E00
E00C00
600C00
601800
001800
ENDCHAR
STARTCHAR C025062
ENCODING 10802
SWIDTH 2400 0
DWIDTH 24 0
BBX 21 18 3 -1
BITMAP
000070
700FB8
3006D8
7006E0
700600
6007E0
61FFE0
600600
E00600
C00600
D80600
D80600
F00600
F00E00
700C00
700C00
301800
001800
ENDCHAR
STARTCHAR C025063
ENCODING 10803
SWIDTH 2400 0
DWIDTH 24 0
BBX 15 15 5 0
BITMAP
3000
1FF0
01F8
0380
0000
0000
0000
0000
C000
0000
C000
C000
600E
3FFE
0FFC
ENDCHAR
STARTCHAR C025064
ENCODING 10804
SWIDTH 2400 0
DWIDTH 24 0
BBX 18 16 5 0
BITMAP
000300
300380
1FF7C0
01FF00
038000
000000
000000
000000
000000
C00000
000000
C00000
C00000
700E00
3FFE00
0FFC00
ENDCHAR
STARTCHAR C025065
ENCODING 10805
SWIDTH 2400 0
DWIDTH 24 0
BBX 15 18 5 -2
BITMAP
0F00
0FE0
073C
03FC
C3F0
7E60
0030
0038
001C
0FFE
381E
6000
6000
6000
7000
3C00
1FF0
03F0
ENDCHAR
STARTCHAR C025066
ENCODING 10806
SWIDTH 2400 0
DWIDTH 24 0
BBX 19 18 5 -2
BITMAP
0F01C0
0FE7E0
073F80
03FD80
C3F000
7E6000
007000
003800
001C00
0FFE00
381E00
600000
600000
600000
700000
3C0000
1FF000
03F000
ENDCHAR
STARTCHAR C025067
ENCODING 10807
SWIDTH 2400 0
DWIDTH 24 0
BBX 15 18 6 -2
BITMAP
E000
7000
7000
7000
6000
6000
6000
6000
6000
6000
6000
6000
6000
600E
601C
70F0
3FE0
0E00
ENDCHAR
STARTCHAR C025070
ENCODING 10808
SWIDTH 2400 0
DWIDTH 24 0
BBX 14 18 6 -2
BITMAP
E000
7000
7180
60E0
63F0
6180
6180
6000
6000
6000
6000
E000
E000
E00C
6018
70F0
3FC0
0E00
ENDCHAR
STARTCHAR C025071
ENCODING 10809
SWIDTH 2400 0
DWIDTH 24 0
BBX 20 20 2 -2
BITMAP
006000
007000
003800
003000
003000
03FFF0
FF3000
303000
00F000
01F800
033800
033800
033800
01B800
00F800
003800
003000
007000
006000
00C000
ENDCHAR
STARTCHAR C025072
ENCODING 10810
SWIDTH 2400 0
DWIDTH 24 0
BBX 20 20 3 -2
BITMAP
00C000
00E1C0
0077E0
007300
006000
03FFF0
FE6000
706000
01E000
03F000
067000
067000
067000
037000
01F000
007000
006000
00E000
00C000
018000
ENDCHAR
STARTCHAR C025073
ENCODING 10811
SWIDTH 2400 0
DWIDTH 24 0
BBX 22 16 2 0
BITMAP
000600
000300
060380
070300
030300
030300
037FFC
DFC600
FB0600
030600
033E00
031E00
030C00
018000
01C000
00FFC0
ENDCHAR
STARTCHAR C025074
ENCODING 10812
SWIDTH 2400 0
DWIDTH 24 0
BBX 22 16 2 0
BITMAP
000E18
0007DC
07077C
070630
030600
030600
03FFF8
DFC600
FF0600
030600
033E00
031E00
030C00
018000
01C000
00FFC0
ENDCHAR
STARTCHAR C025075
ENCODING 10813
SWIDTH 2400 0
DWIDTH 24 0
BBX 17 19 4 -2
BITMAP
003000
0DF800
0FB800
007000
00C000
018000
030000
0E3F80
1BF800
3EC000
F98000
E30000
030000
030000
030000
038000
01E000
00F800
003800
ENDCHAR
STARTCHAR C025076
ENCODING 10814
SWIDTH 2400 0
DWIDTH 24 0
BBX 20 19 4 -2
BITMAP
003000
0DF800
0FB8E0
0073F0
00C180
018180
030000
0E3F80
1BFE00
3EC000
F98000
E30000
030000
030000
030000
038000
01E000
00F800
003800
ENDCHAR
STARTCHAR C025077
ENCODING 10815
SWIDTH 2400 0
DWIDTH 24 0
BBX 19 17 3 -1
BITMAP
060000
078000
030000
07E000
07C000
FE1F00
0C03C0
0C03C0
0C07C0
180000
180000
380000
300000
718000
E0C000
E0F800
003FE0
ENDCHAR
STARTCHAR C025100
ENCODING 10816
SWIDTH 2400 0
DWIDTH 24 0
BBX 21 17 3 -1
BITMAP
070000
038038
0301D8
07E0E0
07C060
FF1F00
0603C0
0C01E0
0C03C0
180000
180000
380000
300000
70C000
60C000
E0F000
003FE0
ENDCHAR
STARTCHAR C025101
ENCODING 10817
SWIDTH 2400 0
DWIDTH 24 0
BBX 17 18 4 -2
BITMAP
0E0000
070000
060000
06F000
CFE000
7C0000
0C0000
0C0000
0C0000
18FE00
1B8300
1E0380
3C0180
380380
000780
000F00
001E00
00F800
ENDCHAR
STARTCHAR C025102
ENCODING 10818
SWIDTH 2400 0
DWIDTH 24 0
BBX 20 19 4 -2
BITMAP
0C0000
070000
060000
0600E0
CFF370
FF8380
3C0180
0C0000
0C0000
1C0000
19FF00
1F0380
3C0180
380380
380380
000700
000F00
003C00
01F000
ENDCHAR
STARTCHAR C025103
ENCODING 10819
SWIDTH 2400 0
DWIDTH 24 0
BBX 17 11 4 -3
BITMAP
003800
03EE00
DE0300
700300
000380
000300
000300
000600
001C00
007000
00C000
ENDCHAR
STARTCHAR C025104
ENCODING 10820
SWIDTH 2400 0
DWIDTH 24 0
BBX 19 12 3 0
BITMAP
01FF80
0781C0
FE00E0
F80060
300060
000060
0000E0
0000E0
0001C0
000380
000F00
007800
ENDCHAR
STARTCHAR C025105
ENCODING 10821
SWIDTH 2400 0
DWIDTH 24 0
BBX 23 16 1 -1
BITMAP
00000E
000006
00003A
007F9C
03C0E0
DF0070
7C0030
380030
000030
000070
000070
0000E0
0001C0
000780
001C00
003000
ENDCHAR
STARTCHAR C025106
ENCODING 10822
SWIDTH 2400 0
DWIDTH 24 0
BBX 18 17 3 -1
BITMAP
000FC0
00FFC0
EF9C00
7C3000
006000
00C000
018000
018000
018000
030000
038000
018000
018000
01C000
00FC00
003F00
000600
ENDCHAR
STARTCHAR C025107
ENCODING 10823
SWIDTH 2400 0
DWIDTH 24 0
BBX 21 17 3 -1
BITMAP
000FC0
00FFC0
EF9C00
7C3000
006070
00C1F8
0180F8
018000
018000
030000
030000
018000
018000
01C000
00FC00
003F00
000600
ENDCHAR
STARTCHAR C025110
ENCODING 10824
SWIDTH 2400 0
DWIDTH 24 0
BBX 14 17 5 -1
BITMAP
3800
1C00
0C00
0C00
0C00
0C38
0CF8
0FE0
0F00
1C00
3800
6000
6000
C000
6000
7000
1FFC
ENDCHAR
STARTCHAR C025111
ENCODING 10825
SWIDTH 2400 0
DWIDTH 24 0
BBX 16 18 6 -1
BITMAP
300E
1807
1838
181C
180C
1870
19F0
1FC0
1E00
3800
3000
6000
C000
C000
C000
6000
3FF8
0FF0
ENDCHAR
STARTCHAR C025112
ENCODING 10826
SWIDTH 2400 0
DWIDTH 24 0
BBX 19 19 3 -2
BITMAP
038000
01C000
018000
03E000
FFF000
7F0000
0601C0
0C01E0
1C0FE0
181800
381800
701800
601800
001800
00F800
07BE00
061F00
063B00
03F000
ENDCHAR
STARTCHAR C025113
ENCODING 10827
SWIDTH 2400 0
DWIDTH 24 0
BBX 18 17 4 -1
BITMAP
C00000
700000
707F00
70C780
601C00
600000
E00000
C00000
C00000
D80000
F00000
F30000
F38000
F1FFC0
E07FC0
600000
600000
ENDCHAR
STARTCHAR C025114
ENCODING 10828
SWIDTH 2400 0
DWIDTH 24 0
BBX 21 16 2 -1
BITMAP
006000
007000
006000
307E00
31E380
3FE0E0
1CE060
18C070
3DC070
6F8070
6F8070
670070
CF0FE0
7FB9E0
7831F0
001F38
ENDCHAR
STARTCHAR C025115
ENCODING 10829
SWIDTH 2400 0
DWIDTH 24 0
BBX 20 18 3 -2
BITMAP
0E0000
060000
060000
060000
060000
0E1F00
FF7180
7FC0C0
0F00C0
1E00E0
1C00E0
3C00E0
3C00C0
6C3FC0
7C63C0
FC67E0
CC3F70
0C0000
ENDCHAR
STARTCHAR C025116
ENCODING 10830
SWIDTH 2400 0
DWIDTH 24 0
BBX 19 14 3 0
BITMAP
03FE00
0E6380
1C61C0
30E0E0
60C0E0
61C0E0
C380E0
C300E0
C700E0
CE00E0
6C01C0
780380
300700
000C00
ENDCHAR
STARTCHAR C025117
ENCODING 10831
SWIDTH 2400 0
DWIDTH 24 0
BBX 18 17 4 -1
BITMAP
701C00
700E00
700C00
700C00
600FC0
61FF80
E00C00
C00C00
C00C00
C00C00
F00C00
F00C00
F07C00
E3DF00
E30F80
E30D80
71F800
ENDCHAR
STARTCHAR C025120
ENCODING 10832
SWIDTH 2400 0
DWIDTH 24 0
BBX 20 18 4 -1
BITMAP
000060
701DB0
300EF0
700C60
700C00
600DE0
61FFC0
600C00
C00C00
C00C00
C00600
F00600
F00600
F03E00
F1FF80
E307C0
F18EC0
70FC00
ENDCHAR
STARTCHAR C025121
ENCODING 10833
SWIDTH 2400 0
DWIDTH 24 0
BBX 20 18 4 -1
BITMAP
0000F0
601D90
700F90
700CF0
600C00
600FC0
E1FF80
C00C00
C00C00
C00C00
C00C00
F00C00
F00C00
E0FC00
E39F00
E30F80
E31D80
61F800
ENDCHAR
STARTCHAR C025122
ENCODING 10834
SWIDTH 2400 0
DWIDTH 24 0
BBX 19 16 3 0
BITMAP
060E00
1F0E00
FE0E00
6C0600
1C0F00
180F00
380F80
300DC0
700CE0
600CE0
601800
603800
603000
707000
39E000
1FC000
ENDCHAR
STARTCHAR C025123
ENCODING 10835
SWIDTH 2400 0
DWIDTH 24 0
BBX 21 17 3 -1
BITMAP
000060
0F0FB8
FF0ED8
7E0EE0
1C0700
180F00
380F80
300DC0
700DE0
600CE0
601C60
601800
603800
607000
30E000
1FC000
0F0000
ENDCHAR
STARTCHAR C025124
ENCODING 10836
SWIDTH 2400 0
DWIDTH 24 0
BBX 21 17 3 -1
BITMAP
000078
0F0EC8
FF0EC8
7E0E78
1C0700
180F00
380F80
300DC0
700DE0
600CE0
601800
601800
603800
607000
30E000
1FC000
0F0000
ENDCHAR
STARTCHAR C025125
ENCODING 10837
SWIDTH 2400 0
DWIDTH 24 0
BBX 19 15 3 0
BITMAP
00C000
00F000
007800
007000
00C000
018000
018000
018000
00C000
00FE00
01F3C0
C770E0
DC30E0
FE73E0
73F000
ENDCHAR
STARTCHAR C025126
ENCODING 10838
SWIDTH 2400 0
DWIDTH 24 0
BBX 21 16 3 0
BITMAP
018000
00C000
00F000
007800
007078
00C1D8
0180E0
018000
018000
00C000
00FE00
01F3C0
0F70E0
FC30E0
FE73E0
73F000
ENDCHAR
STARTCHAR C025127
ENCODING 10839
SWIDTH 2400 0
DWIDTH 24 0
BBX 20 16 3 0
BITMAP
018000
00C000
007000
0071E0
007330
00C330
018330
0181E0
018000
00C000
007F00
03F1C0
0E70E0
F830E0
F673E0
73F000
ENDCHAR
STARTCHAR C025130
ENCODING 10840
SWIDTH 2400 0
DWIDTH 24 0
BBX 21 10 2 2
BITMAP
03C000
0E6000
1C3000
381800
F00E00
600700
0003C0
0001F0
000078
000038
ENDCHAR
STARTCHAR C025131
ENCODING 10841
SWIDTH 2400 0
DWIDTH 24 0
BBX 21 13 2 2
BITMAP
0000F0
000370
0001C0
03C0C0
0E6000
1C3000
381800
F00C00
600700
0003C0
0001E0
000078
000038
ENDCHAR
STARTCHAR C025132
ENCODING 10842
SWIDTH 2400 0
DWIDTH 24 0
BBX 21 13 2 2
BITMAP
0003C0
000360
000360
03C3C0
066000
1C3000
381800
F00E00
300700
0003C0
0001F0
000078
000038
ENDCHAR
STARTCHAR C025133
ENCODING 10843
SWIDTH 2400 0
DWIDTH 24 0
BBX 19 17 4 -1
BITMAP
700380
71FF80
706600
700600
6007C0
6007C0
E0FE00
C00600
C00600
F00600
F00600
F00600
F01E00
F0FFC0
E186E0
E0CE00
707C00
ENDCHAR
STARTCHAR C025134
ENCODING 10844
SWIDTH 2400 0
DWIDTH 24 0
BBX 21 17 3 -1
BITMAP
700380
30FF80
7006F8
700678
6007F0
600780
60FE00
C00600
D80600
F00600
F00600
F00600
F03E00
F0EFC0
F0C6E0
70CE00
707C00
ENDCHAR
STARTCHAR C025135
ENCODING 10845
SWIDTH 2400 0
DWIDTH 24 0
BBX 22 17 2 -1
BITMAP
3003BC
30FFE4
306664
70063C
7006C0
6007C0
60FE00
600600
D80600
D80600
F00600
F00600
F01E00
F0FFC0
F186E0
70CE00
707C00
ENDCHAR
STARTCHAR C025136
ENCODING 10846
SWIDTH 2400 0
DWIDTH 24 0
BBX 14 19 5 -2
BITMAP
0300
01C0
01C0
01C0
01BC
7FF8
0180
0180
01B8
7FF0
0180
0180
0180
0180
7FC0
C1F8
C3BC
FF8C
3F00
ENDCHAR
STARTCHAR C025137
ENCODING 10847
SWIDTH 2400 0
DWIDTH 24 0
BBX 19 15 3 0
BITMAP
01F000
0FF800
067000
00E000
00C000
018300
038300
030300
1FFF00
360780
6C07C0
D80EE0
D80C00
F01C00
E03800
ENDCHAR
STARTCHAR C025140
ENCODING 10848
SWIDTH 2400 0
DWIDTH 24 0
BBX 19 17 3 -1
BITMAP
1C0000
0E0000
0E0000
0FE000
FF0000
0C07C0
0C0CE0
3C0CE0
6E07E0
6E0660
6E0600
7C0600
3C0700
180700
180700
1C0F00
0FFE00
ENDCHAR
STARTCHAR C025141
ENCODING 10849
SWIDTH 2400 0
DWIDTH 24 0
BBX 19 17 3 -1
BITMAP
006000
003000
303000
307000
307800
1BFF80
1FE3C0
3CC0E0
7DC0E0
6D80E0
CF8060
C70060
CF00E0
DF80C0
F801C0
600700
001C00
ENDCHAR
STARTCHAR C025142
ENCODING 10850
SWIDTH 2400 0
DWIDTH 24 0
BBX 13 19 6 -2
BITMAP
1C00
0F00
0700
0600
CE00
7C00
1C00
3C00
7800
D860
D860
7830
3F38
3038
3038
3038
1838
1CF0
0FE0
ENDCHAR
STARTCHAR C025143
ENCODING 10851
SWIDTH 2400 0
DWIDTH 24 0
BBX 17 14 4 -2
BITMAP
00C000
006000
1FE000
183E00
0DE380
070180
DF0380
7B3F00
018000
00C000
00C000
006000
007000
007000
ENDCHAR
STARTCHAR C025144
ENCODING 10852
SWIDTH 2400 0
DWIDTH 24 0
BBX 21 17 2 -1
BITMAP
003800
039C00
0EFC00
0C07C0
0E3C70
07E038
078038
DF8038
FDCC70
00E7E0
006000
007000
003800
003800
001C00
001C00
000E00
ENDCHAR
STARTCHAR C025145
ENCODING 10853
SWIDTH 2400 0
DWIDTH 24 0
BBX 14 13 5 -2
BITMAP
0700
CD80
CFF0
DED8
D8CC
D8CC
F8CC
F8CC
ECDC
E7B8
63F0
0300
0600
ENDCHAR
STARTCHAR C025146
ENCODING 10854
SWIDTH 2400 0
DWIDTH 24 0
BBX 19 17 3 -1
BITMAP
01E000
C37000
663E00
66FF80
6799C0
6719C0
6E18E0
7E18E0
7E18E0
F618E0
F319C0
7399C0
71F780
707E00
006000
00E000
018000
ENDCHAR
STARTCHAR C025147
ENCODING 10855
SWIDTH 2400 0
DWIDTH 24 0
BBX 12 14 7 -2
BITMAP
0E00
0600
0600
0660
07E0
0600
0600
0600
0600
0600
3F00
E7E0
C6F0
7E00
ENDCHAR
STARTCHAR C025150
ENCODING 10856
SWIDTH 2400 0
DWIDTH 24 0
BBX 14 19 5 -2
BITMAP
0600
0700
0380
0300
0300
037C
03F0
0300
0300
0300
0300
0300
0300
0300
7FE0
E1F8
C1BC
F700
1E00
ENDCHAR
STARTCHAR C025151
ENCODING 10857
SWIDTH 2400 0
DWIDTH 24 0
BBX 14 18 5 -2
BITMAP
1C00
0E00
0700
0F00
3800
6000
6000
6000
6000
61F0
6F1C
F80C
F00C
E00C
E01C
0038
00F0
0380
ENDCHAR
STARTCHAR C025152
ENCODING 10858
SWIDTH 2400 0
DWIDTH 24 0
BBX 10 18 8 -2
BITMAP
C600
DF00
F380
F180
E1C0
E1C0
C1C0
C1C0
C1C0
C1C0
C1C0
C380
0380
0380
0700
0600
0C00
1800
ENDCHAR
STARTCHAR C025153
ENCODING 10859
SWIDTH 2400 0
DWIDTH 24 0
BBX 15 17 5 -1
BITMAP
01E0
1FE0
1CF0
01C0
0180
0300
0600
0C00
1FF8
1C1C
380E
F006
E006
0F8E
19CC
18F8
0FF0
ENDCHAR
STARTCHAR C025154
ENCODING 10860
SWIDTH 2400 0
DWIDTH 24 0
BBX 21 18 3 -2
BITMAP
0E0000
060000
060000
061F00
0E7700
1EC700
7F8700
0F0600
1E0600
1C0E00
3C0E00
3C0E00
7C0C00
6C0C00
FC0C18
DC0FF0
0C07C0
0C0000
ENDCHAR
STARTCHAR C025155
ENCODING 10861
SWIDTH 2400 0
DWIDTH 24 0
BBX 17 18 4 -1
BITMAP
006000
1BF000
0F7000
00E000
00C000
018000
030000
060000
0DFE00
1F0700
3C0380
700380
E00380
000380
000700
000E00
003C00
01E000
ENDCHAR
STARTCHAR C025156
ENCODING 10862
SWIDTH 2400 0
DWIDTH 24 0
BBX 16 14 5 -2
BITMAP
0600
0600
0600
0600
0E00
3EFC
0F8E
0E06
1C07
1C06
3C0E
7C1C
FC30
0C60
ENDCHAR
STARTCHAR C025157
ENCODING 10863
SWIDTH 2400 0
DWIDTH 24 0
BBX 19 19 3 -2
BITMAP
060000
030000
038000
030000
030000
070000
0F8000
3F3F80
1EE1C0
0780E0
0F00E0
1E00E0
1E00E0
1E00E0
3601C0
7E0380
EE0E00
063800
060000
ENDCHAR
STARTCHAR C025160
ENCODING 10864
SWIDTH 2400 0
DWIDTH 24 0
BBX 17 17 4 -1
BITMAP
01E000
0FE000
0EE000
00C000
01C000
018000
03FC00
07C700
0F0380
3E0180
7E0180
CC0180
DC3980
D8FF80
F0CF00
F0C700
007C00
ENDCHAR
STARTCHAR C025161
ENCODING 10865
SWIDTH 2400 0
DWIDTH 24 0
BBX 19 17 3 -1
BITMAP
0CF800
07B000
006000
00C000
01FC00
038E00
070600
0E0700
0FEE00
066E00
03F800
038000
060000
1C1F00
7E31C0
F3E1E0
E1C3E0
ENDCHAR
STARTCHAR C025162
ENCODING 10866
SWIDTH 2400 0
DWIDTH 24 0
BBX 16 19 5 -2
BITMAP
0700
0380
0300
07F0
FFC0
0C00
1C0C
180E
3F1F
73F8
E1C0
C380
0F80
1980
3180
3000
3000
1FF8
07F8
ENDCHAR
STARTCHAR C025163
ENCODING 10867
SWIDTH 2400 0
DWIDTH 24 0
BBX 19 17 3 -1
BITMAP
00C000
00E000
00E000
00C000
018000
018000
030000
060000
060000
0F8000
0EE000
1C6000
386060
3060C0
706180
E07F00
E03C00
ENDCHAR
STARTCHAR C025164
ENCODING 10868
SWIDTH 2400 0
DWIDTH 24 0
BBX 0 0 0 0
BITMAP
ENDCHAR
STARTCHAR C025165
ENCODING 10869
SWIDTH 2400 0
DWIDTH 24 0
BBX 1 2 24 16
BITMAP
80
80
ENDCHAR
STARTCHAR C025166
ENCODING 10870
SWIDTH 2400 0
DWIDTH 24 0
BBX 0 0 0 0
BITMAP
ENDCHAR
STARTCHAR C025167
ENCODING 10871
SWIDTH 2400 0
DWIDTH 24 0
BBX 0 0 0 0
BITMAP
ENDCHAR
STARTCHAR C025170
ENCODING 10872
SWIDTH 2400 0
DWIDTH 24 0
BBX 0 0 0 0
BITMAP
ENDCHAR
STARTCHAR C025171
ENCODING 10873
SWIDTH 2400 0
DWIDTH 24 0
BBX 0 0 0 0
BITMAP
ENDCHAR
STARTCHAR C025172
ENCODING 10874
SWIDTH 2400 0
DWIDTH 24 0
BBX 1 4 24 -2
BITMAP
80
00
00
80
ENDCHAR
STARTCHAR C025173
ENCODING 10875
SWIDTH 2400 0
DWIDTH 24 0
BBX 0 0 0 0
BITMAP
ENDCHAR
STARTCHAR C025174
ENCODING 10876
SWIDTH 2400 0
DWIDTH 24 0
BBX 0 0 0 0
BITMAP
ENDCHAR
STARTCHAR C025175
ENCODING 10877
SWIDTH 2400 0
DWIDTH 24 0
BBX 0 0 0 0
BITMAP
ENDCHAR
STARTCHAR C025176
ENCODING 10878
SWIDTH 2400 0
DWIDTH 24 0
BBX 0 0 0 0
BITMAP
ENDCHAR
STARTCHAR C025177
ENCODING 10879
SWIDTH 2400 0
DWIDTH 24 0
BBX 1 21 24 -4
BITMAP
80
00
00
80
00
00
00
00
00
00
00
00
80
00
00
00
00
00
00
00
80
ENDCHAR
STARTCHAR C025440
ENCODING 11040
SWIDTH 2400 0
DWIDTH 24 0
BBX 1 2 24 9
BITMAP
80
80
ENDCHAR
STARTCHAR C025441
ENCODING 11041
SWIDTH 2400 0
DWIDTH 24 0
BBX 15 13 5 -2
BITMAP
C3FC
FE1E
633C
03E0
0380
0380
0300
0300
0600
0600
0C00
0C00
1800
ENDCHAR
STARTCHAR C025442
ENCODING 11042
SWIDTH 2400 0
DWIDTH 24 0
BBX 19 16 3 0
BITMAP
C0FFC0
7FC1E0
7803E0
00EF00
00F800
00E000
00E000
00E000
00E000
01C000
01C000
018000
038000
030000
060000
060000
ENDCHAR
STARTCHAR C025443
ENCODING 11043
SWIDTH 2400 0
DWIDTH 24 0
BBX 10 15 8 -2
BITMAP
0180
0180
03C0
0300
0700
0E00
1E00
3E00
6600
C600
0600
0600
0600
0600
0600
ENDCHAR
STARTCHAR C025444
ENCODING 11044
SWIDTH 2400 0
DWIDTH 24 0
BBX 14 19 5 -2
BITMAP
0030
0038
003C
0070
00E0
00C0
01C0
03C0
07C0
0EC0
18C0
70C0
C0C0
00C0
00C0
00C0
00C0
00C0
00C0
ENDCHAR
STARTCHAR C025445
ENCODING 11045
SWIDTH 2400 0
DWIDTH 24 0
BBX 13 13 6 -2
BITMAP
0E00
0700
0600
FFF8
6038
6030
6070
E060
60E0
00C0
0180
0300
0600
ENDCHAR
STARTCHAR C025446
ENCODING 11046
SWIDTH 2400 0
DWIDTH 24 0
BBX 17 17 4 0
BITMAP
030000
01C000
01C000
01C000
FFFF80
700780
700700
700700
700E00
700E00
701C00
001C00
003800
003000
006000
00C000
018000
ENDCHAR
STARTCHAR C025447
ENCODING 11047
SWIDTH 2400 0
DWIDTH 24 0
BBX 15 9 5 -2
BITMAP
0030
3FF8
0380
0180
0180
0180
0300
FFFE
7000
ENDCHAR
STARTCHAR C025450
ENCODING 11048
SWIDTH 2400 0
DWIDTH 24 0
BBX 19 11 3 2
BITMAP
000E00
1FFF00
0FC000
00E000
006000
006000
006000
006000
006000
FFFFE0
7C00E0
ENDCHAR
STARTCHAR C025451
ENCODING 11049
SWIDTH 2400 0
DWIDTH 24 0
BBX 14 14 6 -2
BITMAP
0300
0180
0180
01B8
FFFC
6380
0780
0F80
1D80
3980
6180
0180
0380
0180
ENDCHAR
STARTCHAR C025452
ENCODING 11050
SWIDTH 2400 0
DWIDTH 24 0
BBX 18 18 3 -2
BITMAP
00E000
003800
003000
003000
C03FC0
FFFFC0
387000
00F000
01F000
03B000
073000
0E3000
1C3000
303000
603000
01F000
007000
003000
ENDCHAR
STARTCHAR C025453
ENCODING 11051
SWIDTH 2400 0
DWIDTH 24 0
BBX 17 17 4 -1
BITMAP
00E000
007000
00E000
00E000
60CF00
3FFF80
1D8380
038300
030700
070600
0E0600
0C0E00
180C00
300C00
60DC00
C07800
007000
ENDCHAR
STARTCHAR C025454
ENCODING 11052
SWIDTH 2400 0
DWIDTH 24 0
BBX 20 17 4 -1
BITMAP
00E000
00F070
00E1B0
00E0E0
61DFE0
3FFF80
3D8300
038700
070600
060600
0E0E00
1C0E00
180C00
301C00
60D800
C07800
007000
ENDCHAR
STARTCHAR C025455
ENCODING 11053
SWIDTH 2400 0
DWIDTH 24 0
BBX 17 18 4 -2
BITMAP
070000
030000
030C00
03FC00
03F000
FF8000
398000
01C780
00FF80
01F000
CFE000
7C6000
006000
007000
007000
003000
003800
003800
ENDCHAR
STARTCHAR C025456
ENCODING 11054
SWIDTH 2400 0
DWIDTH 24 0
BBX 19 19 4 -2
BITMAP
0C0000
0700E0
0303E0
030F80
03FD80
03E000
FF8000
398000
01C780
00FF80
01E000
DFE000
78E000
006000
007000
007000
003000
003800
003800
ENDCHAR
STARTCHAR C025457
ENCODING 11055
SWIDTH 2400 0
DWIDTH 24 0
BBX 14 17 6 -1
BITMAP
0700
0780
07FC
0E1C
1C38
3838
7070
C0E0
00E0
01C0
0380
0700
0600
1C00
3800
6000
C000
ENDCHAR
STARTCHAR C025460
ENCODING 11056
SWIDTH 2400 0
DWIDTH 24 0
BBX 19 18 5 -1
BITMAP
0001C0
0383E0
03C3E0
03FF80
070E00
0E1C00
1C1C00
383800
607000
007000
00E000
01C000
038000
070000
0E0000
1C0000
300000
E00000
ENDCHAR
STARTCHAR C025461
ENCODING 11057
SWIDTH 2400 0
DWIDTH 24 0
BBX 16 17 5 -1
BITMAP
1C00
0E00
0E00
1C00
383F
3FFC
6060
C060
00E0
00E0
01C0
0180
0380
0700
0E00
1800
3000
ENDCHAR
STARTCHAR C025462
ENCODING 11058
SWIDTH 2400 0
DWIDTH 24 0
BBX 21 17 3 0
BITMAP
000070
0701F8
0300F8
078060
070000
0E1FC0
1FFC00
381800
703800
C03800
003000
007000
00E000
00C000
018000
030000
060000
ENDCHAR
STARTCHAR C025463
ENCODING 11059
SWIDTH 2400 0
DWIDTH 24 0
BBX 15 11 5 2
BITMAP
C1FC
7FDE
301C
001C
001C
0018
0018
0018
0038
FFF8
7C00
ENDCHAR
STARTCHAR C025464
ENCODING 11060
SWIDTH 2400 0
DWIDTH 24 0
BBX 19 14 5 2
BITMAP
0000E0
000660
000380
C0FD80
7FEE00
381C00
001C00
001C00
001800
001800
001800
003800
EFF800
7E0000
ENDCHAR
STARTCHAR C025465
ENCODING 11061
SWIDTH 2400 0
DWIDTH 24 0
BBX 20 17 2 -1
BITMAP
001C00
060E00
030E00
030600
030600
EFFFF0
7F0600
030600
030600
030600
030C00
030C00
000C00
001C00
001800
003000
006000
ENDCHAR
STARTCHAR C025466
ENCODING 11062
SWIDTH 2400 0
DWIDTH 24 0
BBX 22 17 2 -1
BITMAP
001C1C
0E0E6C
070E70
030630
030600
EFFFF0
7F0600
030600
030600
030600
030C00
030C00
000C00
001C00
001800
003000
006000
ENDCHAR
STARTCHAR C025467
ENCODING 11063
SWIDTH 2400 0
DWIDTH 24 0
BBX 18 15 4 0
BITMAP
3C0000
1E0000
060000
0000C0
000180
E00300
7C0600
1C0E00
003C00
007000
00E000
03C000
6F0000
7E0000
3C0000
ENDCHAR
STARTCHAR C025470
ENCODING 11064
SWIDTH 2400 0
DWIDTH 24 0
BBX 17 16 4 -1
BITMAP
3C0700
1E0380
061C00
000E00
000000
F00180
7C0700
1C0E00
001C00
003800
00F000
01C000
078000
7E0000
3C0000
180000
ENDCHAR
STARTCHAR C025471
ENCODING 11065
SWIDTH 2400 0
DWIDTH 24 0
BBX 16 14 5 0
BITMAP
61F8
3FBC
1878
0070
00E0
01C0
0180
0380
07E0
0C38
181C
700F
C007
0003
ENDCHAR
STARTCHAR C025472
ENCODING 11066
SWIDTH 2400 0
DWIDTH 24 0
BBX 19 16 5 0
BITMAP
0001C0
0007E0
61FB80
3F3C00
187000
007000
00E000
01C000
018000
038000
07E000
0C3800
381C00
700F00
C00700
000300
ENDCHAR
STARTCHAR C025473
ENCODING 11067
SWIDTH 2400 0
DWIDTH 24 0
BBX 17 15 4 0
BITMAP
070000
038000
030000
030000
033F00
03E780
0F0F00
FB0C00
631800
030000
030000
030000
030000
01C780
00FF80
ENDCHAR
STARTCHAR C025474
ENCODING 11068
SWIDTH 2400 0
DWIDTH 24 0
BBX 20 15 4 0
BITMAP
070070
038030
0300F0
0300E0
031F00
03F780
0F0700
FB0C00
631800
030000
030000
030000
030000
018780
00FF80
ENDCHAR
STARTCHAR C025475
ENCODING 11069
SWIDTH 2400 0
DWIDTH 24 0
BBX 15 15 5 0
BITMAP
001C
C00E
600E
701C
381C
3838
0030
0070
00E0
00C0
0180
0300
0600
0C00
1800
ENDCHAR
STARTCHAR C025476
ENCODING 11070
SWIDTH 2400 0
DWIDTH 24 0
BBX 19 17 5 0
BITMAP
0000C0
000360
001DE0
C00FC0
600E00
701C00
381C00
383800
003000
007000
00E000
01C000
018000
030000
060000
0C0000
180000
ENDCHAR
STARTCHAR C025477
ENCODING 11071
SWIDTH 2400 0
DWIDTH 24 0
BBX 15 17 5 -1
BITMAP
0380
01C0
03FE
070E
061C
0C1C
1C38
3770
E3F0
01E0
01C0
0380
0700
0E00
1C00
3800
6000
ENDCHAR
STARTCHAR C025500
ENCODING 11072
SWIDTH 2400 0
DWIDTH 24 0
BBX 19 18 5 -1
BITMAP
000180
0386E0
01CFE0
03FF80
070E00
0E1C00
1C1800
3E3800
737000
C1E000
00E000
01C000
038000
070000
0E0000
1C0000
300000
600000
ENDCHAR
STARTCHAR C025501
ENCODING 11073
SWIDTH 2400 0
DWIDTH 24 0
BBX 19 19 3 -2
BITMAP
003800
003C00
00F800
03E000
0FE000
187000
006000
03FFE0
FF6000
306000
00E000
00E000
00C000
00C000
01C000
018000
030000
060000
0C0000
ENDCHAR
STARTCHAR C025502
ENCODING 11074
SWIDTH 2400 0
DWIDTH 24 0
BBX 21 18 3 -1
BITMAP
003800
003C00
00F870
03E1B8
0FE0C0
1870C0
006000
03FFE0
FF6000
306000
00E000
00E000
00C000
00C000
018000
018000
030000
060000
ENDCHAR
STARTCHAR C025503
ENCODING 11075
SWIDTH 2400 0
DWIDTH 24 0
BBX 13 11 6 -2
BITMAP
0C30
CE38
E638
6670
6060
00E0
01C0
0180
0300
0600
0C00
ENDCHAR
STARTCHAR C025504
ENCODING 11076
SWIDTH 2400 0
DWIDTH 24 0
BBX 17 14 4 0
BITMAP
030700
C38780
638700
718600
700E00
000C00
001C00
003800
003000
006000
00E000
018000
030000
060000
ENDCHAR
STARTCHAR C025505
ENCODING 11077
SWIDTH 2400 0
DWIDTH 24 0
BBX 20 16 4 0
BITMAP
000070
0001F0
0307F0
C383E0
638780
718700
700E00
300E00
001C00
001800
003800
007000
00E000
01C000
038000
060000
ENDCHAR
STARTCHAR C025506
ENCODING 11078
SWIDTH 2400 0
DWIDTH 24 0
BBX 17 17 4 -1
BITMAP
1FFE00
070000
000000
000000
03FF80
FFC180
70E000
00E000
00C000
01C000
01C000
038000
030000
070000
060000
0C0000
180000
ENDCHAR
STARTCHAR C025507
ENCODING 11079
SWIDTH 2400 0
DWIDTH 24 0
BBX 20 18 4 -2
BITMAP
001870
1FFFF0
0700F0
000060
000000
03FF80
FFC180
70E000
00E000
00C000
01C000
01C000
038000
030000
070000
060000
0C0000
180000
ENDCHAR
STARTCHAR C025510
ENCODING 11080
SWIDTH 2400 0
DWIDTH 24 0
BBX 9 19 10 -2
BITMAP
C000
7000
7000
6000
6000
6000
6000
6000
7E00
6700
6380
6180
6000
6000
6000
6000
6000
6000
6000
ENDCHAR
STARTCHAR C025511
ENCODING 11081
SWIDTH 2400 0
DWIDTH 24 0
BBX 12 19 10 -2
BITMAP
C000
7000
70C0
6070
63B0
61C0
60C0
6000
7E00
6700
6380
6180
6000
6000
6000
6000
6000
6000
6000
ENDCHAR
STARTCHAR C025512
ENCODING 11082
SWIDTH 2400 0
DWIDTH 24 0
BBX 19 19 3 -2
BITMAP
00C000
006000
006000
006000
006000
006000
C7FFE0
FE6000
006000
006000
006000
00C000
00C000
00C000
01C000
018000
030000
060000
0C0000
ENDCHAR
STARTCHAR C025513
ENCODING 11083
SWIDTH 2400 0
DWIDTH 24 0
BBX 19 9 3 3
BITMAP
1CFE00
0FFE00
000000
000000
000000
000000
000000
FFFFE0
7C00E0
ENDCHAR
STARTCHAR C025514
ENCODING 11084
SWIDTH 2400 0
DWIDTH 24 0
BBX 14 15 6 0
BITMAP
30FC
1FDC
0C38
0030
0070
1CE0
07E0
03C0
03C0
07E0
0E70
1C38
3830
7000
C000
ENDCHAR
STARTCHAR C025515
ENCODING 11085
SWIDTH 2400 0
DWIDTH 24 0
BBX 16 19 5 -2
BITMAP
0600
03C0
01E0
0000
0070
6FF8
78E0
01C0
0380
07E0
0FB8
1D9E
718F
C187
0183
0180
0380
0380
0180
ENDCHAR
STARTCHAR C025516
ENCODING 11086
SWIDTH 2400 0
DWIDTH 24 0
BBX 13 16 6 0
BITMAP
0060
0030
0038
0038
0070
0070
00E0
01C0
0180
0380
0700
0E00
1C00
3800
7000
C000
ENDCHAR
STARTCHAR C025517
ENCODING 11087
SWIDTH 2400 0
DWIDTH 24 0
BBX 21 9 2 3
BITMAP
030000
038600
038380
0701C0
0E00E0
0C0070
180078
700038
C00000
ENDCHAR
STARTCHAR C025520
ENCODING 11088
SWIDTH 2400 0
DWIDTH 24 0
BBX 22 12 2 3
BITMAP
000030
00001C
00007C
060030
038600
038380
0701C0
0E00E0
1C0070
380078
700038
C00000
ENDCHAR
STARTCHAR C025521
ENCODING 11089
SWIDTH 2400 0
DWIDTH 24 0
BBX 22 12 2 3
BITMAP
00003C
00006C
000064
03006C
03863C
03C380
0701C0
0E00E0
0C0070
180078
700038
C00000
ENDCHAR
STARTCHAR C025522
ENCODING 11090
SWIDTH 2400 0
DWIDTH 24 0
BBX 15 16 5 0
BITMAP
E000
3000
3000
3000
3000
3078
3FF8
3C00
3000
3000
3000
3000
3000
3000
180E
0FFE
ENDCHAR
STARTCHAR C025523
ENCODING 11091
SWIDTH 2400 0
DWIDTH 24 0
BBX 18 16 5 0
BITMAP
E00000
300380
300DC0
300700
300300
307800
3FF800
3C0000
300000
300000
300000
300000
300000
300000
180E00
0FFE00
ENDCHAR
STARTCHAR C025524
ENCODING 11092
SWIDTH 2400 0
DWIDTH 24 0
BBX 18 16 5 0
BITMAP
E00780
300CC0
300CC0
300780
300000
307800
3FF800
3E0000
300000
300000
300000
300000
300000
300000
180E00
0FFE00
ENDCHAR
STARTCHAR C025525
ENCODING 11093
SWIDTH 2400 0
DWIDTH 24 0
BBX 17 14 4 0
BITMAP
FFFF00
7C0780
000700
000600
000E00
000C00
001C00
003800
003000
007000
00E000
01C000
030000
060000
ENDCHAR
STARTCHAR C025526
ENCODING 11094
SWIDTH 2400 0
DWIDTH 24 0
BBX 20 17 4 0
BITMAP
000070
0001F0
0000E0
FFFF00
780780
000700
000E00
000E00
001C00
001800
003800
007000
006000
00C000
018000
030000
060000
ENDCHAR
STARTCHAR C025527
ENCODING 11095
SWIDTH 2400 0
DWIDTH 24 0
BBX 21 18 3 -1
BITMAP
000078
0000C8
0000C8
FFFFF8
7C0380
000700
000700
000E00
000C00
001C00
003800
003000
007000
00E000
01C000
030000
060000
1C0000
ENDCHAR
STARTCHAR C025530
ENCODING 11096
SWIDTH 2400 0
DWIDTH 24 0
BBX 21 9 2 3
BITMAP
03C000
0E6000
1C3800
F81C00
700E00
000780
0001E0
0000F8
000038
ENDCHAR
STARTCHAR C025531
ENCODING 11097
SWIDTH 2400 0
DWIDTH 24 0
BBX 21 12 2 3
BITMAP
0000E0
000070
0001F0
03C0C0
0E6000
1C3800
F81C00
700E00
000780
0001E0
0000F8
000038
ENDCHAR
STARTCHAR C025532
ENCODING 11098
SWIDTH 2400 0
DWIDTH 24 0
BBX 21 12 2 3
BITMAP
0001E0
000330
000330
03C330
0E61E0
1C3800
F81C00
700E00
000780
0001E0
0000F8
000038
ENDCHAR
STARTCHAR C025533
ENCODING 11099
SWIDTH 2400 0
DWIDTH 24 0
BBX 17 17 4 -1
BITMAP
01C000
00E000
00C000
00C000
00C000
FFFF80
3EC000
00C000
00D800
30CC00
30C600
60C700
E0C380
E0C380
E3C180
01C000
00C000
ENDCHAR
STARTCHAR C025534
ENCODING 11100
SWIDTH 2400 0
DWIDTH 24 0
BBX 21 17 3 -1
BITMAP
01C000
00E070
00C1B8
00C0E0
00C000
FFFF80
3EC000
00C000
00CC00
00C600
30C300
30C380
70C1C0
70C1C0
63C0C0
01C000
00C000
ENDCHAR
STARTCHAR C025535
ENCODING 11101
SWIDTH 2400 0
DWIDTH 24 0
BBX 19 19 4 -1
BITMAP
0003C0
000660
01C660
00E660
00C3C0
00C000
00C000
7FFF80
3EC000
00C000
00D800
30CC00
30C600
60C700
E0C380
E0C380
E3C180
01C000
00C000
ENDCHAR
STARTCHAR C025536
ENCODING 11102
SWIDTH 2400 0
DWIDTH 24 0
BBX 21 11 2 2
BITMAP
000FE0
E7FC70
7F00F8
3001C0
000380
018600
00FC00
007000
007800
003800
001800
ENDCHAR
STARTCHAR C025537
ENCODING 11103
SWIDTH 2400 0
DWIDTH 24 0
BBX 11 17 7 -1
BITMAP
6000
3C00
0F80
0180
0000
0000
6000
3E00
0F80
0180
0000
0000
C000
7C00
0F80
03E0
00E0
ENDCHAR
STARTCHAR C025540
ENCODING 11104
SWIDTH 2400 0
DWIDTH 24 0
BBX 18 14 4 1
BITMAP
01C000
00C000
00E000
01C000
01C000
038000
030000
071800
060C00
0E0600
0C0700
181F80
FFF380
7C01C0
ENDCHAR
STARTCHAR C025541
ENCODING 11105
SWIDTH 2400 0
DWIDTH 24 0
BBX 15 15 5 0
BITMAP
000C
000E
001E
001C
0038
0730
01F0
00E0
01F0
03B8
0738
0E00
1C00
3000
E000
ENDCHAR
STARTCHAR C025542
ENCODING 11106
SWIDTH 2400 0
DWIDTH 24 0
BBX 18 15 4 0
BITMAP
001C00
3FFE00
0C0000
01C000
01C000
018380
C1FFC0
FF8000
318000
018000
018000
018000
01C000
00FF80
007F80
ENDCHAR
STARTCHAR C025543
ENCODING 11107
SWIDTH 2400 0
DWIDTH 24 0
BBX 16 13 5 -2
BITMAP
1C00
0E00
060C
06FE
0F8F
FB18
6300
0300
0380
0180
0180
0180
01C0
ENDCHAR
STARTCHAR C025544
ENCODING 11108
SWIDTH 2400 0
DWIDTH 24 0
BBX 21 17 2 -1
BITMAP
070000
03C000
01C000
01C3F0
00FE70
03E0F8
FEC1C0
78E300
006000
006000
007000
007000
003000
003800
003800
003800
001800
ENDCHAR
STARTCHAR C025545
ENCODING 11109
SWIDTH 2400 0
DWIDTH 24 0
BBX 16 8 4 -2
BITMAP
0FF8
0030
0070
0060
0060
0060
FFFF
7003
ENDCHAR
STARTCHAR C025546
ENCODING 11110
SWIDTH 2400 0
DWIDTH 24 0
BBX 21 10 2 2
BITMAP
0C0E00
07FF00
000E00
000E00
000C00
000C00
001C00
001800
FFFFF0
7C0078
ENDCHAR
STARTCHAR C025547
ENCODING 11111
SWIDTH 2400 0
DWIDTH 24 0
BBX 11 11 7 -3
BITMAP
00C0
FFE0
00E0
00E0
00C0
7FC0
00C0
01C0
0180
FFC0
6000
ENDCHAR
STARTCHAR C025550
ENCODING 11112
SWIDTH 2400 0
DWIDTH 24 0
BBX 14 13 6 1
BITMAP
FFF8
603C
0038
0038
0038
0038
FFF0
6030
0030
0030
0070
FFF0
6000
ENDCHAR
STARTCHAR C025551
ENCODING 11113
SWIDTH 2400 0
DWIDTH 24 0
BBX 16 17 4 -1
BITMAP
307C
1FFC
0000
0000
000E
FFFF
7C0F
000E
001C
001C
0038
0070
00E0
01C0
0380
0700
0C00
ENDCHAR
STARTCHAR C025552
ENCODING 11114
SWIDTH 2400 0
DWIDTH 24 0
BBX 10 17 7 -1
BITMAP
C1C0
60C0
60C0
60C0
60C0
60C0
60C0
60C0
60C0
60C0
60C0
00C0
0180
0180
0300
0300
0600
ENDCHAR
STARTCHAR C025553
ENCODING 11115
SWIDTH 2400 0
DWIDTH 24 0
BBX 20 13 2 1
BITMAP
003000
0E3800
0F3000
063000
0E3000
0E3000
0C3070
0C30E0
1C31C0
183700
303E00
603C00
C03000
ENDCHAR
STARTCHAR C025554
ENCODING 11116
SWIDTH 2400 0
DWIDTH 24 0
BBX 13 13 6 1
BITMAP
E000
7000
6000
6000
6018
6030
6060
60C0
6380
6F00
7E00
7800
7000
ENDCHAR
STARTCHAR C025555
ENCODING 11117
SWIDTH 2400 0
DWIDTH 24 0
BBX 16 11 5 2
BITMAP
FFFE
7C0F
300F
300E
300E
300E
301C
301C
301C
3FFC
3800
ENDCHAR
STARTCHAR C025556
ENCODING 11118
SWIDTH 2400 0
DWIDTH 24 0
BBX 13 11 6 -2
BITMAP
FFF8
E038
6030
6070
E060
60E0
00C0
0180
0300
0600
0C00
ENDCHAR
STARTCHAR C025557
ENCODING 11119
SWIDTH 2400 0
DWIDTH 24 0
BBX 16 15 5 -1
BITMAP
FFFE
E00F
E00E
E00C
E01C
E018
E038
6030
0070
00E0
00C0
0180
0300
0600
0C00
ENDCHAR
STARTCHAR C025560
ENCODING 11120
SWIDTH 2400 0
DWIDTH 24 0
BBX 18 20 3 -2
BITMAP
006000
003000
003800
003000
003600
1FFF00
0E3000
003000
0C3000
063000
063000
063180
C7FFC0
7E3000
003000
003000
003000
003000
003000
003000
ENDCHAR
STARTCHAR C025561
ENCODING 11121
SWIDTH 2400 0
DWIDTH 24 0
BBX 21 12 2 3
BITMAP
000300
19FF80
0F8780
000E00
00F800
007000
007000
006000
006000
006000
E7FFF0
7E00F8
ENDCHAR
STARTCHAR C025562
ENCODING 11122
SWIDTH 2400 0
DWIDTH 24 0
BBX 15 16 5 -1
BITMAP
C0FC
7FCE
000E
001C
001C
FFF8
7E38
0030
0070
00E0
01C0
0180
0700
0E00
1800
3000
ENDCHAR
STARTCHAR C025563
ENCODING 11123
SWIDTH 2400 0
DWIDTH 24 0
BBX 16 13 5 1
BITMAP
7000
3C00
1E00
0003
0006
001C
0038
0070
01C0
0380
CF00
7C00
3800
ENDCHAR
STARTCHAR C025564
ENCODING 11124
SWIDTH 2400 0
DWIDTH 24 0
BBX 20 17 4 0
BITMAP
030000
01C060
01C1F0
01C0F0
FFFFE0
780780
700700
700700
700600
700E00
700C00
001C00
003800
003000
006000
00C000
018000
ENDCHAR
STARTCHAR C025565
ENCODING 11125
SWIDTH 2400 0
DWIDTH 24 0
BBX 13 13 6 -2
BITMAP
0300
0380
0300
03F0
7F38
0630
0E30
0C70
1860
3060
60E0
C3C0
0180
ENDCHAR
STARTCHAR C025566
ENCODING 11126
SWIDTH 2400 0
DWIDTH 24 0
BBX 13 12 6 -2
BITMAP
1C00
1C00
3838
3FF8
6180
C180
0180
0300
0700
0600
0C00
1800
ENDCHAR
STARTCHAR C025567
ENCODING 11127
SWIDTH 2400 0
DWIDTH 24 0
BBX 0 0 0 0
BITMAP
ENDCHAR
STARTCHAR C025570
ENCODING 11128
SWIDTH 2400 0
DWIDTH 24 0
BBX 0 0 0 0
BITMAP
ENDCHAR
STARTCHAR C025571
ENCODING 11129
SWIDTH 2400 0
DWIDTH 24 0
BBX 1 21 24 -4
BITMAP
80
00
00
80
00
00
00
00
00
00
00
00
80
00
00
00
00
00
00
00
80
ENDCHAR
STARTCHAR C025572
ENCODING 11130
SWIDTH 2400 0
DWIDTH 24 0
BBX 0 0 0 0
BITMAP
ENDCHAR
STARTCHAR C025573
ENCODING 11131
SWIDTH 2400 0
DWIDTH 24 0
BBX 0 0 0 0
BITMAP
ENDCHAR
STARTCHAR C025574
ENCODING 11132
SWIDTH 2400 0
DWIDTH 24 0
BBX 0 0 0 0
BITMAP
ENDCHAR
STARTCHAR C025575
ENCODING 11133
SWIDTH 2400 0
DWIDTH 24 0
BBX 0 0 0 0
BITMAP
ENDCHAR
STARTCHAR C025576
ENCODING 11134
SWIDTH 2400 0
DWIDTH 24 0
BBX 1 2 24 16
BITMAP
80
80
ENDCHAR
STARTCHAR C025577
ENCODING 11135
SWIDTH 2400 0
DWIDTH 24 0
BBX 0 0 0 0
BITMAP
ENDCHAR
STARTCHAR C026040
ENCODING 11296
SWIDTH 2400 0
DWIDTH 24 0
BBX 1 1 24 0
BITMAP
80
ENDCHAR
STARTCHAR C026041
ENCODING 11297
SWIDTH 2400 0
DWIDTH 24 0
BBX 20 17 2 0
BITMAP
006000
006000
00F000
00F000
01B800
019800
031C00
030C00
030E00
060E00
060600
0FFF00
0C0300
180380
180180
3001C0
FC07F0
ENDCHAR
STARTCHAR C026042
ENCODING 11298
SWIDTH 2400 0
DWIDTH 24 0
BBX 14 16 5 0
BITMAP
FFFC
181C
180C
180C
1800
1800
1800
1FE0
1838
181C
180C
180C
180C
181C
3838
FFF0
ENDCHAR
STARTCHAR C026043
ENCODING 11299
SWIDTH 2400 0
DWIDTH 24 0
BBX 14 16 5 0
BITMAP
FFE0
1870
1818
1818
1818
1818
1838
1FE0
1830
1818
180C
180C
180C
181C
1838
FFE0
ENDCHAR
STARTCHAR C026044
ENCODING 11300
SWIDTH 2400 0
DWIDTH 24 0
BBX 15 16 5 0
BITMAP
FFFE
380E
1806
1806
1800
1800
1800
1800
1800
1800
1800
1800
1800
1800
1800
FF00
ENDCHAR
STARTCHAR C026045
ENCODING 11301
SWIDTH 2400 0
DWIDTH 24 0
BBX 18 20 3 -4
BITMAP
1FFFC0
030700
030600
030600
030600
030600
060600
060600
060600
060600
0C0600
0C0600
180600
180600
300600
7FFF00
F003C0
E000C0
C000C0
C000C0
ENDCHAR
STARTCHAR C026046
ENCODING 11302
SWIDTH 2400 0
DWIDTH 24 0
BBX 15 16 5 0
BITMAP
7FFC
180C
180C
1800
1800
1818
1818
1FF8
1818
1818
1800
1800
1800
1806
1806
FFFC
ENDCHAR
STARTCHAR C026047
ENCODING 11303
SWIDTH 2400 0
DWIDTH 24 0
BBX 15 18 5 0
BITMAP
1C70
1C78
0000
FFFC
181C
180C
1800
1800
1818
1818
1FF8
1818
1818
1800
1800
1806
180E
FFFC
ENDCHAR
STARTCHAR C026050
ENCODING 11304
SWIDTH 2400 0
DWIDTH 24 0
BBX 23 17 1 0
BITMAP
F8007C
FDFEFC
0C30C0
063180
063180
063180
063180
033300
01FE00
03B700
073380
0F33C0
0E31C0
1C30E0
1C30E0
387870
F9FE7E
ENDCHAR
STARTCHAR C026051
ENCODING 11305
SWIDTH 2400 0
DWIDTH 24 0
BBX 11 17 7 0
BITMAP
1F80
71C0
60E0
C0E0
C060
00E0
00C0
0180
1F00
03C0
00E0
00E0
0060
0060
C0E0
61E0
3F80
ENDCHAR
STARTCHAR C026052
ENCODING 11306
SWIDTH 2400 0
DWIDTH 24 0
BBX 19 16 3 0
BITMAP
FF1FE0
180300
180300
180F00
181B00
183300
183300
186300
18C300
198300
1B0300
1E0300
1E0300
1C0300
1C0300
FF1FE0
ENDCHAR
STARTCHAR C026053
ENCODING 11307
SWIDTH 2400 0
DWIDTH 24 0
BBX 19 18 3 0
BITMAP
079C00
03BC00
00E000
FF1FE0
180300
180700
180F00
181F00
183B00
187300
18E300
19C300
1B8300
1B0300
1E0300
1C0300
180300
FF1FE0
ENDCHAR
STARTCHAR C026054
ENCODING 11308
SWIDTH 2400 0
DWIDTH 24 0
BBX 18 17 4 0
BITMAP
000F80
7F1F80
181B80
183000
183000
186000
186000
18C000
198000
1FC000
19E000
187000
187800
183C00
181C00
380E00
FF07C0
ENDCHAR
STARTCHAR C026055
ENCODING 11309
SWIDTH 2400 0
DWIDTH 24 0
BBX 17 16 3 0
BITMAP
0FFF80
030600
030600
030600
030600
030600
030600
030600
030600
030600
030600
030600
060600
660600
FC0600
F83F80
ENDCHAR
STARTCHAR C026056
ENCODING 11310
SWIDTH 2400 0
DWIDTH 24 0
BBX 23 17 1 0
BITMAP
F8007E
780070
3C0070
3C00F0
3E00F0
3601B0
3701B0
330330
318330
318630
30C630
30CE30
306C30
307C30
303830
303830
FC01FE
ENDCHAR
STARTCHAR C026057
ENCODING 11311
SWIDTH 2400 0
DWIDTH 24 0
BBX 19 16 3 0
BITMAP
FF1FE0
180300
180300
180300
180300
180300
180300
1FFF00
180300
180300
180300
180300
180300
180300
180300
FF1FE0
ENDCHAR
STARTCHAR C026060
ENCODING 11312
SWIDTH 2400 0
DWIDTH 24 0
BBX 17 17 4 0
BITMAP
07F000
1C1C00
380E00
700700
600300
C00380
C00180
C00180
C00180
C00180
C00180
E00180
600300
700700
380600
1C1C00
07F000
ENDCHAR
STARTCHAR C026061
ENCODING 11313
SWIDTH 2400 0
DWIDTH 24 0
BBX 19 16 3 0
BITMAP
FFFFC0
180300
180300
180300
180300
180300
180300
180300
180300
180300
180300
180300
180300
180300
180300
FE0FE0
ENDCHAR
STARTCHAR C026062
ENCODING 11314
SWIDTH 2400 0
DWIDTH 24 0
BBX 15 16 5 0
BITMAP
7FF0
181C
180E
1806
1806
1806
180E
181C
1FF0
1800
1800
1800
1800
1800
1800
FE00
ENDCHAR
STARTCHAR C026063
ENCODING 11315
SWIDTH 2400 0
DWIDTH 24 0
BBX 15 17 5 0
BITMAP
03C0
1E7E
380E
7006
6006
E000
C000
C000
C000
C000
C000
C000
6000
6000
7006
3C0C
0FF8
ENDCHAR
STARTCHAR C026064
ENCODING 11316
SWIDTH 2400 0
DWIDTH 24 0
BBX 16 16 4 0
BITMAP
FFFF
E187
C183
0180
0180
0180
0180
0180
0180
0180
0180
0180
0180
0180
0180
0FE0
ENDCHAR
STARTCHAR C026065
ENCODING 11317
SWIDTH 2400 0
DWIDTH 24 0
BBX 18 16 4 0
BITMAP
FC07C0
380300
180600
180600
0C0C00
0E0C00
061800
071800
033000
03B000
01E000
01E000
00C000
00C000
3D8000
3F0000
ENDCHAR
STARTCHAR C026066
ENCODING 11318
SWIDTH 2400 0
DWIDTH 24 0
BBX 17 16 4 0
BITMAP
03F800
00C000
0FC000
3CF800
70CE00
E0C300
C0C180
C0C180
C0C180
C0C180
60C380
70C300
3CCE00
07F800
00C000
07E000
ENDCHAR
STARTCHAR C026067
ENCODING 11319
SWIDTH 2400 0
DWIDTH 24 0
BBX 19 16 3 0
BITMAP
7F0FE0
0C0380
0E0600
060600
030C00
019800
01F000
00E000
00E000
01B000
031800
061C00
0C0C00
180600
300700
FC1FC0
ENDCHAR
STARTCHAR C026070
ENCODING 11320
SWIDTH 2400 0
DWIDTH 24 0
BBX 19 20 3 -4
BITMAP
FF0FE0
180380
180300
180300
180300
180300
180300
180300
180300
180300
180300
180300
180300
180300
180300
FFFF80
0000E0
000060
000060
000060
ENDCHAR
STARTCHAR C026071
ENCODING 11321
SWIDTH 2400 0
DWIDTH 24 0
BBX 17 16 4 0
BITMAP
FF7F80
180C00
180C00
180C00
180C00
180C00
180C00
180C00
181C00
0C3C00
07EC00
000C00
000C00
000C00
000C00
007F80
ENDCHAR
STARTCHAR C026072
ENCODING 11322
SWIDTH 2400 0
DWIDTH 24 0
BBX 23 16 1 0
BITMAP
7C783E
303018
303018
303018
303018
303018
303018
303018
303018
303018
303018
303018
303018
303018
303018
FFFFFE
ENDCHAR
STARTCHAR C026073
ENCODING 11323
SWIDTH 2400 0
DWIDTH 24 0
BBX 22 20 2 -4
BITMAP
FFFBFC
306060
306060
306060
306060
306060
306060
306060
306060
306060
306060
306060
306060
306060
306060
FFFFF0
00003C
00001C
00000C
00000C
ENDCHAR
STARTCHAR C026074
ENCODING 11324
SWIDTH 2400 0
DWIDTH 24 0
BBX 17 16 4 0
BITMAP
FFC000
E30000
C30000
030000
030000
030000
030000
03FC00
030700
030380
030180
030180
030180
030380
030F00
1FFC00
ENDCHAR
STARTCHAR C026075
ENCODING 11325
SWIDTH 2400 0
DWIDTH 24 0
BBX 22 16 1 0
BITMAP
FE00FC
180030
180030
180030
180030
180030
180030
1FE030
183830
181C30
180C30
180C30
180C30
181C30
183830
FFF1FC
ENDCHAR
STARTCHAR C026076
ENCODING 11326
SWIDTH 2400 0
DWIDTH 24 0
BBX 14 16 5 0
BITMAP
7E00
1800
1800
1800
1800
1800
1800
1FC0
1878
181C
180C
180C
180C
181C
1838
FFF0
ENDCHAR
STARTCHAR C026077
ENCODING 11327
SWIDTH 2400 0
DWIDTH 24 0
BBX 16 17 4 0
BITMAP
67E0
7C38
700C
6006
6007
0003
0003
0003
03FF
0003
0003
0003
0007
C006
600E
381C
0FF0
ENDCHAR
STARTCHAR C026100
ENCODING 11328
SWIDTH 2400 0
DWIDTH 24 0
BBX 22 18 2 -1
BITMAP
001F80
FE38E0
306030
30E018
30C018
31C00C
31800C
31800C
3F800C
31800C
31800C
31800C
31800C
30C018
30E018
306030
FE38E0
001FC0
ENDCHAR
STARTCHAR C026101
ENCODING 11329
SWIDTH 2400 0
DWIDTH 24 0
BBX 17 16 4 0
BITMAP
03FF80
0E0C00
1C0C00
180C00
180C00
1C0C00
0E0C00
07FC00
018C00
038C00
030C00
060C00
0C0C00
180C00
380C00
F03F80
ENDCHAR
STARTCHAR C026102
ENCODING 11330
SWIDTH 2400 0
DWIDTH 24 0
BBX 0 0 0 0
BITMAP
ENDCHAR
STARTCHAR C026103
ENCODING 11331
SWIDTH 2400 0
DWIDTH 24 0
BBX 0 0 0 0
BITMAP
ENDCHAR
STARTCHAR C026104
ENCODING 11332
SWIDTH 2400 0
DWIDTH 24 0
BBX 0 0 0 0
BITMAP
ENDCHAR
STARTCHAR C026105
ENCODING 11333
SWIDTH 2400 0
DWIDTH 24 0
BBX 0 0 0 0
BITMAP
ENDCHAR
STARTCHAR C026106
ENCODING 11334
SWIDTH 2400 0
DWIDTH 24 0
BBX 1 21 24 -4
BITMAP
80
00
00
80
00
00
00
00
00
00
00
00
80
00
00
00
00
00
00
00
80
ENDCHAR
STARTCHAR C026107
ENCODING 11335
SWIDTH 2400 0
DWIDTH 24 0
BBX 0 0 0 0
BITMAP
ENDCHAR
STARTCHAR C026110
ENCODING 11336
SWIDTH 2400 0
DWIDTH 24 0
BBX 0 0 0 0
BITMAP
ENDCHAR
STARTCHAR C026111
ENCODING 11337
SWIDTH 2400 0
DWIDTH 24 0
BBX 0 0 0 0
BITMAP
ENDCHAR
STARTCHAR C026112
ENCODING 11338
SWIDTH 2400 0
DWIDTH 24 0
BBX 0 0 0 0
BITMAP
ENDCHAR
STARTCHAR C026113
ENCODING 11339
SWIDTH 2400 0
DWIDTH 24 0
BBX 1 2 24 16
BITMAP
80
80
ENDCHAR
STARTCHAR C026114
ENCODING 11340
SWIDTH 2400 0
DWIDTH 24 0
BBX 0 0 0 0
BITMAP
ENDCHAR
STARTCHAR C026115
ENCODING 11341
SWIDTH 2400 0
DWIDTH 24 0
BBX 0 0 0 0
BITMAP
ENDCHAR
STARTCHAR C026116
ENCODING 11342
SWIDTH 2400 0
DWIDTH 24 0
BBX 0 0 0 0
BITMAP
ENDCHAR
STARTCHAR C026117
ENCODING 11343
SWIDTH 2400 0
DWIDTH 24 0
BBX 0 0 0 0
BITMAP
ENDCHAR
STARTCHAR C026120
ENCODING 11344
SWIDTH 2400 0
DWIDTH 24 0
BBX 1 4 24 -2
BITMAP
80
00
00
80
ENDCHAR
STARTCHAR C026121
ENCODING 11345
SWIDTH 2400 0
DWIDTH 24 0
BBX 11 11 7 0
BITMAP
3F00
6180
E180
6180
0780
1D80
7180
E180
E180
E380
7FE0
ENDCHAR
STARTCHAR C026122
ENCODING 11346
SWIDTH 2400 0
DWIDTH 24 0
BBX 12 17 6 0
BITMAP
0030
0FE0
3FC0
3800
6000
6000
FF80
E0C0
E060
C030
C030
C030
C030
C070
6060
30E0
1F80
ENDCHAR
STARTCHAR C026123
ENCODING 11347
SWIDTH 2400 0
DWIDTH 24 0
BBX 10 11 7 0
BITMAP
FF00
31C0
30C0
30C0
3180
3F80
31C0
30C0
30C0
31C0
FF80
ENDCHAR
STARTCHAR C026124
ENCODING 11348
SWIDTH 2400 0
DWIDTH 24 0
BBX 10 11 7 0
BITMAP
FFC0
30C0
30C0
3000
3000
3000
3000
3000
3000
3000
FC00
ENDCHAR
STARTCHAR C026125
ENCODING 11349
SWIDTH 2400 0
DWIDTH 24 0
BBX 14 14 5 -3
BITMAP
3FFC
0C30
0C30
0C30
0C30
1830
1830
1830
3030
3030
7FF8
C01C
C00C
000C
ENDCHAR
STARTCHAR C026126
ENCODING 11350
SWIDTH 2400 0
DWIDTH 24 0
BBX 10 11 7 -1
BITMAP
3F80
61C0
60C0
FFC0
C000
E000
E000
E000
70C0
7980
1F00
ENDCHAR
STARTCHAR C026127
ENCODING 11351
SWIDTH 2400 0
DWIDTH 24 0
BBX 11 16 7 -1
BITMAP
60C0
60C0
0000
0000
0000
3F80
60C0
60C0
FFE0
E000
E000
E000
E060
70C0
3980
1F00
ENDCHAR
STARTCHAR C026130
ENCODING 11352
SWIDTH 2400 0
DWIDTH 24 0
BBX 18 12 3 -1
BITMAP
780380
79E780
0CCC00
0CD800
06D800
07F800
0EDC00
1CCC00
18CE00
38C700
F3F380
0000C0
ENDCHAR
STARTCHAR C026131
ENCODING 11353
SWIDTH 2400 0
DWIDTH 24 0
BBX 10 12 7 -1
BITMAP
7F00
7180
61C0
0180
0300
0F00
01C0
00C0
00C0
C1C0
7780
1C00
ENDCHAR
STARTCHAR C026132
ENCODING 11354
SWIDTH 2400 0
DWIDTH 24 0
BBX 13 11 6 0
BITMAP
FDF8
3060
3060
30E0
31E0
3360
3660
3C60
3060
3060
FDF8
ENDCHAR
STARTCHAR C026133
ENCODING 11355
SWIDTH 2400 0
DWIDTH 24 0
BBX 13 16 6 0
BITMAP
38E0
38E0
3DC0
0F80
0000
FDF8
3060
3060
30E0
31E0
3360
3660
3C60
3060
3060
FDF8
ENDCHAR
STARTCHAR C026134
ENCODING 11356
SWIDTH 2400 0
DWIDTH 24 0
BBX 10 11 8 0
BITMAP
01C0
F3C0
6600
6C00
7C00
7C00
6E00
6600
6300
6380
F9C0
ENDCHAR
STARTCHAR C026135
ENCODING 11357
SWIDTH 2400 0
DWIDTH 24 0
BBX 13 11 6 0
BITMAP
3FF8
0C60
0C60
0C60
0C60
0C60
0C60
0C60
0C60
F860
F1F8
ENDCHAR
STARTCHAR C026136
ENCODING 11358
SWIDTH 2400 0
DWIDTH 24 0
BBX 17 10 4 0
BITMAP
F00F80
701E00
781E00
6C3600
6C3600
666600
676600
63C600
61C600
F99F80
ENDCHAR
STARTCHAR C026137
ENCODING 11359
SWIDTH 2400 0
DWIDTH 24 0
BBX 13 11 6 0
BITMAP
FDF8
3060
3060
3060
3060
3FE0
3060
3060
3060
3060
FDF8
ENDCHAR
STARTCHAR C026140
ENCODING 11360
SWIDTH 2400 0
DWIDTH 24 0
BBX 11 11 7 0
BITMAP
1F00
71C0
60C0
C060
C060
C060
C060
C060
60C0
71C0
1F00
ENDCHAR
STARTCHAR C026141
ENCODING 11361
SWIDTH 2400 0
DWIDTH 24 0
BBX 13 11 6 0
BITMAP
FFF8
3060
3060
3060
3060
3060
3060
3060
3060
3060
FDF8
ENDCHAR
STARTCHAR C026142
ENCODING 11362
SWIDTH 2400 0
DWIDTH 24 0
BBX 13 16 6 -4
BITMAP
3380
FFE0
3C70
3038
3018
3018
3018
3018
3018
3030
3860
3DC0
3700
3000
3000
FC00
ENDCHAR
ENDFONT
